<svg version="1.1" viewBox="0.0 0.0 960.0 540.0" fill="none" stroke="none" stroke-linecap="square" stroke-miterlimit="10" xmlns:xlink="http://www.w3.org/1999/xlink" xmlns="http://www.w3.org/2000/svg"><clipPath id="g3119b7740e0_0_5.0"><path d="m0 0l960.0 0l0 540.0l-960.0 0l0 -540.0z" clip-rule="nonzero"/></clipPath><g clip-path="url(#g3119b7740e0_0_5.0)"><path fill="#ffffff" d="m0 0l960.0 0l0 540.0l-960.0 0z" fill-rule="evenodd"/><path fill="#000000" fill-opacity="0.0" d="m32.72441 45.984253l894.55115 0l0 60.125984l-894.55115 0z" fill-rule="evenodd"/><path fill="#000000" d="m52.771286 87.61525q-2.84375 0 -4.9375 -0.875q-2.09375 -0.890625 -3.28125 -2.578125q-1.171875 -1.6875 -1.265625 -4.109375l4.3125 0q0.109375 1.28125 0.796875 2.140625q0.6875 0.84375 1.8125 1.265625q1.140625 0.421875 2.515625 0.421875q1.453125 0 2.5625 -0.4375q1.109375 -0.453125 1.71875 -1.25q0.625 -0.796875 0.625 -1.84375q0 -0.953125 -0.546875 -1.578125q-0.546875 -0.625 -1.546875 -1.046875q-0.984375 -0.4375 -2.3125 -0.765625l-2.78125 -0.71875q-3.0625 -0.796875 -4.78125 -2.375q-1.703125 -1.59375 -1.703125 -4.1875q0 -2.171875 1.15625 -3.796875q1.171875 -1.625 3.1875 -2.515625q2.015625 -0.890625 4.578125 -0.890625q2.609375 0 4.578125 0.90625q1.96875 0.890625 3.0625 2.484375q1.109375 1.59375 1.171875 3.625l-4.25 0q-0.171875 -1.578125 -1.40625 -2.4375q-1.234375 -0.859375 -3.21875 -0.859375q-1.390625 0 -2.390625 0.421875q-0.984375 0.421875 -1.515625 1.140625q-0.53125 0.71875 -0.53125 1.65625q0 1.015625 0.625 1.671875q0.640625 0.65625 1.59375 1.046875q0.96875 0.390625 1.953125 0.640625l2.28125 0.59375q1.359375 0.328125 2.640625 0.875q1.28125 0.53125 2.296875 1.359375q1.03125 0.828125 1.640625 2.015625q0.609375 1.171875 0.609375 2.765625q0 2.15625 -1.109375 3.796875q-1.09375 1.625 -3.171875 2.53125q-2.0625 0.90625 -4.96875 0.90625zm21.16156 0q-2.765625 0 -4.765625 -1.15625q-1.984375 -1.171875 -3.0625 -3.28125q-1.078125 -2.125 -1.078125 -4.984375q0 -2.84375 1.0625 -4.96875q1.0625 -2.140625 3.0 -3.34375q1.953125 -1.203125 4.578125 -1.203125q1.671875 0 3.1875 0.546875q1.515625 0.53125 2.6875 1.671875q1.171875 1.125 1.828125 2.875q0.671875 1.734375 0.671875 4.15625l0 1.34375l-14.984375 0l0 -2.90625l12.875 0l-2.0 0.859375q0 -1.546875 -0.484375 -2.71875q-0.46875 -1.171875 -1.421875 -1.828125q-0.9375 -0.65625 -2.34375 -0.65625q-1.421875 0 -2.40625 0.671875q-0.984375 0.65625 -1.5 1.765625q-0.515625 1.109375 -0.515625 2.46875l0 2.0q0 1.734375 0.59375 2.9375q0.59375 1.1875 1.65625 1.796875q1.0625 0.609375 2.484375 0.609375q0.921875 0 1.6875 -0.265625q0.765625 -0.28125 1.3125 -0.8125q0.5625 -0.53125 0.84375 -1.296875l3.921875 0.796875q-0.4375 1.484375 -1.515625 2.59375q-1.0625 1.09375 -2.65625 1.71875q-1.59375 0.609375 -3.65625 0.609375zm19.723648 0q-2.671875 0 -4.640625 -1.1875q-1.96875 -1.1875 -3.046875 -3.3125q-1.078125 -2.125 -1.078125 -4.953125q0 -2.84375 1.078125 -4.984375q1.078125 -2.140625 3.046875 -3.3125q1.96875 -1.1875 4.640625 -1.1875q1.53125 0 2.84375 0.390625q1.3125 0.390625 2.34375 1.140625q1.03125 0.75 1.71875 1.8125q0.703125 1.0625 1.0 2.40625l-3.984375 0.84375q-0.1875 -0.703125 -0.53125 -1.28125q-0.328125 -0.59375 -0.828125 -1.0q-0.484375 -0.421875 -1.125 -0.640625q-0.640625 -0.21875 -1.40625 -0.21875q-1.484375 0 -2.46875 0.796875q-0.984375 0.796875 -1.484375 2.15625q-0.484375 1.34375 -0.484375 3.0625q0 1.703125 0.484375 3.0625q0.5 1.359375 1.484375 2.15625q0.984375 0.796875 2.46875 0.796875q0.796875 0 1.4375 -0.234375q0.640625 -0.234375 1.140625 -0.65625q0.5 -0.421875 0.84375 -1.03125q0.359375 -0.609375 0.515625 -1.34375l3.984375 0.828125q-0.296875 1.375 -1.0 2.46875q-0.6875 1.078125 -1.734375 1.84375q-1.03125 0.765625 -2.359375 1.171875q-1.3125 0.40625 -2.859375 0.40625zm20.100266 -18.71875l0 3.34375l-10.421875 0l0 -3.34375l10.421875 0zm-7.8125 -4.359375l4.265625 0l0 17.53125q0 1.0 0.421875 1.46875q0.421875 0.46875 1.390625 0.46875q0.296875 0 0.78125 -0.0625q0.484375 -0.078125 0.78125 -0.140625l0.671875 3.296875q-0.703125 0.203125 -1.4375 0.296875q-0.734375 0.09375 -1.40625 0.09375q-2.65625 0 -4.0625 -1.3125q-1.40625 -1.3125 -1.40625 -3.75l0 -17.890625zm18.953262 23.078125q-2.765625 0 -4.765625 -1.15625q-1.984375 -1.171875 -3.0625 -3.28125q-1.078125 -2.125 -1.078125 -4.984375q0 -2.84375 1.0625 -4.96875q1.0625 -2.140625 3.0 -3.34375q1.953125 -1.203125 4.578125 -1.203125q1.671875 0 3.1875 0.546875q1.515625 0.53125 2.6875 1.671875q1.171875 1.125 1.828125 2.875q0.671875 1.734375 0.671875 4.15625l0 1.34375l-14.984375 0l0 -2.90625l12.875 0l-2.0 0.859375q0 -1.546875 -0.484375 -2.71875q-0.46875 -1.171875 -1.421875 -1.828125q-0.9375 -0.65625 -2.34375 -0.65625q-1.421875 0 -2.40625 0.671875q-0.984375 0.65625 -1.5 1.765625q-0.515625 1.109375 -0.515625 2.46875l0 2.0q0 1.734375 0.59375 2.9375q0.59375 1.1875 1.65625 1.796875q1.0625 0.609375 2.484375 0.609375q0.921875 0 1.6875 -0.265625q0.765625 -0.28125 1.3125 -0.8125q0.5625 -0.53125 0.84375 -1.296875l3.921875 0.796875q-0.4375 1.484375 -1.515625 2.59375q-1.0625 1.09375 -2.65625 1.71875q-1.59375 0.609375 -3.65625 0.609375zm18.051773 -0.140625q-1.890625 0 -3.3125 -0.796875q-1.40625 -0.8125 -2.1875 -2.359375q-0.78125 -1.5625 -0.78125 -3.75l0 -11.671875l4.265625 0l0 11.015625q0 1.828125 0.953125 2.890625q0.96875 1.046875 2.640625 1.046875q1.125 0 2.015625 -0.484375q0.890625 -0.5 1.390625 -1.453125q0.5 -0.953125 0.5 -2.265625l0 -10.75l4.28125 0l0 18.34375l-4.0625 0l-0.046875 -4.53125l0.328125 0q-0.765625 2.40625 -2.28125 3.59375q-1.5 1.171875 -3.703125 1.171875zm14.288361 -0.234375l0 -18.34375l4.125 0l0 3.078125l0.203125 0q0.5 -1.59375 1.71875 -2.453125q1.234375 -0.859375 2.8125 -0.859375q0.359375 0 0.796875 0.03125q0.453125 0.03125 0.75 0.078125l0 3.921875q-0.25 -0.078125 -0.84375 -0.140625q-0.59375 -0.078125 -1.171875 -0.078125q-1.171875 0 -2.125 0.515625q-0.9375 0.5 -1.46875 1.40625q-0.53125 0.890625 -0.53125 2.046875l0 10.796875l-4.265625 0zm29.034225 0.34375q-2.484375 0 -4.296875 -0.890625q-1.8125 -0.90625 -2.78125 -2.453125q-0.96875 -1.546875 -0.96875 -3.4375q0 -1.5 0.59375 -2.640625q0.609375 -1.140625 1.6875 -2.09375q1.09375 -0.953125 2.484375 -1.9375l4.328125 -2.953125q0.46875 -0.34375 0.921875 -0.765625q0.453125 -0.421875 0.734375 -0.953125q0.28125 -0.546875 0.28125 -1.203125q0 -0.953125 -0.65625 -1.59375q-0.65625 -0.640625 -1.828125 -0.640625q-0.78125 0 -1.390625 0.3125q-0.59375 0.3125 -0.921875 0.875q-0.328125 0.5625 -0.328125 1.3125q0 0.84375 0.40625 1.65625q0.421875 0.796875 1.125 1.6875q0.71875 0.875 1.640625 1.953125l11.46875 13.421875l-4.65625 0l-9.5 -10.890625q-1.109375 -1.3125 -2.09375 -2.515625q-0.984375 -1.203125 -1.59375 -2.5q-0.609375 -1.296875 -0.609375 -2.84375q0 -1.703125 0.796875 -3.046875q0.796875 -1.359375 2.234375 -2.140625q1.4375 -0.78125 3.375 -0.78125q1.90625 0 3.28125 0.765625q1.390625 0.765625 2.140625 2.03125q0.765625 1.25 0.765625 2.8125q0 1.109375 -0.40625 2.09375q-0.40625 0.984375 -1.140625 1.828125q-0.71875 0.828125 -1.703125 1.5625l-4.953125 3.609375q-1.15625 0.859375 -1.71875 1.671875q-0.546875 0.796875 -0.546875 1.8125q0 1.015625 0.484375 1.78125q0.484375 0.765625 1.34375 1.1875q0.875 0.40625 2.03125 0.40625q1.375 0 2.671875 -0.59375q1.3125 -0.59375 2.34375 -1.6875q1.046875 -1.109375 1.671875 -2.640625q0.625 -1.53125 0.625 -3.40625l3.6875 0q0 2.3125 -0.515625 4.03125q-0.515625 1.703125 -1.328125 2.875q-0.8125 1.15625 -1.671875 1.84375l-1.03125 0.78125q-1.296875 1.1875 -3.046875 1.75q-1.75 0.546875 -3.4375 0.546875zm23.488815 -0.34375l0 -18.34375l4.0 0l0.171875 4.421875l-0.3125 0q0.390625 -1.640625 1.21875 -2.671875q0.828125 -1.046875 1.9375 -1.546875q1.109375 -0.5 2.3125 -0.5q1.984375 0 3.203125 1.25q1.234375 1.25 1.734375 3.671875l-0.5 0q0.375 -1.640625 1.28125 -2.71875q0.90625 -1.09375 2.15625 -1.640625q1.265625 -0.5625 2.6875 -0.5625q1.65625 0 2.96875 0.734375q1.3125 0.71875 2.078125 2.109375q0.78125 1.375 0.78125 3.421875l0 12.375l-4.265625 0l0 -11.71875q0 -1.703125 -0.9375 -2.484375q-0.9375 -0.796875 -2.25 -0.796875q-1.015625 0 -1.765625 0.453125q-0.75 0.4375 -1.15625 1.21875q-0.40625 0.78125 -0.40625 1.8125l0 11.515625l-4.15625 0l0 -11.90625q0 -1.390625 -0.875 -2.234375q-0.875 -0.859375 -2.234375 -0.859375q-0.9375 0 -1.71875 0.4375q-0.765625 0.421875 -1.234375 1.265625q-0.453125 0.828125 -0.453125 2.0625l0 11.234375l-4.265625 0zm38.341248 0.375q-2.765625 0 -4.765625 -1.15625q-1.984375 -1.171875 -3.0625 -3.28125q-1.078125 -2.125 -1.078125 -4.984375q0 -2.84375 1.0625 -4.96875q1.0625 -2.140625 3.0 -3.34375q1.953125 -1.203125 4.578125 -1.203125q1.671875 0 3.1875 0.546875q1.515625 0.53125 2.6875 1.671875q1.171875 1.125 1.828125 2.875q0.67185974 1.734375 0.67185974 4.15625l0 1.34375l-14.98436 0l0 -2.90625l12.875 0l-2.0 0.859375q0 -1.546875 -0.484375 -2.71875q-0.46875 -1.171875 -1.421875 -1.828125q-0.9375 -0.65625 -2.34375 -0.65625q-1.421875 0 -2.40625 0.671875q-0.984375 0.65625 -1.5 1.765625q-0.515625 1.109375 -0.515625 2.46875l0 2.0q0 1.734375 0.59375 2.9375q0.59375 1.1875 1.65625 1.796875q1.0625 0.609375 2.484375 0.609375q0.921875 0 1.6875 -0.265625q0.765625 -0.28125 1.3125 -0.8125q0.5625 -0.53125 0.84375 -1.296875l3.921875 0.796875q-0.4375 1.484375 -1.515625 2.59375q-1.0625 1.09375 -2.65625 1.71875q-1.59375 0.609375 -3.65625 0.609375zm16.036148 -11.125l0 10.75l-4.265625 0l0 -18.34375l4.03125 0l0.0625 4.53125l-0.34375 0q0.78125 -2.375 2.265625 -3.5625q1.5 -1.1875 3.75 -1.1875q1.875 0 3.28125 0.8125q1.421875 0.796875 2.203125 2.34375q0.78125 1.53125 0.78125 3.75l0 11.65625l-4.265625 0l0 -11.0q0 -1.84375 -0.953125 -2.890625q-0.953125 -1.046875 -2.625 -1.046875q-1.140625 0 -2.03125 0.5q-0.875 0.484375 -1.390625 1.421875q-0.5 0.9375 -0.5 2.265625zm24.771942 -7.59375l0 3.34375l-10.421875 0l0 -3.34375l10.421875 0zm-7.8125 -4.359375l4.265625 0l0 17.53125q0 1.0 0.421875 1.46875q0.421875 0.46875 1.390625 0.46875q0.296875 0 0.78125 -0.0625q0.484375 -0.078125 0.78125 -0.140625l0.671875 3.296875q-0.703125 0.203125 -1.4375 0.296875q-0.734375 0.09375 -1.40625 0.09375q-2.65625 0 -4.0625 -1.3125q-1.40625 -1.3125 -1.40625 -3.75l0 -17.890625zm18.812653 23.078125q-2.671875 0 -4.640625 -1.1875q-1.96875 -1.1875 -3.046875 -3.3125q-1.078125 -2.125 -1.078125 -4.953125q0 -2.84375 1.078125 -4.984375q1.078125 -2.140625 3.046875 -3.3125q1.96875 -1.1875 4.640625 -1.1875q2.6875 0 4.65625 1.1875q1.96875 1.171875 3.046875 3.3125q1.078125 2.140625 1.078125 4.984375q0 2.828125 -1.078125 4.953125q-1.078125 2.125 -3.046875 3.3125q-1.96875 1.1875 -4.65625 1.1875zm0 -3.453125q1.5 0 2.484375 -0.796875q1.0 -0.8125 1.484375 -2.171875q0.484375 -1.375 0.484375 -3.046875q0 -1.6875 -0.484375 -3.046875q-0.484375 -1.359375 -1.484375 -2.15625q-0.984375 -0.8125 -2.484375 -0.8125q-1.5 0 -2.46875 0.8125q-0.96875 0.796875 -1.453125 2.15625q-0.484375 1.34375 -0.484375 3.046875q0 1.671875 0.484375 3.046875q0.484375 1.359375 1.453125 2.171875q0.96875 0.796875 2.46875 0.796875zm12.501648 3.078125l0 -18.34375l4.125 0l0 3.078125l0.203125 0q0.5 -1.59375 1.71875 -2.453125q1.234375 -0.859375 2.8125 -0.859375q0.359375 0 0.796875 0.03125q0.453125 0.03125 0.75 0.078125l0 3.921875q-0.25 -0.078125 -0.84375 -0.140625q-0.59375 -0.078125 -1.171875 -0.078125q-1.171875 0 -2.125 0.515625q-0.9375 0.5 -1.46875 1.40625q-0.53125 0.890625 -0.53125 2.046875l0 10.796875l-4.265625 0z" fill-rule="nonzero"/><path fill="#000000" fill-opacity="0.0" d="m889.4969 489.57657l57.606323 0l0 41.322845l-57.606323 0z" fill-rule="evenodd"/><path fill="#595959" d="m933.98926 515.16296q-0.640625 0 -1.28125 -0.21875q-0.625 -0.234375 -1.140625 -0.765625q-0.515625 -0.53125 -0.828125 -1.421875q-0.296875 -0.9062195 -0.296875 -2.2343445q0 -1.265625 0.25 -2.25q0.265625 -0.984375 0.734375 -1.671875q0.484375 -0.6875 1.15625 -1.03125q0.6875 -0.359375 1.53125 -0.359375q0.859375 0 1.53125 0.34375q0.6875 0.34375 1.109375 0.9375q0.421875 0.59375 0.53125 1.375l-1.453125 0q-0.15625 -0.59375 -0.59375 -0.96875q-0.421875 -0.390625 -1.125 -0.390625q-0.703125 0 -1.21875 0.421875q-0.5 0.421875 -0.765625 1.203125q-0.25 0.765625 -0.25 1.875l0.0625 0q0.25 -0.421875 0.609375 -0.71875q0.375 -0.296875 0.828125 -0.453125q0.453125 -0.15625 0.96875 -0.15625q0.84375 0 1.53125 0.421875q0.6875 0.40625 1.09375 1.125q0.40625 0.71875 0.40625 1.640625q0 0.9374695 -0.4375 1.6874695q-0.421875 0.75 -1.1875 1.1875q-0.75 0.421875 -1.765625 0.421875zm0 -1.25q0.546875 0 0.984375 -0.265625q0.4375 -0.28125 0.6875 -0.734375q0.265625 -0.453125 0.265625 -1.0312195q0 -0.546875 -0.25 -1.0q-0.234375 -0.453125 -0.671875 -0.71875q-0.4375 -0.265625 -0.984375 -0.265625q-0.421875 0 -0.78125 0.15625q-0.34375 0.15625 -0.609375 0.4375q-0.265625 0.28125 -0.421875 0.640625q-0.15625 0.359375 -0.15625 0.765625q0 0.5468445 0.25 1.0155945q0.25 0.453125 0.6875 0.734375q0.453125 0.265625 1.0 0.265625z" fill-rule="nonzero"/><path fill="#000000" fill-opacity="0.0" d="m32.72441 120.99475l894.55115 0l0 397.07086l-894.55115 0z" fill-rule="evenodd"/><path fill="#000000" d="m49.44316 153.03474l-4.515625 0l0 -3.078125l4.34375 0q1.6875 0 2.828125 -0.59375q1.140625 -0.609375 1.71875 -1.859375q0.578125 -1.25 0.578125 -3.21875q0 -1.9375 -0.578125 -3.1875q-0.578125 -1.25 -1.71875 -1.84375q-1.125 -0.59375 -2.796875 -0.59375l-4.453125 0l0 -3.09375l4.65625 0q2.625 0 4.515625 1.0625q1.890625 1.046875 2.90625 3.0q1.03125 1.9375 1.03125 4.65625q0 2.734375 -1.03125 4.703125q-1.015625 1.953125 -2.921875 3.0q-1.90625 1.046875 -4.5625 1.046875zm-2.5625 -17.46875l0 17.46875l-3.578125 0l0 -17.46875l3.578125 0zm19.597656 17.734375q-2.0 0 -3.453125 -0.828125q-1.453125 -0.828125 -2.234375 -2.328125q-0.78125 -1.515625 -0.78125 -3.59375q0 -2.03125 0.765625 -3.546875q0.78125 -1.53125 2.1875 -2.375q1.421875 -0.859375 3.34375 -0.859375q1.28125 0 2.390625 0.40625q1.125 0.40625 1.96875 1.234375q0.84375 0.828125 1.3125 2.078125q0.46875 1.234375 0.46875 2.921875l0 0.984375l-11.0 0l0 -2.203125l9.28125 0l-1.640625 0.59375q0 -1.03125 -0.3125 -1.78125q-0.3125 -0.75 -0.921875 -1.171875q-0.609375 -0.421875 -1.53125 -0.421875q-0.90625 0 -1.546875 0.421875q-0.625 0.421875 -0.953125 1.15625q-0.328125 0.71875 -0.328125 1.640625l0 1.5625q0 1.125 0.375 1.90625q0.375 0.765625 1.0625 1.15625q0.6875 0.390625 1.609375 0.390625q0.609375 0 1.109375 -0.171875q0.515625 -0.1875 0.875 -0.53125q0.359375 -0.34375 0.546875 -0.84375l3.1875 0.59375q-0.328125 1.078125 -1.109375 1.890625q-0.78125 0.8125 -1.96875 1.265625q-1.171875 0.453125 -2.703125 0.453125zm-1.515625 -15.03125l1.625 -3.640625l3.265625 0l-2.4375 3.640625l-2.453125 0zm13.144531 14.765625l-4.828125 -13.109375l3.75 0l2.203125 6.796875q0.390625 1.28125 0.6875 2.59375q0.296875 1.296875 0.625 2.6875l-0.75 0q0.296875 -1.390625 0.59375 -2.6875q0.296875 -1.3125 0.6875 -2.59375l2.1875 -6.796875l3.6875 0l-4.84375 13.109375l-4.0 0zm16.191406 0.265625q-2.0 0 -3.453125 -0.828125q-1.453125 -0.828125 -2.234375 -2.328125q-0.78125 -1.515625 -0.78125 -3.59375q0 -2.03125 0.765625 -3.546875q0.78125 -1.53125 2.1875 -2.375q1.421875 -0.859375 3.34375 -0.859375q1.28125 0 2.390625 0.40625q1.125 0.40625 1.96875 1.234375q0.84375 0.828125 1.3125 2.078125q0.46875 1.234375 0.46875 2.921875l0 0.984375l-11.0 0l0 -2.203125l9.28125 0l-1.640625 0.59375q0 -1.03125 -0.3125 -1.78125q-0.3125 -0.75 -0.921875 -1.171875q-0.609375 -0.421875 -1.53125 -0.421875q-0.90625 0 -1.546875 0.421875q-0.625 0.421875 -0.953125 1.15625q-0.328125 0.71875 -0.328125 1.640625l0 1.5625q0 1.125 0.375 1.90625q0.375 0.765625 1.0625 1.15625q0.6875 0.390625 1.609375 0.390625q0.609375 0 1.109375 -0.171875q0.515625 -0.1875 0.875 -0.53125q0.359375 -0.34375 0.546875 -0.84375l3.1875 0.59375q-0.328125 1.078125 -1.109375 1.890625q-0.78125 0.8125 -1.96875 1.265625q-1.171875 0.453125 -2.703125 0.453125zm11.890625 -17.734375l0 17.46875l-3.515625 0l0 -17.46875l3.515625 0zm8.847656 17.734375q-1.96875 0 -3.40625 -0.84375q-1.4375 -0.859375 -2.21875 -2.375q-0.78125 -1.53125 -0.78125 -3.546875q0 -2.03125 0.78125 -3.546875q0.78125 -1.515625 2.21875 -2.359375q1.4375 -0.859375 3.40625 -0.859375q1.984375 0 3.421875 0.859375q1.4375 0.84375 2.203125 2.359375q0.78125 1.515625 0.78125 3.546875q0 2.015625 -0.78125 3.546875q-0.765625 1.515625 -2.203125 2.375q-1.4375 0.84375 -3.421875 0.84375zm0 -2.78125q0.9375 0 1.5625 -0.515625q0.640625 -0.515625 0.953125 -1.421875q0.328125 -0.921875 0.328125 -2.046875q0 -1.171875 -0.328125 -2.0625q-0.3125 -0.90625 -0.953125 -1.421875q-0.625 -0.515625 -1.5625 -0.515625q-0.9375 0 -1.5625 0.515625q-0.625 0.515625 -0.953125 1.421875q-0.3125 0.890625 -0.3125 2.0625q0 1.125 0.3125 2.046875q0.328125 0.90625 0.953125 1.421875q0.625 0.515625 1.5625 0.515625zm8.859375 7.421875l0 -18.015625l3.453125 0l0 2.203125l0.171875 0q0.25 -0.515625 0.6875 -1.0625q0.453125 -0.546875 1.1875 -0.921875q0.75 -0.375 1.859375 -0.375q1.453125 0 2.65625 0.75q1.21875 0.75 1.9375 2.25q0.71875 1.5 0.71875 3.734375q0 2.1875 -0.703125 3.6875q-0.703125 1.5 -1.921875 2.28125q-1.203125 0.78125 -2.703125 0.78125q-1.078125 0 -1.8125 -0.359375q-0.734375 -0.359375 -1.203125 -0.890625q-0.453125 -0.546875 -0.703125 -1.0625l-0.109375 0l0 7.0l-3.515625 0zm6.265625 -7.515625q0.90625 0 1.53125 -0.5q0.625 -0.5 0.953125 -1.390625q0.328125 -0.890625 0.328125 -2.046875q0 -1.140625 -0.328125 -2.015625q-0.328125 -0.890625 -0.953125 -1.390625q-0.609375 -0.5 -1.53125 -0.5q-0.90625 0 -1.546875 0.484375q-0.625 0.484375 -0.953125 1.359375q-0.328125 0.875 -0.328125 2.0625q0 1.1875 0.328125 2.078125q0.34375 0.875 0.96875 1.375q0.640625 0.484375 1.53125 0.484375zm8.863281 7.515625l0 -18.015625l3.453125 0l0 2.203125l0.171875 0q0.25 -0.515625 0.6875 -1.0625q0.453125 -0.546875 1.1875 -0.921875q0.75 -0.375 1.859375 -0.375q1.453125 0 2.65625 0.75q1.21875 0.75 1.9375 2.25q0.71875 1.5 0.71875 3.734375q0 2.1875 -0.703125 3.6875q-0.703125 1.5 -1.921875 2.28125q-1.203125 0.78125 -2.703125 0.78125q-1.078125 0 -1.8125 -0.359375q-0.734375 -0.359375 -1.203125 -0.890625q-0.453125 -0.546875 -0.703125 -1.0625l-0.109375 0l0 7.0l-3.515625 0zm6.265625 -7.515625q0.90625 0 1.53125 -0.5q0.625 -0.5 0.953125 -1.390625q0.328125 -0.890625 0.328125 -2.046875q0 -1.140625 -0.328125 -2.015625q-0.328125 -0.890625 -0.953125 -1.390625q-0.609375 -0.5 -1.53125 -0.5q-0.90625 0 -1.546875 0.484375q-0.625 0.484375 -0.953125 1.359375q-0.328125 0.875 -0.328125 2.0625q0 1.1875 0.328125 2.078125q0.34375 0.875 0.96875 1.375q0.640625 0.484375 1.53125 0.484375zm14.785156 2.875q-2.0 0 -3.453125 -0.828125q-1.453125 -0.828125 -2.234375 -2.328125q-0.78125 -1.515625 -0.78125 -3.59375q0 -2.03125 0.765625 -3.546875q0.78125 -1.53125 2.1875 -2.375q1.421875 -0.859375 3.34375 -0.859375q1.28125 0 2.390625 0.40625q1.125 0.40625 1.96875 1.234375q0.84375 0.828125 1.3125 2.078125q0.46875 1.234375 0.46875 2.921875l0 0.984375l-11.0 0l0 -2.203125l9.28125 0l-1.640625 0.59375q0 -1.03125 -0.3125 -1.78125q-0.3125 -0.75 -0.921875 -1.171875q-0.609375 -0.421875 -1.53125 -0.421875q-0.90625 0 -1.546875 0.421875q-0.625 0.421875 -0.953125 1.15625q-0.328125 0.71875 -0.328125 1.640625l0 1.5625q0 1.125 0.375 1.90625q0.375 0.765625 1.0625 1.15625q0.6875 0.390625 1.609375 0.390625q0.609375 0 1.109375 -0.171875q0.515625 -0.1875 0.875 -0.53125q0.359375 -0.34375 0.546875 -0.84375l3.1875 0.59375q-0.328125 1.078125 -1.109375 1.890625q-0.78125 0.8125 -1.96875 1.265625q-1.171875 0.453125 -2.703125 0.453125zm12.890625 -0.09375q-1.359375 0 -2.390625 -0.59375q-1.015625 -0.59375 -1.578125 -1.703125q-0.546875 -1.109375 -0.546875 -2.640625l0 -8.34375l3.515625 0l0 7.734375q0 1.21875 0.625 1.90625q0.640625 0.6875 1.75 0.6875q0.75 0 1.3125 -0.3125q0.578125 -0.328125 0.890625 -0.9375q0.328125 -0.625 0.328125 -1.484375l0 -7.59375l3.515625 0l0 13.109375l-3.3125 0l-0.046875 -3.265625l0.203125 0q-0.515625 1.640625 -1.578125 2.546875q-1.0625 0.890625 -2.6875 0.890625zm10.425781 -0.171875l0 -13.109375l3.40625 0l0 2.296875l0.140625 0q0.359375 -1.21875 1.203125 -1.84375q0.859375 -0.625 1.953125 -0.625q0.265625 0 0.578125 0.03125q0.3125 0.03125 0.5625 0.09375l0 3.140625q-0.234375 -0.09375 -0.6875 -0.140625q-0.4375 -0.046875 -0.84375 -0.046875q-0.796875 0 -1.4375 0.359375q-0.640625 0.34375 -1.0 0.953125q-0.359375 0.609375 -0.359375 1.4375l0 7.453125l-3.515625 0zm20.253906 0.21875q-1.515625 0 -2.734375 -0.78125q-1.203125 -0.78125 -1.90625 -2.28125q-0.703125 -1.5 -0.703125 -3.6875q0 -2.234375 0.71875 -3.734375q0.734375 -1.5 1.9375 -2.25q1.203125 -0.75 2.65625 -0.75q1.125 0 1.859375 0.375q0.734375 0.375 1.1875 0.921875q0.46875 0.546875 0.6875 1.0625l0.109375 0l0 -6.5625l3.515625 0l0 17.46875l-3.453125 0l0 -2.09375l-0.171875 0q-0.234375 0.515625 -0.703125 1.0625q-0.453125 0.53125 -1.203125 0.890625q-0.734375 0.359375 -1.796875 0.359375zm1.078125 -2.828125q0.890625 0 1.515625 -0.484375q0.640625 -0.5 0.96875 -1.375q0.328125 -0.890625 0.328125 -2.078125q0 -1.1875 -0.328125 -2.0625q-0.3125 -0.875 -0.953125 -1.359375q-0.625 -0.484375 -1.53125 -0.484375q-0.921875 0 -1.5625 0.5q-0.625 0.5 -0.9375 1.390625q-0.3125 0.875 -0.3125 2.015625q0 1.15625 0.3125 2.046875q0.328125 0.890625 0.953125 1.390625q0.625 0.5 1.546875 0.5zm15.175781 2.875q-2.0 0 -3.453125 -0.828125q-1.453125 -0.828125 -2.234375 -2.328125q-0.78125 -1.515625 -0.78125 -3.59375q0 -2.03125 0.765625 -3.546875q0.78125 -1.53125 2.1875 -2.375q1.421875 -0.859375 3.34375 -0.859375q1.28125 0 2.390625 0.40625q1.125 0.40625 1.96875 1.234375q0.84375 0.828125 1.3125 2.078125q0.46875 1.234375 0.46875 2.921875l0 0.984375l-11.0 0l0 -2.203125l9.28125 0l-1.640625 0.59375q0 -1.03125 -0.3125 -1.78125q-0.3125 -0.75 -0.921875 -1.171875q-0.609375 -0.421875 -1.53125 -0.421875q-0.90625 0 -1.546875 0.421875q-0.625 0.421875 -0.953125 1.15625q-0.328125 0.71875 -0.328125 1.640625l0 1.5625q0 1.125 0.375 1.90625q0.375 0.765625 1.0625 1.15625q0.6875 0.390625 1.609375 0.390625q0.609375 0 1.109375 -0.171875q0.515625 -0.1875 0.875 -0.53125q0.359375 -0.34375 0.546875 -0.84375l3.1875 0.59375q-0.328125 1.078125 -1.109375 1.890625q-0.78125 0.8125 -1.96875 1.265625q-1.171875 0.453125 -2.703125 0.453125zm14.042969 -13.375l3.53125 0l0 13.78125q0 1.5 -0.59375 2.421875q-0.578125 0.9375 -1.671875 1.375q-1.09375 0.4375 -2.625 0.4375l-0.71875 0l0 -2.765625l0.46875 0q0.90625 0 1.25 -0.390625q0.359375 -0.375 0.359375 -1.125l0 -13.734375zm1.78125 -1.703125q-0.796875 0 -1.359375 -0.53125q-0.5625 -0.53125 -0.5625 -1.28125q0 -0.75 0.5625 -1.265625q0.5625 -0.53125 1.359375 -0.53125q0.796875 0 1.359375 0.53125q0.5625 0.515625 0.5625 1.265625q0 0.75 -0.5625 1.28125q-0.5625 0.53125 -1.359375 0.53125zm10.660156 15.078125q-2.0 0 -3.453125 -0.828125q-1.453125 -0.828125 -2.234375 -2.328125q-0.78125 -1.515625 -0.78125 -3.59375q0 -2.03125 0.765625 -3.546875q0.78125 -1.53125 2.1875 -2.375q1.421875 -0.859375 3.34375 -0.859375q1.28125 0 2.390625 0.40625q1.125 0.40625 1.96875 1.234375q0.84375 0.828125 1.3125 2.078125q0.46875 1.234375 0.46875 2.921875l0 0.984375l-11.0 0l0 -2.203125l9.28125 0l-1.640625 0.59375q0 -1.03125 -0.3125 -1.78125q-0.3125 -0.75 -0.921875 -1.171875q-0.609375 -0.421875 -1.53125 -0.421875q-0.90625 0 -1.546875 0.421875q-0.625 0.421875 -0.953125 1.15625q-0.328125 0.71875 -0.328125 1.640625l0 1.5625q0 1.125 0.375 1.90625q0.375 0.765625 1.0625 1.15625q0.6875 0.390625 1.609375 0.390625q0.609375 0 1.109375 -0.171875q0.515625 -0.1875 0.875 -0.53125q0.359375 -0.34375 0.546875 -0.84375l3.1875 0.59375q-0.328125 1.078125 -1.109375 1.890625q-0.78125 0.8125 -1.96875 1.265625q-1.171875 0.453125 -2.703125 0.453125zm12.89061 -0.09375q-1.359375 0 -2.390625 -0.59375q-1.0156097 -0.59375 -1.5781097 -1.703125q-0.546875 -1.109375 -0.546875 -2.640625l0 -8.34375l3.5156097 0l0 7.734375q0 1.21875 0.625 1.90625q0.640625 0.6875 1.75 0.6875q0.75 0 1.3125 -0.3125q0.578125 -0.328125 0.890625 -0.9375q0.328125 -0.625 0.328125 -1.484375l0 -7.59375l3.515625 0l0 13.109375l-3.3125 0l-0.046875 -3.265625l0.203125 0q-0.515625 1.640625 -1.578125 2.546875q-1.0625 0.890625 -2.6875 0.890625zm9.425781 -0.171875l5.0625 -8.09375l0 2.734375l-4.8125 -7.75l3.796875 0l1.1875 2.078125q0.5625 1.015625 1.015625 2.0q0.453125 0.984375 0.921875 1.921875l-1.34375 0q0.484375 -0.921875 0.921875 -1.90625q0.453125 -1.0 1.03125 -2.015625l1.234375 -2.078125l3.734375 0l-4.90625 7.78125l0 -2.703125l5.09375 8.03125l-3.78125 0l-1.453125 -2.46875q-0.578125 -1.0 -1.046875 -2.0q-0.453125 -1.0 -0.9375 -1.90625l1.359375 0q-0.46875 0.90625 -0.90625 1.90625q-0.4375 1.0 -1.0 2.0l-1.453125 2.46875l-3.71875 0z" fill-rule="nonzero"/><path fill="#595959" d="m49.521286 186.45163q-1.953125 0 -3.40625 -0.625q-1.4375 -0.625 -2.25 -1.78125q-0.8125 -1.15625 -0.890625 -2.75l2.671875 0q0.09375 0.953125 0.625 1.578125q0.53125 0.625 1.375 0.9375q0.859375 0.296875 1.859375 0.296875q1.109375 0 1.96875 -0.34375q0.875 -0.359375 1.375 -0.984375q0.5 -0.640625 0.5 -1.484375q0 -0.765625 -0.4375 -1.25q-0.4375 -0.484375 -1.1875 -0.8125q-0.734375 -0.328125 -1.6875 -0.5625l-2.046875 -0.5625q-2.140625 -0.578125 -3.34375 -1.703125q-1.203125 -1.125 -1.203125 -2.921875q0 -1.515625 0.8125 -2.640625q0.828125 -1.125 2.21875 -1.75q1.40625 -0.640625 3.15625 -0.640625q1.796875 0 3.15625 0.640625q1.375 0.625 2.15625 1.71875q0.78125 1.078125 0.8125 2.46875l-2.609375 0q-0.125 -1.1875 -1.109375 -1.84375q-0.96875 -0.65625 -2.453125 -0.65625q-1.0625 0 -1.84375 0.328125q-0.78125 0.328125 -1.203125 0.90625q-0.421875 0.578125 -0.421875 1.3125q0 0.84375 0.5 1.359375q0.515625 0.5 1.25 0.796875q0.734375 0.296875 1.390625 0.46875l1.703125 0.453125q0.828125 0.203125 1.71875 0.5625q0.890625 0.359375 1.640625 0.9375q0.75 0.5625 1.203125 1.40625q0.46875 0.828125 0.46875 2.015625q0 1.46875 -0.765625 2.640625q-0.765625 1.15625 -2.21875 1.828125q-1.4375 0.65625 -3.484375 0.65625zm15.097656 -0.03125q-1.9375 0 -3.34375 -0.828125q-1.40625 -0.828125 -2.171875 -2.34375q-0.75 -1.515625 -0.75 -3.546875q0 -2.015625 0.734375 -3.546875q0.75 -1.546875 2.109375 -2.40625q1.359375 -0.859375 3.1875 -0.859375q1.125 0 2.171875 0.375q1.046875 0.359375 1.875 1.15625q0.828125 0.78125 1.3125 2.03125q0.5 1.234375 0.5 3.015625l0 0.921875l-10.453125 0l0 -1.921875l9.125 0l-1.203125 0.625q0 -1.203125 -0.375 -2.125q-0.375 -0.921875 -1.109375 -1.4375q-0.734375 -0.515625 -1.84375 -0.515625q-1.078125 0 -1.859375 0.53125q-0.765625 0.53125 -1.171875 1.390625q-0.40625 0.859375 -0.40625 1.875l0 1.3125q0 1.359375 0.453125 2.296875q0.46875 0.921875 1.296875 1.40625q0.84375 0.46875 1.9375 0.46875q0.734375 0 1.3125 -0.203125q0.59375 -0.21875 1.015625 -0.625q0.421875 -0.421875 0.65625 -1.03125l2.421875 0.578125q-0.3125 1.0 -1.0625 1.78125q-0.75 0.765625 -1.859375 1.203125q-1.09375 0.421875 -2.5 0.421875zm13.957031 0q-1.859375 0 -3.234375 -0.84375q-1.359375 -0.84375 -2.125 -2.359375q-0.765625 -1.53125 -0.765625 -3.546875q0 -2.03125 0.765625 -3.5625q0.765625 -1.53125 2.125 -2.375q1.375 -0.84375 3.234375 -0.84375q1.015625 0 1.90625 0.265625q0.890625 0.265625 1.609375 0.765625q0.71875 0.484375 1.21875 1.21875q0.5 0.71875 0.75 1.609375l-2.453125 0.59375q-0.125 -0.5 -0.40625 -0.921875q-0.265625 -0.421875 -0.65625 -0.71875q-0.375 -0.3125 -0.875 -0.46875q-0.484375 -0.171875 -1.09375 -0.171875q-1.171875 0 -1.953125 0.640625q-0.78125 0.625 -1.171875 1.671875q-0.375 1.03125 -0.375 2.296875q0 1.25 0.375 2.296875q0.390625 1.03125 1.171875 1.65625q0.78125 0.625 1.953125 0.625q0.609375 0 1.109375 -0.171875q0.515625 -0.171875 0.90625 -0.484375q0.40625 -0.3125 0.671875 -0.75q0.265625 -0.4375 0.390625 -0.96875l2.4375 0.59375q-0.234375 0.921875 -0.75 1.65625q-0.5 0.734375 -1.21875 1.25q-0.71875 0.515625 -1.625 0.78125q-0.890625 0.265625 -1.921875 0.265625zm13.9453125 -13.375l0 2.109375l-7.109375 0l0 -2.109375l7.109375 0zm-5.203125 -3.109375l2.578125 0l0 12.671875q0 0.796875 0.328125 1.171875q0.34375 0.359375 1.109375 0.359375q0.203125 0 0.53125 -0.046875q0.328125 -0.046875 0.5625 -0.09375l0.453125 2.0625q-0.40625 0.140625 -0.875 0.203125q-0.46875 0.0625 -0.9375 0.0625q-1.78125 0 -2.765625 -0.921875q-0.984375 -0.921875 -0.984375 -2.578125l0 -12.890625zm13.183594 16.484375q-1.9375 0 -3.34375 -0.828125q-1.40625 -0.828125 -2.171875 -2.34375q-0.75 -1.515625 -0.75 -3.546875q0 -2.015625 0.734375 -3.546875q0.75 -1.546875 2.109375 -2.40625q1.359375 -0.859375 3.1875 -0.859375q1.125 0 2.171875 0.375q1.046875 0.359375 1.875 1.15625q0.828125 0.78125 1.3125 2.03125q0.5 1.234375 0.5 3.015625l0 0.921875l-10.453125 0l0 -1.921875l9.125 0l-1.203125 0.625q0 -1.203125 -0.375 -2.125q-0.375 -0.921875 -1.109375 -1.4375q-0.734375 -0.515625 -1.84375 -0.515625q-1.078125 0 -1.859375 0.53125q-0.765625 0.53125 -1.171875 1.390625q-0.40625 0.859375 -0.40625 1.875l0 1.3125q0 1.359375 0.453125 2.296875q0.46875 0.921875 1.296875 1.40625q0.84375 0.46875 1.9375 0.46875q0.734375 0 1.3125 -0.203125q0.59375 -0.21875 1.015625 -0.625q0.421875 -0.421875 0.65625 -1.03125l2.421875 0.578125q-0.3125 1.0 -1.0625 1.78125q-0.75 0.765625 -1.859375 1.203125q-1.09375 0.421875 -2.5 0.421875zm12.910156 -0.09375q-1.34375 0 -2.359375 -0.5625q-1.0 -0.578125 -1.5625 -1.671875q-0.546875 -1.109375 -0.546875 -2.71875l0 -8.328125l2.578125 0l0 8.015625q0 1.40625 0.734375 2.203125q0.75 0.796875 2.03125 0.796875q0.875 0 1.5625 -0.375q0.6875 -0.375 1.078125 -1.109375q0.40625 -0.734375 0.40625 -1.765625l0 -7.765625l2.578125 0l0 13.109375l-2.453125 0l-0.015625 -3.21875l0.25 0q-0.578125 1.78125 -1.6875 2.59375q-1.09375 0.796875 -2.59375 0.796875zm9.96875 -0.171875l0 -13.109375l2.5 0l0 2.109375l0.140625 0q0.359375 -1.078125 1.265625 -1.6875q0.90625 -0.609375 2.046875 -0.609375q0.25 0 0.5625 0.03125q0.3125 0.015625 0.53125 0.046875l0 2.453125q-0.140625 -0.046875 -0.546875 -0.09375q-0.390625 -0.046875 -0.796875 -0.046875q-0.890625 0 -1.609375 0.375q-0.71875 0.375 -1.125 1.046875q-0.390625 0.65625 -0.390625 1.53125l0 7.953125l-2.578125 0zm21.335938 0.265625q-1.9375 0 -3.34375 -0.828125q-1.40625 -0.828125 -2.171875 -2.34375q-0.75 -1.515625 -0.75 -3.546875q0 -2.015625 0.734375 -3.546875q0.75 -1.546875 2.109375 -2.40625q1.359375 -0.859375 3.1875 -0.859375q1.125 0 2.171875 0.375q1.046875 0.359375 1.875 1.15625q0.828125 0.78125 1.3125 2.03125q0.5 1.234375 0.5 3.015625l0 0.921875l-10.453125 0l0 -1.921875l9.125 0l-1.203125 0.625q0 -1.203125 -0.375 -2.125q-0.375 -0.921875 -1.109375 -1.4375q-0.734375 -0.515625 -1.84375 -0.515625q-1.078125 0 -1.859375 0.53125q-0.765625 0.53125 -1.171875 1.390625q-0.40625 0.859375 -0.40625 1.875l0 1.3125q0 1.359375 0.453125 2.296875q0.46875 0.921875 1.296875 1.40625q0.84375 0.46875 1.9375 0.46875q0.734375 0 1.3125 -0.203125q0.59375 -0.21875 1.015625 -0.625q0.421875 -0.421875 0.65625 -1.03125l2.421875 0.578125q-0.3125 1.0 -1.0625 1.78125q-0.75 0.765625 -1.859375 1.203125q-1.09375 0.421875 -2.5 0.421875zm11.019531 -8.03125l0 7.765625l-2.578125 0l0 -13.109375l2.46875 0l0.015625 3.21875l-0.265625 0q0.578125 -1.765625 1.65625 -2.5625q1.09375 -0.8125 2.640625 -0.8125q1.34375 0 2.328125 0.5625q1.0 0.5625 1.5625 1.65625q0.5625 1.09375 0.5625 2.71875l0 8.328125l-2.578125 0l0 -8.0q0 -1.421875 -0.734375 -2.21875q-0.734375 -0.796875 -2.03125 -0.796875q-0.859375 0 -1.5625 0.390625q-0.6875 0.375 -1.09375 1.109375q-0.390625 0.71875 -0.390625 1.75zm22.960938 8.03125q-1.421875 0 -2.53125 -0.40625q-1.109375 -0.40625 -1.8125 -1.203125q-0.703125 -0.8125 -0.9375 -1.96875l2.421875 -0.515625q0.265625 1.03125 1.0 1.53125q0.75 0.484375 1.875 0.484375q1.25 0 1.984375 -0.515625q0.734375 -0.53125 0.734375 -1.265625q0 -0.625 -0.453125 -1.03125q-0.4375 -0.421875 -1.375 -0.609375l-2.203125 -0.515625q-1.828125 -0.40625 -2.71875 -1.296875q-0.890625 -0.90625 -0.890625 -2.3125q0 -1.171875 0.65625 -2.046875q0.65625 -0.890625 1.78125 -1.375q1.140625 -0.484375 2.625 -0.484375q1.421875 0 2.421875 0.40625q1.015625 0.40625 1.640625 1.15625q0.625 0.734375 0.90625 1.703125l-2.3125 0.5q-0.25 -0.6875 -0.859375 -1.203125q-0.609375 -0.53125 -1.765625 -0.53125q-1.0625 0 -1.78125 0.484375q-0.71875 0.484375 -0.71875 1.21875q0 0.65625 0.46875 1.0625q0.484375 0.40625 1.5625 0.65625l2.109375 0.46875q1.8125 0.40625 2.6875 1.28125q0.890625 0.875 0.890625 2.25q0 1.203125 -0.6875 2.125q-0.6875 0.90625 -1.90625 1.4375q-1.203125 0.515625 -2.8125 0.515625zm13.832031 -13.375l0 2.109375l-7.109375 0l0 -2.109375l7.109375 0zm-5.203125 -3.109375l2.578125 0l0 12.671875q0 0.796875 0.328125 1.171875q0.34375 0.359375 1.109375 0.359375q0.203125 0 0.53125 -0.046875q0.328125 -0.046875 0.5625 -0.09375l0.453125 2.0625q-0.40625 0.140625 -0.875 0.203125q-0.46875 0.0625 -0.9375 0.0625q-1.78125 0 -2.765625 -0.921875q-0.984375 -0.921875 -0.984375 -2.578125l0 -12.890625zm11.550781 16.515625q-1.25 0 -2.265625 -0.46875q-1.0 -0.46875 -1.59375 -1.359375q-0.578125 -0.890625 -0.578125 -2.171875q0 -1.109375 0.421875 -1.828125q0.4375 -0.71875 1.171875 -1.140625q0.734375 -0.421875 1.625 -0.625q0.90625 -0.21875 1.828125 -0.328125q1.15625 -0.140625 1.875 -0.21875q0.734375 -0.09375 1.078125 -0.296875q0.34375 -0.203125 0.34375 -0.65625l0 -0.078125q0 -0.734375 -0.28125 -1.234375q-0.28125 -0.515625 -0.84375 -0.78125q-0.546875 -0.28125 -1.375 -0.28125q-0.859375 0 -1.484375 0.265625q-0.609375 0.265625 -0.984375 0.671875q-0.375 0.40625 -0.5625 0.859375l-2.4375 -0.640625q0.453125 -1.171875 1.28125 -1.875q0.828125 -0.71875 1.90625 -1.046875q1.078125 -0.328125 2.234375 -0.328125q0.796875 0 1.6875 0.1875q0.890625 0.1875 1.671875 0.6875q0.78125 0.484375 1.265625 1.375q0.5 0.890625 0.5 2.3125l0 8.703125l-2.484375 0l0 -1.796875l-0.140625 0q-0.25 0.5 -0.765625 0.984375q-0.5 0.484375 -1.265625 0.796875q-0.765625 0.3125 -1.828125 0.3125zm0.578125 -2.078125q1.046875 0 1.796875 -0.40625q0.75 -0.421875 1.140625 -1.09375q0.40625 -0.6875 0.40625 -1.4375l0 -1.6875q-0.140625 0.140625 -0.53125 0.265625q-0.390625 0.109375 -0.90625 0.203125q-0.5 0.078125 -0.96875 0.140625q-0.46875 0.046875 -0.765625 0.09375q-0.734375 0.09375 -1.34375 0.3125q-0.59375 0.21875 -0.953125 0.640625q-0.359375 0.40625 -0.359375 1.078125q0 0.625 0.328125 1.046875q0.328125 0.421875 0.875 0.640625q0.546875 0.203125 1.28125 0.203125zm15.878906 2.046875q-1.171875 0 -1.9375 -0.40625q-0.75 -0.40625 -1.1875 -0.9375q-0.421875 -0.546875 -0.65625 -0.96875l-0.203125 0l0 2.046875l-2.515625 0l0 -17.46875l2.578125 0l0 6.5l0.140625 0q0.234375 -0.40625 0.640625 -0.9375q0.421875 -0.546875 1.171875 -0.953125q0.75 -0.40625 1.96875 -0.40625q1.578125 0 2.8125 0.796875q1.234375 0.796875 1.953125 2.3125q0.71875 1.5 0.71875 3.640625q0 2.109375 -0.703125 3.625q-0.703125 1.515625 -1.953125 2.34375q-1.234375 0.8125 -2.828125 0.8125zm-0.5625 -2.203125q1.125 0 1.875 -0.609375q0.765625 -0.609375 1.140625 -1.640625q0.390625 -1.046875 0.390625 -2.359375q0 -1.28125 -0.390625 -2.296875q-0.375 -1.03125 -1.140625 -1.625q-0.75 -0.609375 -1.875 -0.609375q-1.109375 0 -1.875 0.578125q-0.75 0.5625 -1.140625 1.578125q-0.390625 1.015625 -0.390625 2.375q0 1.359375 0.390625 2.40625q0.390625 1.03125 1.15625 1.625q0.765625 0.578125 1.859375 0.578125zm8.8984375 1.9375l0 -13.109375l2.578125 0l0 13.109375l-2.578125 0zm1.296875 -15.109375q-0.65625 0 -1.140625 -0.4375q-0.46875 -0.453125 -0.46875 -1.078125q0 -0.65625 0.46875 -1.09375q0.484375 -0.453125 1.140625 -0.453125q0.671875 0 1.15625 0.453125q0.484375 0.4375 0.484375 1.09375q0 0.625 -0.484375 1.078125q-0.484375 0.4375 -1.15625 0.4375zm7.328125 -2.359375l0 17.46875l-2.578125 0l0 -17.46875l2.578125 0zm3.46875 17.46875l0 -13.109375l2.578125 0l0 13.109375l-2.578125 0zm1.296875 -15.109375q-0.65625 0 -1.140625 -0.4375q-0.46875 -0.453125 -0.46875 -1.078125q0 -0.65625 0.46875 -1.09375q0.484375 -0.453125 1.140625 -0.453125q0.671875 0 1.15625 0.453125q0.484375 0.4375 0.484375 1.09375q0 0.625 -0.484375 1.078125q-0.484375 0.4375 -1.15625 0.4375zm9.453125 15.375q-1.421875 0 -2.53125 -0.40625q-1.109375 -0.40625 -1.8125 -1.203125q-0.703125 -0.8125 -0.9375 -1.96875l2.421875 -0.515625q0.265625 1.03125 1.0 1.53125q0.75 0.484375 1.875 0.484375q1.25 0 1.984375 -0.515625q0.734375 -0.53125 0.734375 -1.265625q0 -0.625 -0.453125 -1.03125q-0.4375 -0.421875 -1.375 -0.609375l-2.203125 -0.515625q-1.828125 -0.40625 -2.71875 -1.296875q-0.890625 -0.90625 -0.890625 -2.3125q0 -1.171875 0.65625 -2.046875q0.65625 -0.890625 1.78125 -1.375q1.140625 -0.484375 2.625 -0.484375q1.421875 0 2.421875 0.40625q1.015625 0.40625 1.640625 1.15625q0.625 0.734375 0.90625 1.703125l-2.3125 0.5q-0.25 -0.6875 -0.859375 -1.203125q-0.609375 -0.53125 -1.765625 -0.53125q-1.0625 0 -1.78125 0.484375q-0.71875 0.484375 -0.71875 1.21875q0 0.65625 0.46875 1.0625q0.484375 0.40625 1.5625 0.65625l2.109375 0.46875q1.8125 0.40625 2.6875 1.28125q0.890625 0.875 0.890625 2.25q0 1.203125 -0.6875 2.125q-0.6875 0.90625 -1.90625 1.4375q-1.203125 0.515625 -2.8125 0.515625zm11.894516 0.03125q-1.25 0 -2.265625 -0.46875q-0.99998474 -0.46875 -1.5937347 -1.359375q-0.578125 -0.890625 -0.578125 -2.171875q0 -1.109375 0.421875 -1.828125q0.4375 -0.71875 1.171875 -1.140625q0.73435974 -0.421875 1.6249847 -0.625q0.90625 -0.21875 1.828125 -0.328125q1.15625 -0.140625 1.875 -0.21875q0.734375 -0.09375 1.078125 -0.296875q0.34375 -0.203125 0.34375 -0.65625l0 -0.078125q0 -0.734375 -0.28125 -1.234375q-0.28125 -0.515625 -0.84375 -0.78125q-0.546875 -0.28125 -1.375 -0.28125q-0.859375 0 -1.484375 0.265625q-0.609375 0.265625 -0.984375 0.671875q-0.375 0.40625 -0.5625 0.859375l-2.4374847 -0.640625q0.453125 -1.171875 1.28125 -1.875q0.82810974 -0.71875 1.9062347 -1.046875q1.078125 -0.328125 2.234375 -0.328125q0.796875 0 1.6875 0.1875q0.890625 0.1875 1.671875 0.6875q0.78125 0.484375 1.265625 1.375q0.5 0.890625 0.5 2.3125l0 8.703125l-2.484375 0l0 -1.796875l-0.140625 0q-0.25 0.5 -0.765625 0.984375q-0.5 0.484375 -1.265625 0.796875q-0.765625 0.3125 -1.828125 0.3125zm0.578125 -2.078125q1.046875 0 1.796875 -0.40625q0.75 -0.421875 1.140625 -1.09375q0.40625 -0.6875 0.40625 -1.4375l0 -1.6875q-0.140625 0.140625 -0.53125 0.265625q-0.390625 0.109375 -0.90625 0.203125q-0.5 0.078125 -0.96875 0.140625q-0.46875 0.046875 -0.765625 0.09375q-0.734375 0.09375 -1.34375 0.3125q-0.59375 0.21875 -0.953125 0.640625q-0.359375 0.40625 -0.359375 1.078125q0 0.625 0.328125 1.046875q0.328125 0.421875 0.875 0.640625q0.546875 0.203125 1.28125 0.203125zm14.988281 -11.328125l0 2.109375l-7.109375 0l0 -2.109375l7.109375 0zm-5.203125 -3.109375l2.578125 0l0 12.671875q0 0.796875 0.328125 1.171875q0.34375 0.359375 1.109375 0.359375q0.203125 0 0.53125 -0.046875q0.328125 -0.046875 0.5625 -0.09375l0.453125 2.0625q-0.40625 0.140625 -0.875 0.203125q-0.46875 0.0625 -0.9375 0.0625q-1.78125 0 -2.765625 -0.921875q-0.984375 -0.921875 -0.984375 -2.578125l0 -12.890625zm7.7617188 16.21875l0 -13.109375l2.578125 0l0 13.109375l-2.578125 0zm1.296875 -15.109375q-0.65625 0 -1.140625 -0.4375q-0.46875 -0.453125 -0.46875 -1.078125q0 -0.65625 0.46875 -1.09375q0.484375 -0.453125 1.140625 -0.453125q0.671875 0 1.15625 0.453125q0.484375 0.4375 0.484375 1.09375q0 0.625 -0.484375 1.078125q-0.484375 0.4375 -1.15625 0.4375zm10.265625 15.375q-1.84375 0 -3.21875 -0.84375q-1.375 -0.84375 -2.140625 -2.359375q-0.765625 -1.53125 -0.765625 -3.546875q0 -2.03125 0.765625 -3.5625q0.765625 -1.53125 2.140625 -2.375q1.375 -0.84375 3.21875 -0.84375q1.84375 0 3.21875 0.84375q1.375 0.84375 2.140625 2.375q0.765625 1.53125 0.765625 3.5625q0 2.015625 -0.765625 3.546875q-0.765625 1.515625 -2.140625 2.359375q-1.375 0.84375 -3.21875 0.84375zm0 -2.171875q1.1875 0 1.96875 -0.625q0.78125 -0.640625 1.15625 -1.671875q0.390625 -1.03125 0.390625 -2.28125q0 -1.25 -0.390625 -2.296875q-0.375 -1.046875 -1.15625 -1.671875q-0.78125 -0.640625 -1.96875 -0.640625q-1.1875 0 -1.96875 0.640625q-0.765625 0.625 -1.15625 1.671875q-0.375 1.03125 -0.375 2.296875q0 1.25 0.375 2.28125q0.390625 1.03125 1.15625 1.671875q0.78125 0.625 1.96875 0.625zm11.558594 -5.859375l0 7.765625l-2.578125 0l0 -13.109375l2.46875 0l0.015625 3.21875l-0.265625 0q0.578125 -1.765625 1.65625 -2.5625q1.09375 -0.8125 2.640625 -0.8125q1.34375 0 2.328125 0.5625q1.0 0.5625 1.5625 1.65625q0.5625 1.09375 0.5625 2.71875l0 8.328125l-2.578125 0l0 -8.0q0 -1.421875 -0.734375 -2.21875q-0.734375 -0.796875 -2.03125 -0.796875q-0.859375 0 -1.5625 0.390625q-0.6875 0.375 -1.09375 1.109375q-0.390625 0.71875 -0.390625 1.75zm21.929688 8.0625q-1.25 0 -2.265625 -0.46875q-1.0 -0.46875 -1.59375 -1.359375q-0.578125 -0.890625 -0.578125 -2.171875q0 -1.109375 0.421875 -1.828125q0.4375 -0.71875 1.171875 -1.140625q0.734375 -0.421875 1.625 -0.625q0.90625 -0.21875 1.828125 -0.328125q1.15625 -0.140625 1.875 -0.21875q0.734375 -0.09375 1.078125 -0.296875q0.34375 -0.203125 0.34375 -0.65625l0 -0.078125q0 -0.734375 -0.28125 -1.234375q-0.28125 -0.515625 -0.84375 -0.78125q-0.546875 -0.28125 -1.375 -0.28125q-0.859375 0 -1.484375 0.265625q-0.609375 0.265625 -0.984375 0.671875q-0.375 0.40625 -0.5625 0.859375l-2.4375 -0.640625q0.453125 -1.171875 1.28125 -1.875q0.828125 -0.71875 1.90625 -1.046875q1.078125 -0.328125 2.234375 -0.328125q0.796875 0 1.6875 0.1875q0.890625 0.1875 1.671875 0.6875q0.78125 0.484375 1.265625 1.375q0.5 0.890625 0.5 2.3125l0 8.703125l-2.484375 0l0 -1.796875l-0.140625 0q-0.25 0.5 -0.765625 0.984375q-0.5 0.484375 -1.265625 0.796875q-0.765625 0.3125 -1.828125 0.3125zm0.578125 -2.078125q1.046875 0 1.796875 -0.40625q0.75 -0.421875 1.140625 -1.09375q0.40625 -0.6875 0.40625 -1.4375l0 -1.6875q-0.140625 0.140625 -0.53125 0.265625q-0.390625 0.109375 -0.90625 0.203125q-0.5 0.078125 -0.96875 0.140625q-0.46875 0.046875 -0.765625 0.09375q-0.734375 0.09375 -1.34375 0.3125q-0.59375 0.21875 -0.953125 0.640625q-0.359375 0.40625 -0.359375 1.078125q0 0.625 0.328125 1.046875q0.328125 0.421875 0.875 0.640625q0.546875 0.203125 1.28125 0.203125zm9.378906 6.6875l0 -18.015625l2.515625 0l0 2.140625l0.203125 0q0.234375 -0.40625 0.640625 -0.9375q0.421875 -0.546875 1.171875 -0.953125q0.75 -0.40625 1.96875 -0.40625q1.578125 0 2.8125 0.796875q1.234375 0.796875 1.953125 2.3125q0.71875 1.5 0.71875 3.640625q0 2.109375 -0.703125 3.625q-0.703125 1.515625 -1.953125 2.34375q-1.234375 0.8125 -2.828125 0.8125q-1.171875 0 -1.9375 -0.40625q-0.75 -0.40625 -1.1875 -0.9375q-0.421875 -0.546875 -0.65625 -0.96875l-0.140625 0l0 6.953125l-2.578125 0zm5.9375 -6.84375q1.125 0 1.875 -0.609375q0.765625 -0.609375 1.140625 -1.640625q0.390625 -1.046875 0.390625 -2.359375q0 -1.28125 -0.390625 -2.296875q-0.375 -1.03125 -1.140625 -1.625q-0.75 -0.609375 -1.875 -0.609375q-1.109375 0 -1.875 0.578125q-0.75 0.5625 -1.140625 1.578125q-0.390625 1.015625 -0.390625 2.375q0 1.359375 0.390625 2.40625q0.390625 1.03125 1.15625 1.625q0.765625 0.578125 1.859375 0.578125zm8.8984375 1.9375l0 -13.109375l2.5 0l0 2.109375l0.140625 0q0.359375 -1.078125 1.265625 -1.6875q0.90625 -0.609375 2.046875 -0.609375q0.25 0 0.5625 0.03125q0.3125 0.015625 0.53125 0.046875l0 2.453125q-0.140625 -0.046875 -0.546875 -0.09375q-0.390625 -0.046875 -0.796875 -0.046875q-0.890625 0 -1.609375 0.375q-0.71875 0.375 -1.125 1.046875q-0.390625 0.65625 -0.390625 1.53125l0 7.953125l-2.578125 0zm14.480469 0.265625q-1.9375 0 -3.34375 -0.828125q-1.40625 -0.828125 -2.171875 -2.34375q-0.75 -1.515625 -0.75 -3.546875q0 -2.015625 0.734375 -3.546875q0.75 -1.546875 2.109375 -2.40625q1.359375 -0.859375 3.1875 -0.859375q1.125 0 2.171875 0.375q1.046875 0.359375 1.875 1.15625q0.828125 0.78125 1.3125 2.03125q0.5 1.234375 0.5 3.015625l0 0.921875l-10.453125 0l0 -1.921875l9.125 0l-1.203125 0.625q0 -1.203125 -0.375 -2.125q-0.375 -0.921875 -1.109375 -1.4375q-0.734375 -0.515625 -1.84375 -0.515625q-1.078125 0 -1.859375 0.53125q-0.765625 0.53125 -1.171875 1.390625q-0.40625 0.859375 -0.40625 1.875l0 1.3125q0 1.359375 0.453125 2.296875q0.46875 0.921875 1.296875 1.40625q0.84375 0.46875 1.9375 0.46875q0.734375 0 1.3125 -0.203125q0.59375 -0.21875 1.015625 -0.625q0.421875 -0.421875 0.65625 -1.03125l2.421875 0.578125q-0.3125 1.0 -1.0625 1.78125q-0.75 0.765625 -1.859375 1.203125q-1.09375 0.421875 -2.5 0.421875zm-1.234375 -15.0625l-2.296875 -3.515625l2.640625 0l1.640625 3.515625l-1.984375 0zm14.378906 15.0625q-1.421875 0 -2.53125 -0.40625q-1.109375 -0.40625 -1.8125 -1.203125q-0.703125 -0.8125 -0.9375 -1.96875l2.421875 -0.515625q0.265625 1.03125 1.0 1.53125q0.75 0.484375 1.875 0.484375q1.25 0 1.984375 -0.515625q0.734375 -0.53125 0.734375 -1.265625q0 -0.625 -0.453125 -1.03125q-0.4375 -0.421875 -1.375 -0.609375l-2.203125 -0.515625q-1.828125 -0.40625 -2.71875 -1.296875q-0.890625 -0.90625 -0.890625 -2.3125q0 -1.171875 0.65625 -2.046875q0.65625 -0.890625 1.78125 -1.375q1.140625 -0.484375 2.625 -0.484375q1.421875 0 2.421875 0.40625q1.015625 0.40625 1.640625 1.15625q0.625 0.734375 0.90625 1.703125l-2.3125 0.5q-0.25 -0.6875 -0.859375 -1.203125q-0.609375 -0.53125 -1.765625 -0.53125q-1.0625 0 -1.78125 0.484375q-0.71875 0.484375 -0.71875 1.21875q0 0.65625 0.46875 1.0625q0.484375 0.40625 1.5625 0.65625l2.109375 0.46875q1.8125 0.40625 2.6875 1.28125q0.890625 0.875 0.890625 2.25q0 1.203125 -0.6875 2.125q-0.6875 0.90625 -1.90625 1.4375q-1.203125 0.515625 -2.8125 0.515625zm17.199219 -17.734375l0 17.46875l-2.578125 0l0 -17.46875l2.578125 0zm3.640625 6.859375l1.03125 -6.859375l2.765625 0l-1.921875 6.859375l-1.875 0zm10.640625 10.875q-1.9375 0 -3.34375 -0.828125q-1.40625 -0.828125 -2.171875 -2.34375q-0.75 -1.515625 -0.75 -3.546875q0 -2.015625 0.734375 -3.546875q0.75 -1.546875 2.109375 -2.40625q1.359375 -0.859375 3.1875 -0.859375q1.125 0 2.171875 0.375q1.046875 0.359375 1.875 1.15625q0.828125 0.78125 1.3125 2.03125q0.5 1.234375 0.5 3.015625l0 0.921875l-10.453125 0l0 -1.921875l9.125 0l-1.203125 0.625q0 -1.203125 -0.375 -2.125q-0.375 -0.921875 -1.109375 -1.4375q-0.734375 -0.515625 -1.84375 -0.515625q-1.078125 0 -1.859375 0.53125q-0.765625 0.53125 -1.171875 1.390625q-0.40625 0.859375 -0.40625 1.875l0 1.3125q0 1.359375 0.453125 2.296875q0.46875 0.921875 1.296875 1.40625q0.84375 0.46875 1.9375 0.46875q0.734375 0 1.3125 -0.203125q0.59375 -0.21875 1.015625 -0.625q0.421875 -0.421875 0.65625 -1.03125l2.421875 0.578125q-0.3125 1.0 -1.0625 1.78125q-0.75 0.765625 -1.859375 1.203125q-1.09375 0.421875 -2.5 0.421875zm6.8632812 -0.265625l5.140625 -7.71875l-0.015625 1.984375l-4.859375 -7.375l2.90625 0l1.484375 2.390625q0.609375 0.984375 1.0625 1.890625q0.46875 0.90625 0.953125 1.75l-1.1875 0q0.5 -0.84375 0.921875 -1.75q0.421875 -0.90625 1.0625 -1.890625l1.5 -2.390625l2.859375 0l-4.90625 7.453125l0 -1.9375l5.109375 7.59375l-2.890625 0l-1.765625 -2.796875q-0.609375 -0.96875 -1.0625 -1.84375q-0.453125 -0.875 -0.9375 -1.703125l1.203125 0q-0.46875 0.828125 -0.890625 1.703125q-0.421875 0.875 -1.03125 1.84375l-1.78125 2.796875l-2.875 0zm14.433594 4.90625l0 -18.015625l2.515625 0l0 2.140625l0.203125 0q0.234375 -0.40625 0.640625 -0.9375q0.421875 -0.546875 1.171875 -0.953125q0.75 -0.40625 1.96875 -0.40625q1.578125 0 2.8125 0.796875q1.234375 0.796875 1.953125 2.3125q0.71875 1.5 0.71875 3.640625q0 2.109375 -0.703125 3.625q-0.703125 1.515625 -1.953125 2.34375q-1.234375 0.8125 -2.828125 0.8125q-1.171875 0 -1.9375 -0.40625q-0.75 -0.40625 -1.1875 -0.9375q-0.421875 -0.546875 -0.65625 -0.96875l-0.140625 0l0 6.953125l-2.578125 0zm5.9375 -6.84375q1.125 0 1.875 -0.609375q0.765625 -0.609375 1.140625 -1.640625q0.390625 -1.046875 0.390625 -2.359375q0 -1.28125 -0.390625 -2.296875q-0.375 -1.03125 -1.140625 -1.625q-0.75 -0.609375 -1.875 -0.609375q-1.109375 0 -1.875 0.578125q-0.75 0.5625 -1.140625 1.578125q-0.390625 1.015625 -0.390625 2.375q0 1.359375 0.390625 2.40625q0.390625 1.03125 1.15625 1.625q0.765625 0.578125 1.859375 0.578125zm11.4765625 -15.53125l0 17.46875l-2.578125 0l0 -17.46875l2.578125 0zm8.984375 17.734375q-1.84375 0 -3.21875 -0.84375q-1.375 -0.84375 -2.140625 -2.359375q-0.765625 -1.53125 -0.765625 -3.546875q0 -2.03125 0.765625 -3.5625q0.765625 -1.53125 2.140625 -2.375q1.375 -0.84375 3.21875 -0.84375q1.84375 0 3.21875 0.84375q1.375 0.84375 2.140625 2.375q0.765625 1.53125 0.765625 3.5625q0 2.015625 -0.765625 3.546875q-0.765625 1.515625 -2.140625 2.359375q-1.375 0.84375 -3.21875 0.84375zm0 -2.171875q1.1875 0 1.96875 -0.625q0.78125 -0.640625 1.15625 -1.671875q0.390625 -1.03125 0.390625 -2.28125q0 -1.25 -0.390625 -2.296875q-0.375 -1.046875 -1.15625 -1.671875q-0.78125 -0.640625 -1.96875 -0.640625q-1.1875 0 -1.96875 0.640625q-0.765625 0.625 -1.15625 1.671875q-0.375 1.03125 -0.375 2.296875q0 1.25 0.375 2.28125q0.390625 1.03125 1.15625 1.671875q0.78125 0.625 1.96875 0.625zm13.683594 2.171875q-1.421875 0 -2.53125 -0.40625q-1.109375 -0.40625 -1.8125 -1.203125q-0.703125 -0.8125 -0.9375 -1.96875l2.421875 -0.515625q0.265625 1.03125 1.0 1.53125q0.75 0.484375 1.875 0.484375q1.25 0 1.984375 -0.515625q0.734375 -0.53125 0.734375 -1.265625q0 -0.625 -0.453125 -1.03125q-0.4375 -0.421875 -1.375 -0.609375l-2.203125 -0.515625q-1.828125 -0.40625 -2.71875 -1.296875q-0.890625 -0.90625 -0.890625 -2.3125q0 -1.171875 0.65625 -2.046875q0.65625 -0.890625 1.78125 -1.375q1.140625 -0.484375 2.625 -0.484375q1.421875 0 2.421875 0.40625q1.015625 0.40625 1.640625 1.15625q0.625 0.734375 0.90625 1.703125l-2.3125 0.5q-0.25 -0.6875 -0.859375 -1.203125q-0.609375 -0.53125 -1.765625 -0.53125q-1.0625 0 -1.78125 0.484375q-0.71875 0.484375 -0.71875 1.21875q0 0.65625 0.46875 1.0625q0.484375 0.40625 1.5625 0.65625l2.109375 0.46875q1.8125 0.40625 2.6875 1.28125q0.890625 0.875 0.890625 2.25q0 1.203125 -0.6875 2.125q-0.6875 0.90625 -1.90625 1.4375q-1.203125 0.515625 -2.8125 0.515625zm8.222656 -0.265625l0 -13.109375l2.578125 0l0 13.109375l-2.578125 0zm1.296875 -15.109375q-0.65625 0 -1.140625 -0.4375q-0.46875 -0.453125 -0.46875 -1.078125q0 -0.65625 0.46875 -1.09375q0.484375 -0.453125 1.140625 -0.453125q0.671875 0 1.15625 0.453125q0.484375 0.4375 0.484375 1.09375q0 0.625 -0.484375 1.078125q-0.484375 0.4375 -1.15625 0.4375zm10.265625 15.375q-1.84375 0 -3.21875 -0.84375q-1.375 -0.84375 -2.140625 -2.359375q-0.765625 -1.53125 -0.765625 -3.546875q0 -2.03125 0.765625 -3.5625q0.765625 -1.53125 2.140625 -2.375q1.375 -0.84375 3.21875 -0.84375q1.84375 0 3.21875 0.84375q1.375 0.84375 2.140625 2.375q0.765625 1.53125 0.765625 3.5625q0 2.015625 -0.765625 3.546875q-0.765625 1.515625 -2.140625 2.359375q-1.375 0.84375 -3.21875 0.84375zm0 -2.171875q1.1875 0 1.96875 -0.625q0.78125 -0.640625 1.15625 -1.671875q0.390625 -1.03125 0.390625 -2.28125q0 -1.25 -0.390625 -2.296875q-0.375 -1.046875 -1.15625 -1.671875q-0.78125 -0.640625 -1.96875 -0.640625q-1.1875 0 -1.96875 0.640625q-0.765625 0.625 -1.15625 1.671875q-0.375 1.03125 -0.375 2.296875q0 1.25 0.375 2.28125q0.390625 1.03125 1.15625 1.671875q0.78125 0.625 1.96875 0.625zm11.558594 -5.859375l0 7.765625l-2.578125 0l0 -13.109375l2.46875 0l0.015625 3.21875l-0.265625 0q0.578125 -1.765625 1.65625 -2.5625q1.09375 -0.8125 2.640625 -0.8125q1.34375 0 2.328125 0.5625q1.0 0.5625 1.5625 1.65625q0.5625 1.09375 0.5625 2.71875l0 8.328125l-2.578125 0l0 -8.0q0 -1.421875 -0.734375 -2.21875q-0.734375 -0.796875 -2.03125 -0.796875q-0.859375 0 -1.5625 0.390625q-0.6875 0.375 -1.09375 1.109375q-0.390625 0.71875 -0.390625 1.75zm18.257843 12.671875l0 -18.015625l2.515625 0l0 2.140625l0.203125 0q0.234375 -0.40625 0.640625 -0.9375q0.421875 -0.546875 1.171875 -0.953125q0.75 -0.40625 1.96875 -0.40625q1.578125 0 2.8125 0.796875q1.234375 0.796875 1.953125 2.3125q0.71875 1.5 0.71875 3.640625q0 2.109375 -0.703125 3.625q-0.703125 1.515625 -1.953125 2.34375q-1.234375 0.8125 -2.828125 0.8125q-1.171875 0 -1.9375 -0.40625q-0.75 -0.40625 -1.1875 -0.9375q-0.421875 -0.546875 -0.65625 -0.96875l-0.140625 0l0 6.953125l-2.578125 0zm5.9375 -6.84375q1.125 0 1.875 -0.609375q0.765625 -0.609375 1.140625 -1.640625q0.390625 -1.046875 0.390625 -2.359375q0 -1.28125 -0.390625 -2.296875q-0.375 -1.03125 -1.140625 -1.625q-0.75 -0.609375 -1.875 -0.609375q-1.109375 0 -1.875 0.578125q-0.75 0.5625 -1.140625 1.578125q-0.390625 1.015625 -0.390625 2.375q0 1.359375 0.390625 2.40625q0.390625 1.03125 1.15625 1.625q0.765625 0.578125 1.859375 0.578125zm14.4140625 2.203125q-1.84375 0 -3.21875 -0.84375q-1.375 -0.84375 -2.140625 -2.359375q-0.765625 -1.53125 -0.765625 -3.546875q0 -2.03125 0.765625 -3.5625q0.765625 -1.53125 2.140625 -2.375q1.375 -0.84375 3.21875 -0.84375q1.84375 0 3.21875 0.84375q1.375 0.84375 2.140625 2.375q0.765625 1.53125 0.765625 3.5625q0 2.015625 -0.765625 3.546875q-0.765625 1.515625 -2.140625 2.359375q-1.375 0.84375 -3.21875 0.84375zm0 -2.171875q1.1875 0 1.96875 -0.625q0.78125 -0.640625 1.15625 -1.671875q0.390625 -1.03125 0.390625 -2.28125q0 -1.25 -0.390625 -2.296875q-0.375 -1.046875 -1.15625 -1.671875q-0.78125 -0.640625 -1.96875 -0.640625q-1.1875 0 -1.96875 0.640625q-0.765625 0.625 -1.15625 1.671875q-0.375 1.03125 -0.375 2.296875q0 1.25 0.375 2.28125q0.390625 1.03125 1.15625 1.671875q0.78125 0.625 1.96875 0.625zm13.683594 2.171875q-1.421875 0 -2.53125 -0.40625q-1.109375 -0.40625 -1.8125 -1.203125q-0.703125 -0.8125 -0.9375 -1.96875l2.421875 -0.515625q0.265625 1.03125 1.0 1.53125q0.75 0.484375 1.875 0.484375q1.25 0 1.984375 -0.515625q0.734375 -0.53125 0.734375 -1.265625q0 -0.625 -0.453125 -1.03125q-0.4375 -0.421875 -1.375 -0.609375l-2.203125 -0.515625q-1.828125 -0.40625 -2.71875 -1.296875q-0.890625 -0.90625 -0.890625 -2.3125q0 -1.171875 0.65625 -2.046875q0.65625 -0.890625 1.78125 -1.375q1.140625 -0.484375 2.625 -0.484375q1.421875 0 2.421875 0.40625q1.015625 0.40625 1.640625 1.15625q0.625 0.734375 0.90625 1.703125l-2.3125 0.5q-0.25 -0.6875 -0.859375 -1.203125q-0.609375 -0.53125 -1.765625 -0.53125q-1.0625 0 -1.78125 0.484375q-0.71875 0.484375 -0.71875 1.21875q0 0.65625 0.46875 1.0625q0.484375 0.40625 1.5625 0.65625l2.109375 0.46875q1.8125 0.40625 2.6875 1.28125q0.890625 0.875 0.890625 2.25q0 1.203125 -0.6875 2.125q-0.6875 0.90625 -1.90625 1.4375q-1.203125 0.515625 -2.8125 0.515625zm13.832031 -13.375l0 2.109375l-7.109375 0l0 -2.109375l7.109375 0zm-5.203125 -3.109375l2.578125 0l0 12.671875q0 0.796875 0.328125 1.171875q0.34375 0.359375 1.109375 0.359375q0.203125 0 0.53125 -0.046875q0.328125 -0.046875 0.5625 -0.09375l0.453125 2.0625q-0.40625 0.140625 -0.875 0.203125q-0.46875 0.0625 -0.9375 0.0625q-1.78125 0 -2.765625 -0.921875q-0.984375 -0.921875 -0.984375 -2.578125l0 -12.890625zm15.019531 7.75l0 2.21875l-7.765625 0l0 -2.21875l7.765625 0zm8.910156 8.734375q-1.859375 0 -3.234375 -0.84375q-1.359375 -0.84375 -2.125 -2.359375q-0.765625 -1.53125 -0.765625 -3.546875q0 -2.03125 0.765625 -3.5625q0.765625 -1.53125 2.125 -2.375q1.375 -0.84375 3.234375 -0.84375q1.015625 0 1.90625 0.265625q0.890625 0.265625 1.609375 0.765625q0.71875 0.484375 1.21875 1.21875q0.5 0.71875 0.75 1.609375l-2.453125 0.59375q-0.125 -0.5 -0.40625 -0.921875q-0.265625 -0.421875 -0.65625 -0.71875q-0.375 -0.3125 -0.875 -0.46875q-0.484375 -0.171875 -1.09375 -0.171875q-1.171875 0 -1.953125 0.640625q-0.78125 0.625 -1.171875 1.671875q-0.375 1.03125 -0.375 2.296875q0 1.25 0.375 2.296875q0.390625 1.03125 1.171875 1.65625q0.78125 0.625 1.953125 0.625q0.609375 0 1.109375 -0.171875q0.515625 -0.171875 0.90625 -0.484375q0.40625 -0.3125 0.671875 -0.75q0.265625 -0.4375 0.390625 -0.96875l2.4375 0.59375q-0.234375 0.921875 -0.75 1.65625q-0.5 0.734375 -1.21875 1.25q-0.71875 0.515625 -1.625 0.78125q-0.890625 0.265625 -1.921875 0.265625zm13.8515625 0q-1.84375 0 -3.21875 -0.84375q-1.375 -0.84375 -2.140625 -2.359375q-0.765625 -1.53125 -0.765625 -3.546875q0 -2.03125 0.765625 -3.5625q0.765625 -1.53125 2.140625 -2.375q1.375 -0.84375 3.21875 -0.84375q1.84375 0 3.21875 0.84375q1.375 0.84375 2.140625 2.375q0.765625 1.53125 0.765625 3.5625q0 2.015625 -0.765625 3.546875q-0.765625 1.515625 -2.140625 2.359375q-1.375 0.84375 -3.21875 0.84375zm0 -2.171875q1.1875 0 1.96875 -0.625q0.78125 -0.640625 1.15625 -1.671875q0.390625 -1.03125 0.390625 -2.28125q0 -1.25 -0.390625 -2.296875q-0.375 -1.046875 -1.15625 -1.671875q-0.78125 -0.640625 -1.96875 -0.640625q-1.1875 0 -1.96875 0.640625q-0.765625 0.625 -1.15625 1.671875q-0.375 1.03125 -0.375 2.296875q0 1.25 0.375 2.28125q0.390625 1.03125 1.15625 1.671875q0.78125 0.625 1.96875 0.625zm12.2734375 1.90625l-4.9375 -13.109375l2.78125 0l2.59375 7.453125q0.4375 1.21875 0.734375 2.46875q0.3125 1.234375 0.640625 2.453125l-0.765625 0q0.328125 -1.21875 0.625 -2.453125q0.3125 -1.25 0.734375 -2.46875l2.59375 -7.453125l2.765625 0l-4.953125 13.109375l-2.8125 0zm10.042969 0l0 -13.109375l2.578125 0l0 13.109375l-2.578125 0zm1.296875 -15.109375q-0.65625 0 -1.140625 -0.4375q-0.46875 -0.453125 -0.46875 -1.078125q0 -0.65625 0.46875 -1.09375q0.484375 -0.453125 1.140625 -0.453125q0.671875 0 1.15625 0.453125q0.484375 0.4375 0.484375 1.09375q0 0.625 -0.484375 1.078125q-0.484375 0.4375 -1.15625 0.4375zm9.625 15.375q-1.59375 0 -2.84375 -0.8125q-1.234375 -0.828125 -1.9375 -2.34375q-0.703125 -1.515625 -0.703125 -3.625q0 -2.140625 0.71875 -3.640625q0.71875 -1.515625 1.953125 -2.3125q1.25 -0.796875 2.8125 -0.796875q1.21875 0 1.953125 0.40625q0.75 0.40625 1.171875 0.953125q0.421875 0.53125 0.65625 0.9375l0.140625 0l0 -6.5l2.578125 0l0 17.46875l-2.515625 0l0 -2.046875l-0.203125 0q-0.234375 0.421875 -0.671875 0.96875q-0.421875 0.53125 -1.171875 0.9375q-0.75 0.40625 -1.9375 0.40625zm0.5625 -2.203125q1.109375 0 1.859375 -0.578125q0.75 -0.59375 1.140625 -1.625q0.40625 -1.046875 0.40625 -2.40625q0 -1.359375 -0.390625 -2.375q-0.390625 -1.015625 -1.15625 -1.578125q-0.75 -0.578125 -1.859375 -0.578125q-1.140625 0 -1.890625 0.609375q-0.75 0.59375 -1.140625 1.625q-0.375 1.015625 -0.375 2.296875q0 1.3125 0.375 2.359375q0.390625 1.03125 1.15625 1.640625q0.765625 0.609375 1.875 0.609375z" fill-rule="nonzero"/><path fill="#000000" d="m43.302536 284.39474l0 -17.46875l5.484375 0l2.84375 8.015625q0.171875 0.5625 0.390625 1.453125q0.234375 0.890625 0.46875 1.921875q0.234375 1.03125 0.4375 2.015625q0.21875 0.96875 0.34375 1.6875l-0.6875 0q0.125 -0.703125 0.328125 -1.671875q0.203125 -0.96875 0.4375 -2.0q0.234375 -1.03125 0.453125 -1.9375q0.234375 -0.90625 0.421875 -1.46875l2.78125 -8.015625l5.515625 0l0 17.46875l-3.609375 0l0 -8.234375q0 -0.5625 0.015625 -1.421875q0.03125 -0.859375 0.046875 -1.84375q0.03125 -1.0 0.046875 -2.0q0.03125 -1.0 0.046875 -1.890625l0.21875 0q-0.21875 0.96875 -0.484375 2.015625q-0.265625 1.03125 -0.546875 2.015625q-0.28125 0.96875 -0.53125 1.78125q-0.234375 0.8125 -0.40625 1.34375l-2.90625 8.234375l-3.0 0l-2.953125 -8.234375q-0.171875 -0.53125 -0.421875 -1.328125q-0.234375 -0.8125 -0.515625 -1.78125q-0.28125 -0.96875 -0.5625 -2.0q-0.28125 -1.046875 -0.53125 -2.046875l0.28125 0q0.015625 0.84375 0.03125 1.84375q0.03125 1.0 0.046875 2.0q0.03125 1.0 0.046875 1.859375q0.03125 0.859375 0.03125 1.453125l0 8.234375l-3.5625 0zm28.203125 0.265625q-2.0 0 -3.453125 -0.828125q-1.453125 -0.828125 -2.234375 -2.328125q-0.78125 -1.515625 -0.78125 -3.59375q0 -2.03125 0.765625 -3.546875q0.78125 -1.53125 2.1875 -2.375q1.421875 -0.859375 3.34375 -0.859375q1.28125 0 2.390625 0.40625q1.125 0.40625 1.96875 1.234375q0.84375 0.828125 1.3125 2.078125q0.46875 1.234375 0.46875 2.921875l0 0.984375l-11.0 0l0 -2.203125l9.28125 0l-1.640625 0.59375q0 -1.03125 -0.3125 -1.78125q-0.3125 -0.75 -0.921875 -1.171875q-0.609375 -0.421875 -1.53125 -0.421875q-0.90625 0 -1.546875 0.421875q-0.625 0.421875 -0.953125 1.15625q-0.328125 0.71875 -0.328125 1.640625l0 1.5625q0 1.125 0.375 1.90625q0.375 0.765625 1.0625 1.15625q0.6875 0.390625 1.609375 0.390625q0.609375 0 1.109375 -0.171875q0.515625 -0.1875 0.875 -0.53125q0.359375 -0.34375 0.546875 -0.84375l3.1875 0.59375q-0.328125 1.078125 -1.109375 1.890625q-0.78125 0.8125 -1.96875 1.265625q-1.171875 0.453125 -2.703125 0.453125zm11.890625 -7.84375l0 7.578125l-3.515625 0l0 -13.109375l3.3125 0l0.0625 3.28125l-0.203125 0q0.515625 -1.640625 1.5625 -2.53125q1.046875 -0.90625 2.703125 -0.90625q1.359375 0 2.359375 0.59375q1.015625 0.59375 1.578125 1.703125q0.5625 1.09375 0.5625 2.640625l0 8.328125l-3.515625 0l0 -7.71875q0 -1.21875 -0.625 -1.90625q-0.625 -0.703125 -1.734375 -0.703125q-0.734375 0 -1.328125 0.328125q-0.578125 0.3125 -0.90625 0.921875q-0.3125 0.609375 -0.3125 1.5zm17.925781 -5.53125l0 2.6875l-7.765625 0l0 -2.6875l7.765625 0zm-5.953125 -3.109375l3.515625 0l0 12.390625q0 0.609375 0.265625 0.921875q0.28125 0.296875 0.921875 0.296875q0.203125 0 0.5625 -0.046875q0.359375 -0.0625 0.546875 -0.109375l0.515625 2.640625q-0.59375 0.171875 -1.171875 0.234375q-0.578125 0.078125 -1.109375 0.078125q-1.96875 0 -3.015625 -0.953125q-1.03125 -0.96875 -1.03125 -2.765625l0 -12.6875zm13.8671875 16.484375q-1.96875 0 -3.40625 -0.84375q-1.4375 -0.859375 -2.21875 -2.375q-0.78125 -1.53125 -0.78125 -3.546875q0 -2.03125 0.78125 -3.546875q0.78125 -1.515625 2.21875 -2.359375q1.4375 -0.859375 3.40625 -0.859375q1.984375 0 3.421875 0.859375q1.4375 0.84375 2.203125 2.359375q0.78125 1.515625 0.78125 3.546875q0 2.015625 -0.78125 3.546875q-0.765625 1.515625 -2.203125 2.375q-1.4375 0.84375 -3.421875 0.84375zm0 -2.78125q0.9375 0 1.5625 -0.515625q0.640625 -0.515625 0.953125 -1.421875q0.328125 -0.921875 0.328125 -2.046875q0 -1.171875 -0.328125 -2.0625q-0.3125 -0.90625 -0.953125 -1.421875q-0.625 -0.515625 -1.5625 -0.515625q-0.9375 0 -1.5625 0.515625q-0.625 0.515625 -0.953125 1.421875q-0.3125 0.890625 -0.3125 2.0625q0 1.125 0.3125 2.046875q0.328125 0.90625 0.953125 1.421875q0.625 0.515625 1.5625 0.515625zm8.859375 2.515625l0 -13.109375l3.40625 0l0 2.296875l0.140625 0q0.359375 -1.21875 1.203125 -1.84375q0.859375 -0.625 1.953125 -0.625q0.265625 0 0.578125 0.03125q0.3125 0.03125 0.5625 0.09375l0 3.140625q-0.234375 -0.09375 -0.6875 -0.140625q-0.4375 -0.046875 -0.84375 -0.046875q-0.796875 0 -1.4375 0.359375q-0.640625 0.34375 -1.0 0.953125q-0.359375 0.609375 -0.359375 1.4375l0 7.453125l-3.515625 0z" fill-rule="nonzero"/><path fill="#595959" d="m42.31816 317.51474l6.21875 -17.46875l3.28125 0l6.328125 17.46875l-2.890625 0l-3.40625 -9.71875q-0.390625 -1.1875 -0.875 -2.78125q-0.46875 -1.609375 -1.09375 -3.859375l0.546875 0q-0.609375 2.265625 -1.078125 3.890625q-0.46875 1.625 -0.84375 2.75l-3.28125 9.71875l-2.90625 0zm3.375 -4.609375l0 -2.21875l9.078125 0l0 2.21875l-9.078125 0zm17.359375 -3.15625l0 7.765625l-2.578125 0l0 -13.109375l2.46875 0l0.015625 3.21875l-0.265625 0q0.578125 -1.765625 1.65625 -2.5625q1.09375 -0.8125 2.640625 -0.8125q1.34375 0 2.328125 0.5625q1.0 0.5625 1.5625 1.65625q0.5625 1.09375 0.5625 2.71875l0 8.328125l-2.578125 0l0 -8.0q0 -1.421875 -0.734375 -2.21875q-0.734375 -0.796875 -2.03125 -0.796875q-0.859375 0 -1.5625 0.390625q-0.6875 0.375 -1.09375 1.109375q-0.390625 0.71875 -0.390625 1.75zm17.46875 -5.34375l0 2.109375l-7.109375 0l0 -2.109375l7.109375 0zm-5.203125 -3.109375l2.578125 0l0 12.671875q0 0.796875 0.328125 1.171875q0.34375 0.359375 1.109375 0.359375q0.203125 0 0.53125 -0.046875q0.328125 -0.046875 0.5625 -0.09375l0.453125 2.0625q-0.40625 0.140625 -0.875 0.203125q-0.46875 0.0625 -0.9375 0.0625q-1.78125 0 -2.765625 -0.921875q-0.984375 -0.921875 -0.984375 -2.578125l0 -12.890625zm13.042969 16.484375q-1.84375 0 -3.21875 -0.84375q-1.375 -0.84375 -2.140625 -2.359375q-0.765625 -1.53125 -0.765625 -3.546875q0 -2.03125 0.765625 -3.5625q0.765625 -1.53125 2.140625 -2.375q1.375 -0.84375 3.21875 -0.84375q1.84375 0 3.21875 0.84375q1.375 0.84375 2.140625 2.375q0.765625 1.53125 0.765625 3.5625q0 2.015625 -0.765625 3.546875q-0.765625 1.515625 -2.140625 2.359375q-1.375 0.84375 -3.21875 0.84375zm0 -2.171875q1.1875 0 1.96875 -0.625q0.78125 -0.640625 1.15625 -1.671875q0.390625 -1.03125 0.390625 -2.28125q0 -1.25 -0.390625 -2.296875q-0.375 -1.046875 -1.15625 -1.671875q-0.78125 -0.640625 -1.96875 -0.640625q-1.1875 0 -1.96875 0.640625q-0.765625 0.625 -1.15625 1.671875q-0.375 1.03125 -0.375 2.296875q0 1.25 0.375 2.28125q0.390625 1.03125 1.15625 1.671875q0.78125 0.625 1.96875 0.625zm8.980469 1.90625l0 -13.109375l2.578125 0l0 13.109375l-2.578125 0zm1.296875 -15.109375q-0.65625 0 -1.140625 -0.4375q-0.46875 -0.453125 -0.46875 -1.078125q0 -0.65625 0.46875 -1.09375q0.484375 -0.453125 1.140625 -0.453125q0.671875 0 1.15625 0.453125q0.484375 0.4375 0.484375 1.09375q0 0.625 -0.484375 1.078125q-0.484375 0.4375 -1.15625 0.4375zm7.328125 7.34375l0 7.765625l-2.578125 0l0 -13.109375l2.46875 0l0.015625 3.21875l-0.265625 0q0.578125 -1.765625 1.65625 -2.5625q1.09375 -0.8125 2.640625 -0.8125q1.34375 0 2.328125 0.5625q1.0 0.5625 1.5625 1.65625q0.5625 1.09375 0.5625 2.71875l0 8.328125l-2.578125 0l0 -8.0q0 -1.421875 -0.734375 -2.21875q-0.734375 -0.796875 -2.03125 -0.796875q-0.859375 0 -1.5625 0.390625q-0.6875 0.375 -1.09375 1.109375q-0.390625 0.71875 -0.390625 1.75zm17.515625 8.03125q-1.9375 0 -3.34375 -0.828125q-1.40625 -0.828125 -2.171875 -2.34375q-0.75 -1.515625 -0.75 -3.546875q0 -2.015625 0.734375 -3.546875q0.75 -1.546875 2.109375 -2.40625q1.359375 -0.859375 3.1875 -0.859375q1.125 0 2.171875 0.375q1.046875 0.359375 1.875 1.15625q0.828125 0.78125 1.3125 2.03125q0.5 1.234375 0.5 3.015625l0 0.921875l-10.453125 0l0 -1.921875l9.125 0l-1.203125 0.625q0 -1.203125 -0.375 -2.125q-0.375 -0.921875 -1.109375 -1.4375q-0.734375 -0.515625 -1.84375 -0.515625q-1.078125 0 -1.859375 0.53125q-0.765625 0.53125 -1.171875 1.390625q-0.40625 0.859375 -0.40625 1.875l0 1.3125q0 1.359375 0.453125 2.296875q0.46875 0.921875 1.296875 1.40625q0.84375 0.46875 1.9375 0.46875q0.734375 0 1.3125 -0.203125q0.59375 -0.21875 1.015625 -0.625q0.421875 -0.421875 0.65625 -1.03125l2.421875 0.578125q-0.3125 1.0 -1.0625 1.78125q-0.75 0.765625 -1.859375 1.203125q-1.09375 0.421875 -2.5 0.421875zm22.371094 -0.03125q-2.359375 0 -4.15625 -1.09375q-1.78125 -1.09375 -2.78125 -3.09375q-1.0 -2.015625 -1.0 -4.765625q0 -2.796875 1.015625 -4.796875q1.015625 -2.015625 2.78125 -3.09375q1.765625 -1.09375 4.03125 -1.09375q1.40625 0 2.625 0.421875q1.234375 0.421875 2.1875 1.1875q0.96875 0.765625 1.59375 1.828125q0.640625 1.0625 0.84375 2.328125l-2.734375 0q-0.234375 -0.765625 -0.65625 -1.375q-0.40625 -0.625 -0.984375 -1.046875q-0.5625 -0.4375 -1.28125 -0.671875q-0.71875 -0.234375 -1.578125 -0.234375q-1.46875 0 -2.65625 0.75q-1.171875 0.75 -1.859375 2.21875q-0.6875 1.453125 -0.6875 3.5625q0 2.109375 0.6875 3.5625q0.6875 1.453125 1.875 2.21875q1.203125 0.75 2.75 0.75q1.40625 0 2.453125 -0.5625q1.046875 -0.578125 1.625 -1.625q0.59375 -1.046875 0.59375 -2.484375l0.6875 0.125l-4.96875 0l0 -2.203125l6.890625 0l0 2.0q0 2.203125 -0.953125 3.8125q-0.9375 1.609375 -2.578125 2.5q-1.640625 0.875 -3.765625 0.875zm10.410156 -0.234375l0 -13.109375l2.578125 0l0 13.109375l-2.578125 0zm1.296875 -15.109375q-0.65625 0 -1.140625 -0.4375q-0.46875 -0.453125 -0.46875 -1.078125q0 -0.65625 0.46875 -1.09375q0.484375 -0.453125 1.140625 -0.453125q0.671875 0 1.15625 0.453125q0.484375 0.4375 0.484375 1.09375q0 0.625 -0.484375 1.078125q-0.484375 0.4375 -1.15625 0.4375zm4.75 15.109375l0 -13.109375l2.5 0l0 2.109375l0.140625 0q0.359375 -1.078125 1.265625 -1.6875q0.90625 -0.609375 2.046875 -0.609375q0.25 0 0.5625 0.03125q0.3125 0.015625 0.53125 0.046875l0 2.453125q-0.140625 -0.046875 -0.546875 -0.09375q-0.390625 -0.046875 -0.796875 -0.046875q-0.890625 0 -1.609375 0.375q-0.71875 0.375 -1.125 1.046875q-0.390625 0.65625 -0.390625 1.53125l0 7.953125l-2.578125 0zm12.847656 0.296875q-1.25 0 -2.265625 -0.46875q-1.0 -0.46875 -1.59375 -1.359375q-0.578125 -0.890625 -0.578125 -2.171875q0 -1.109375 0.421875 -1.828125q0.4375 -0.71875 1.171875 -1.140625q0.734375 -0.421875 1.625 -0.625q0.90625 -0.21875 1.828125 -0.328125q1.15625 -0.140625 1.875 -0.21875q0.734375 -0.09375 1.078125 -0.296875q0.34375 -0.203125 0.34375 -0.65625l0 -0.078125q0 -0.734375 -0.28125 -1.234375q-0.28125 -0.515625 -0.84375 -0.78125q-0.546875 -0.28125 -1.375 -0.28125q-0.859375 0 -1.484375 0.265625q-0.609375 0.265625 -0.984375 0.671875q-0.375 0.40625 -0.5625 0.859375l-2.4375 -0.640625q0.453125 -1.171875 1.28125 -1.875q0.828125 -0.71875 1.90625 -1.046875q1.078125 -0.328125 2.234375 -0.328125q0.796875 0 1.6875 0.1875q0.890625 0.1875 1.671875 0.6875q0.78125 0.484375 1.265625 1.375q0.5 0.890625 0.5 2.3125l0 8.703125l-2.484375 0l0 -1.796875l-0.140625 0q-0.25 0.5 -0.765625 0.984375q-0.5 0.484375 -1.265625 0.796875q-0.765625 0.3125 -1.828125 0.3125zm0.578125 -2.078125q1.046875 0 1.796875 -0.40625q0.75 -0.421875 1.140625 -1.09375q0.40625 -0.6875 0.40625 -1.4375l0 -1.6875q-0.140625 0.140625 -0.53125 0.265625q-0.390625 0.109375 -0.90625 0.203125q-0.5 0.078125 -0.96875 0.140625q-0.46875 0.046875 -0.765625 0.09375q-0.734375 0.09375 -1.34375 0.3125q-0.59375 0.21875 -0.953125 0.640625q-0.359375 0.40625 -0.359375 1.078125q0 0.625 0.328125 1.046875q0.328125 0.421875 0.875 0.640625q0.546875 0.203125 1.28125 0.203125zm9.378906 1.78125l0 -13.109375l2.5 0l0 2.109375l0.140625 0q0.359375 -1.078125 1.265625 -1.6875q0.90625 -0.609375 2.046875 -0.609375q0.25 0 0.5625 0.03125q0.3125 0.015625 0.53125 0.046875l0 2.453125q-0.140625 -0.046875 -0.546875 -0.09375q-0.390625 -0.046875 -0.796875 -0.046875q-0.890625 0 -1.609375 0.375q-0.71875 0.375 -1.125 1.046875q-0.390625 0.65625 -0.390625 1.53125l0 7.953125l-2.578125 0zm13.699219 0.265625q-1.59375 0 -2.84375 -0.8125q-1.234375 -0.828125 -1.9375 -2.34375q-0.703125 -1.515625 -0.703125 -3.625q0 -2.140625 0.71875 -3.640625q0.71875 -1.515625 1.953125 -2.3125q1.25 -0.796875 2.8125 -0.796875q1.21875 0 1.953125 0.40625q0.75 0.40625 1.171875 0.953125q0.421875 0.53125 0.65625 0.9375l0.140625 0l0 -6.5l2.578125 0l0 17.46875l-2.515625 0l0 -2.046875l-0.203125 0q-0.234375 0.421875 -0.671875 0.96875q-0.421875 0.53125 -1.171875 0.9375q-0.75 0.40625 -1.9375 0.40625zm0.5625 -2.203125q1.109375 0 1.859375 -0.578125q0.75 -0.59375 1.140625 -1.625q0.40625 -1.046875 0.40625 -2.40625q0 -1.359375 -0.390625 -2.375q-0.390625 -1.015625 -1.15625 -1.578125q-0.75 -0.578125 -1.859375 -0.578125q-1.140625 0 -1.890625 0.609375q-0.75 0.59375 -1.140625 1.625q-0.375 1.015625 -0.375 2.296875q0 1.3125 0.375 2.359375q0.390625 1.03125 1.15625 1.640625q0.765625 0.609375 1.875 0.609375zm23.5 -6.53125l0 2.21875l-7.765625 0l0 -2.21875l7.765625 0zm8.652344 8.46875l6.21875 -17.46875l3.28125 0l6.328125 17.46875l-2.890625 0l-3.40625 -9.71875q-0.390625 -1.1875 -0.875 -2.78125q-0.46875 -1.609375 -1.09375 -3.859375l0.546875 0q-0.609375 2.265625 -1.078125 3.890625q-0.46875 1.625 -0.84375 2.75l-3.28125 9.71875l-2.90625 0zm3.375 -4.609375l0 -2.21875l9.078125 0l0 2.21875l-9.078125 0zm17.359375 -12.859375l0 17.46875l-2.578125 0l0 -17.46875l2.578125 0zm7.9374847 17.640625q-1.34375 0 -2.359375 -0.5625q-1.0 -0.578125 -1.5625 -1.671875q-0.54685974 -1.109375 -0.54685974 -2.71875l0 -8.328125l2.5781097 0l0 8.015625q0 1.40625 0.734375 2.203125q0.75 0.796875 2.03125 0.796875q0.875 0 1.5625 -0.375q0.6875 -0.375 1.078125 -1.109375q0.40625 -0.734375 0.40625 -1.765625l0 -7.765625l2.578125 0l0 13.109375l-2.453125 0l-0.015625 -3.21875l0.25 0q-0.578125 1.78125 -1.6875 2.59375q-1.09375 0.796875 -2.59375 0.796875zm9.96875 -0.171875l0 -13.109375l2.453125 0l0.0625 3.046875l-0.1875 0q0.28125 -1.125 0.859375 -1.828125q0.59375 -0.71875 1.375 -1.078125q0.78125 -0.359375 1.640625 -0.359375q1.421875 0 2.296875 0.890625q0.890625 0.875 1.1875 2.46875l-0.328125 0q0.265625 -1.078125 0.890625 -1.828125q0.640625 -0.75 1.53125 -1.140625q0.90625 -0.390625 1.921875 -0.390625q1.15625 0 2.09375 0.515625q0.953125 0.5 1.5 1.5q0.546875 0.984375 0.546875 2.46875l0 8.84375l-2.578125 0l0 -8.578125q0 -1.3125 -0.734375 -1.890625q-0.71875 -0.59375 -1.71875 -0.59375q-0.8125 0 -1.40625 0.34375q-0.578125 0.328125 -0.890625 0.9375q-0.3125 0.609375 -0.3125 1.390625l0 8.390625l-2.546875 0l0 -8.75q0 -1.046875 -0.671875 -1.671875q-0.671875 -0.640625 -1.71875 -0.640625q-0.71875 0 -1.34375 0.34375q-0.609375 0.328125 -0.984375 0.984375q-0.359375 0.640625 -0.359375 1.59375l0 8.140625l-2.578125 0zm23.894531 -7.765625l0 7.765625l-2.578125 0l0 -13.109375l2.46875 0l0.015625 3.21875l-0.265625 0q0.578125 -1.765625 1.65625 -2.5625q1.09375 -0.8125 2.640625 -0.8125q1.34375 0 2.328125 0.5625q1.0 0.5625 1.5625 1.65625q0.5625 1.09375 0.5625 2.71875l0 8.328125l-2.578125 0l0 -8.0q0 -1.421875 -0.734375 -2.21875q-0.734375 -0.796875 -2.03125 -0.796875q-0.859375 0 -1.5625 0.390625q-0.6875 0.375 -1.09375 1.109375q-0.390625 0.71875 -0.390625 1.75zm11.859375 7.765625l0 -13.109375l2.578125 0l0 13.109375l-2.578125 0zm1.296875 -15.109375q-0.65625 0 -1.140625 -0.4375q-0.46875 -0.453125 -0.46875 -1.078125q0 -0.65625 0.46875 -1.09375q0.484375 -0.453125 1.140625 -0.453125q0.671875 0 1.15625 0.453125q0.484375 0.4375 0.484375 1.09375q0 0.625 -0.484375 1.078125q-0.484375 0.4375 -1.15625 0.4375zm11.3515625 15.109375l0 -17.46875l10.984375 0l0 2.296875l-8.3125 0l0 5.203125l7.71875 0l0 2.296875l-7.71875 0l0 5.375l8.390625 0l0 2.296875l-11.0625 0zm14.472656 0l0 -17.46875l3.078125 0l6.578125 10.40625q0.328125 0.515625 0.734375 1.234375q0.40625 0.703125 0.859375 1.609375q0.46875 0.890625 0.90625 1.9375l-0.328125 0q-0.09375 -0.984375 -0.15625 -1.96875q-0.046875 -0.984375 -0.078125 -1.828125q-0.015625 -0.859375 -0.015625 -1.453125l0 -9.9375l2.703125 0l0 17.46875l-3.09375 0l-5.890625 -9.296875q-0.46875 -0.765625 -0.921875 -1.53125q-0.453125 -0.78125 -1.0 -1.78125q-0.546875 -1.015625 -1.328125 -2.46875l0.421875 0q0.0625 1.28125 0.109375 2.40625q0.0625 1.109375 0.09375 1.984375q0.03125 0.859375 0.03125 1.375l0 9.3125l-2.703125 0zm24.011719 0.296875q-1.953125 0 -3.40625 -0.625q-1.4375 -0.625 -2.25 -1.78125q-0.8125 -1.15625 -0.890625 -2.75l2.671875 0q0.09375 0.953125 0.625 1.578125q0.53125 0.625 1.375 0.9375q0.859375 0.296875 1.859375 0.296875q1.109375 0 1.96875 -0.34375q0.875 -0.359375 1.375 -0.984375q0.5 -0.640625 0.5 -1.484375q0 -0.765625 -0.4375 -1.25q-0.4375 -0.484375 -1.1875 -0.8125q-0.734375 -0.328125 -1.6875 -0.5625l-2.046875 -0.5625q-2.140625 -0.578125 -3.34375 -1.703125q-1.203125 -1.125 -1.203125 -2.921875q0 -1.515625 0.8125 -2.640625q0.828125 -1.125 2.21875 -1.75q1.40625 -0.640625 3.15625 -0.640625q1.796875 0 3.15625 0.640625q1.375 0.625 2.15625 1.71875q0.78125 1.078125 0.8125 2.46875l-2.609375 0q-0.125 -1.1875 -1.109375 -1.84375q-0.96875 -0.65625 -2.453125 -0.65625q-1.0625 0 -1.84375 0.328125q-0.78125 0.328125 -1.203125 0.90625q-0.421875 0.578125 -0.421875 1.3125q0 0.84375 0.5 1.359375q0.515625 0.5 1.25 0.796875q0.734375 0.296875 1.390625 0.46875l1.703125 0.453125q0.828125 0.203125 1.71875 0.5625q0.890625 0.359375 1.640625 0.9375q0.75 0.5625 1.203125 1.40625q0.46875 0.828125 0.46875 2.015625q0 1.46875 -0.765625 2.640625q-0.765625 1.15625 -2.21875 1.828125q-1.4375 0.65625 -3.484375 0.65625zm9.644531 -0.296875l0 -17.46875l10.984375 0l0 2.296875l-8.3125 0l0 5.203125l7.71875 0l0 2.296875l-7.71875 0l0 5.375l8.390625 0l0 2.296875l-11.0625 0zm14.472656 0l0 -17.46875l10.984375 0l0 2.296875l-8.3125 0l0 5.203125l7.71875 0l0 2.296875l-7.71875 0l0 5.375l8.390625 0l0 2.296875l-11.0625 0zm17.144531 -17.46875l0 17.46875l-2.671875 0l0 -17.46875l2.671875 0zm3.8671875 17.46875l0 -17.46875l2.671875 0l0 7.390625l8.640625 0l0 -7.390625l2.6875 0l0 17.46875l-2.6875 0l0 -7.78125l-8.640625 0l0 7.78125l-2.671875 0zm16.996094 -15.171875l0 -2.296875l13.546875 0l0 2.296875l-5.421875 0l0 15.171875l-2.6875 0l0 -15.171875l-5.4375 0zm22.941406 15.171875l0 -17.46875l6.25 0q2.015625 0 3.359375 0.75q1.359375 0.75 2.015625 2.03125q0.671875 1.28125 0.671875 2.890625q0 1.625 -0.671875 2.90625q-0.671875 1.28125 -2.015625 2.03125q-1.34375 0.734375 -3.375 0.734375l-4.28125 0l0 -2.25l4.015625 0q1.296875 0 2.09375 -0.4375q0.796875 -0.453125 1.15625 -1.21875q0.375 -0.78125 0.375 -1.765625q0 -0.984375 -0.375 -1.75q-0.359375 -0.765625 -1.171875 -1.1875q-0.796875 -0.4375 -2.09375 -0.4375l-3.28125 0l0 15.171875l-2.671875 0zm15.1953125 0l0 -13.109375l2.5 0l0 2.109375l0.140625 0q0.359375 -1.078125 1.265625 -1.6875q0.90625 -0.609375 2.046875 -0.609375q0.25 0 0.5625 0.03125q0.3125 0.015625 0.53125 0.046875l0 2.453125q-0.140625 -0.046875 -0.546875 -0.09375q-0.390625 -0.046875 -0.796875 -0.046875q-0.890625 0 -1.609375 0.375q-0.71875 0.375 -1.125 1.046875q-0.390625 0.65625 -0.390625 1.53125l0 7.953125l-2.578125 0zm14.339844 0.265625q-1.84375 0 -3.21875 -0.84375q-1.375 -0.84375 -2.140625 -2.359375q-0.765625 -1.53125 -0.765625 -3.546875q0 -2.03125 0.765625 -3.5625q0.765625 -1.53125 2.140625 -2.375q1.375 -0.84375 3.21875 -0.84375q1.84375 0 3.21875 0.84375q1.375 0.84375 2.140625 2.375q0.765625 1.53125 0.765625 3.5625q0 2.015625 -0.765625 3.546875q-0.765625 1.515625 -2.140625 2.359375q-1.375 0.84375 -3.21875 0.84375zm0 -2.171875q1.1875 0 1.96875 -0.625q0.78125 -0.640625 1.15625 -1.671875q0.390625 -1.03125 0.390625 -2.28125q0 -1.25 -0.390625 -2.296875q-0.375 -1.046875 -1.15625 -1.671875q-0.78125 -0.640625 -1.96875 -0.640625q-1.1875 0 -1.96875 0.640625q-0.765625 0.625 -1.15625 1.671875q-0.375 1.03125 -0.375 2.296875q0 1.25 0.375 2.28125q0.390625 1.03125 1.15625 1.671875q0.78125 0.625 1.96875 0.625zm8.980469 1.90625l0 -13.109375l2.453125 0l0.0625 3.046875l-0.1875 0q0.28125 -1.125 0.859375 -1.828125q0.59375 -0.71875 1.375 -1.078125q0.78125 -0.359375 1.640625 -0.359375q1.421875 0 2.296875 0.890625q0.890625 0.875 1.1875 2.46875l-0.328125 0q0.265625 -1.078125 0.890625 -1.828125q0.640625 -0.75 1.53125 -1.140625q0.90625 -0.390625 1.921875 -0.390625q1.15625 0 2.09375 0.515625q0.953125 0.5 1.5 1.5q0.546875 0.984375 0.546875 2.46875l0 8.84375l-2.578125 0l0 -8.578125q0 -1.3125 -0.734375 -1.890625q-0.71875 -0.59375 -1.71875 -0.59375q-0.8125 0 -1.40625 0.34375q-0.578125 0.328125 -0.890625 0.9375q-0.3125 0.609375 -0.3125 1.390625l0 8.390625l-2.546875 0l0 -8.75q0 -1.046875 -0.671875 -1.671875q-0.671875 -0.640625 -1.71875 -0.640625q-0.71875 0 -1.34375 0.34375q-0.609375 0.328125 -0.984375 0.984375q-0.359375 0.640625 -0.359375 1.59375l0 8.140625l-2.578125 0zm26.832031 0.265625q-1.84375 0 -3.21875 -0.84375q-1.375 -0.84375 -2.140625 -2.359375q-0.765625 -1.53125 -0.765625 -3.546875q0 -2.03125 0.765625 -3.5625q0.765625 -1.53125 2.140625 -2.375q1.375 -0.84375 3.21875 -0.84375q1.84375 0 3.21875 0.84375q1.3750305 0.84375 2.1406555 2.375q0.765625 1.53125 0.765625 3.5625q0 2.015625 -0.765625 3.546875q-0.765625 1.515625 -2.1406555 2.359375q-1.375 0.84375 -3.21875 0.84375zm0 -2.171875q1.1875 0 1.96875 -0.625q0.78125 -0.640625 1.15625 -1.671875q0.390625 -1.03125 0.390625 -2.28125q0 -1.25 -0.390625 -2.296875q-0.375 -1.046875 -1.15625 -1.671875q-0.78125 -0.640625 -1.96875 -0.640625q-1.1875 0 -1.96875 0.640625q-0.765625 0.625 -1.15625 1.671875q-0.375 1.03125 -0.375 2.296875q0 1.25 0.375 2.28125q0.390625 1.03125 1.15625 1.671875q0.78125 0.625 1.96875 0.625zm15.332062 1.90625l0 -1.9375l5.9375 -6.125q0.90625 -0.96875 1.515625 -1.703125q0.609375 -0.734375 0.921875 -1.40625q0.328125 -0.6875 0.328125 -1.46875q0 -0.875 -0.40625 -1.5q-0.40625 -0.640625 -1.109375 -0.96875q-0.6875 -0.34375 -1.578125 -0.34375q-0.9375 0 -1.625 0.375q-0.6875 0.375 -1.0625 1.078125q-0.375 0.6875 -0.375 1.625l-2.5625 0q0 -1.59375 0.734375 -2.796875q0.734375 -1.203125 2.015625 -1.859375q1.28125 -0.671875 2.921875 -0.671875q1.65625 0 2.90625 0.65625q1.265625 0.65625 1.984375 1.78125q0.71875 1.125 0.71875 2.53125q0 0.96875 -0.359375 1.890625q-0.359375 0.90625 -1.265625 2.0625q-0.890625 1.140625 -2.515625 2.78125l-3.421875 3.578125l0 0.140625l7.828125 0l0 2.28125l-11.53125 0zm20.851562 0.234375q-2.046875 0 -3.484375 -1.046875q-1.421875 -1.0625 -2.1875 -3.0625q-0.75 -2.0 -0.75 -4.84375q0 -2.84375 0.75 -4.84375q0.765625 -2.0 2.203125 -3.0625q1.4375 -1.078125 3.46875 -1.078125q2.015625 0 3.453125 1.078125q1.4375 1.0625 2.203125 3.0625q0.765625 2.0 0.765625 4.84375q0 2.828125 -0.765625 4.84375q-0.75 2.0 -2.1875 3.0625q-1.4375 1.046875 -3.46875 1.046875zm0 -2.28125q1.203125 0 2.046875 -0.796875q0.84375 -0.796875 1.28125 -2.28125q0.4375 -1.484375 0.4375 -3.59375q0 -2.125 -0.4375 -3.625q-0.4375 -1.5 -1.28125 -2.28125q-0.84375 -0.796875 -2.046875 -0.796875q-1.203125 0 -2.046875 0.796875q-0.84375 0.796875 -1.296875 2.296875q-0.4375 1.484375 -0.4375 3.609375q0 2.109375 0.4375 3.59375q0.453125 1.484375 1.296875 2.28125q0.84375 0.796875 2.046875 0.796875zm9.4296875 2.046875l0 -1.9375l5.9375 -6.125q0.90625 -0.96875 1.515625 -1.703125q0.609375 -0.734375 0.921875 -1.40625q0.328125 -0.6875 0.328125 -1.46875q0 -0.875 -0.40625 -1.5q-0.40625 -0.640625 -1.109375 -0.96875q-0.6875 -0.34375 -1.578125 -0.34375q-0.9375 0 -1.625 0.375q-0.6875 0.375 -1.0625 1.078125q-0.375 0.6875 -0.375 1.625l-2.5625 0q0 -1.59375 0.734375 -2.796875q0.734375 -1.203125 2.015625 -1.859375q1.28125 -0.671875 2.921875 -0.671875q1.65625 0 2.90625 0.65625q1.265625 0.65625 1.984375 1.78125q0.71875 1.125 0.71875 2.53125q0 0.96875 -0.359375 1.890625q-0.359375 0.90625 -1.265625 2.0625q-0.890625 1.140625 -2.515625 2.78125l-3.421875 3.578125l0 0.140625l7.828125 0l0 2.28125l-11.53125 0zm14.0703125 -3.40625l0 -2.15625l7.515625 -11.90625l1.71875 0l0 3.1875l-1.09375 0l-5.359375 8.46875l0 0.140625l10.34375 0l0 2.265625l-13.125 0zm8.25 3.40625l0 -4.046875l0.03125 -1.0l0 -12.421875l2.546875 0l0 17.46875l-2.578125 0zm20.960938 -18.28125l-5.625 20.90625l-2.3125 0l5.625 -20.90625l2.3125 0zm14.472656 18.28125l-4.3125 0l0 -2.34375l4.171875 0q1.984375 0 3.296875 -0.734375q1.3125 -0.75 1.96875 -2.171875q0.65625 -1.4375 0.65625 -3.5q0 -2.0625 -0.65625 -3.46875q-0.65625 -1.421875 -1.9375 -2.15625q-1.28125 -0.75 -3.1875 -0.75l-4.40625 0l0 -2.34375l4.578125 0q2.578125 0 4.421875 1.046875q1.84375 1.046875 2.828125 3.0q0.984375 1.953125 0.984375 4.671875q0 2.71875 -1.0 4.6875q-0.984375 1.953125 -2.875 3.015625q-1.875 1.046875 -4.53125 1.046875zm-3.0 -17.46875l0 17.46875l-2.671875 0l0 -17.46875l2.671875 0zm20.320312 17.46875l-4.3125 0l0 -2.34375l4.171875 0q1.984375 0 3.296875 -0.734375q1.3125 -0.75 1.96875 -2.171875q0.65625 -1.4375 0.65625 -3.5q0 -2.0625 -0.65625 -3.46875q-0.65625 -1.421875 -1.9375 -2.15625q-1.28125 -0.75 -3.1875 -0.75l-4.40625 0l0 -2.34375l4.578125 0q2.578125 0 4.421875 1.046875q1.84375 1.046875 2.828125 3.0q0.984375 1.953125 0.984375 4.671875q0 2.71875 -1.0 4.6875q-0.984375 1.953125 -2.875 3.015625q-1.875 1.046875 -4.53125 1.046875zm-3.0 -17.46875l0 17.46875l-2.671875 0l0 -17.46875l2.671875 0zm19.179688 17.703125q-2.4375 0 -3.9375 -1.375q-1.484375 -1.390625 -1.484375 -3.9375l0 -0.96875l2.6875 0l0 0.984375q0 1.484375 0.75 2.265625q0.75 0.765625 1.984375 0.765625q1.25 0 2.0 -0.765625q0.75 -0.78125 0.75 -2.265625l0 -12.40625l2.65625 0l0 12.375q0 2.5625 -1.484375 3.953125q-1.46875 1.375 -3.921875 1.375zm14.2578125 -0.234375l-6.328125 -17.46875l2.890625 0l3.390625 9.71875q0.375 1.125 0.859375 2.765625q0.5 1.625 1.109375 3.828125l-0.546875 0q0.609375 -2.25 1.078125 -3.859375q0.484375 -1.609375 0.84375 -2.734375l3.3125 -9.71875l2.890625 0l-6.234375 17.46875l-3.265625 0zm24.289062 0.296875q-1.953125 0 -3.40625 -0.625q-1.4375 -0.625 -2.25 -1.78125q-0.8125 -1.15625 -0.890625 -2.75l2.671875 0q0.09375 0.953125 0.625 1.578125q0.53125 0.625 1.375 0.9375q0.859375 0.296875 1.859375 0.296875q1.109375 0 1.96875 -0.34375q0.875 -0.359375 1.375 -0.984375q0.5 -0.640625 0.5 -1.484375q0 -0.765625 -0.4375 -1.25q-0.4375 -0.484375 -1.1875 -0.8125q-0.734375 -0.328125 -1.6875 -0.5625l-2.046875 -0.5625q-2.140625 -0.578125 -3.34375 -1.703125q-1.203125 -1.125 -1.203125 -2.921875q0 -1.515625 0.8125 -2.640625q0.828125 -1.125 2.21875 -1.75q1.40625 -0.640625 3.15625 -0.640625q1.796875 0 3.15625 0.640625q1.375 0.625 2.15625 1.71875q0.78125 1.078125 0.8125 2.46875l-2.609375 0q-0.125 -1.1875 -1.109375 -1.84375q-0.96875 -0.65625 -2.453125 -0.65625q-1.0625 0 -1.84375 0.328125q-0.78125 0.328125 -1.203125 0.90625q-0.421875 0.578125 -0.421875 1.3125q0 0.84375 0.5 1.359375q0.515625 0.5 1.25 0.796875q0.734375 0.296875 1.390625 0.46875l1.703125 0.453125q0.828125 0.203125 1.71875 0.5625q0.890625 0.359375 1.640625 0.9375q0.75 0.5625 1.203125 1.40625q0.46875 0.828125 0.46875 2.015625q0 1.46875 -0.765625 2.640625q-0.765625 1.15625 -2.21875 1.828125q-1.4375 0.65625 -3.484375 0.65625zm12.019531 -8.0625l0 7.765625l-2.578125 0l0 -17.46875l2.5625 0l0 7.578125l-0.34375 0q0.578125 -1.765625 1.65625 -2.5625q1.09375 -0.8125 2.640625 -0.8125q1.34375 0 2.34375 0.5625q1.0 0.5625 1.546875 1.65625q0.5625 1.09375 0.5625 2.71875l0 8.328125l-2.578125 0l0 -8.0q0 -1.421875 -0.734375 -2.21875q-0.734375 -0.796875 -2.03125 -0.796875q-0.859375 0 -1.5625 0.390625q-0.6875 0.375 -1.09375 1.109375q-0.390625 0.71875 -0.390625 1.75zm17.515625 8.03125q-1.9375 0 -3.34375 -0.828125q-1.40625 -0.828125 -2.171875 -2.34375q-0.75 -1.515625 -0.75 -3.546875q0 -2.015625 0.734375 -3.546875q0.75 -1.546875 2.109375 -2.40625q1.359375 -0.859375 3.1875 -0.859375q1.125 0 2.171875 0.375q1.046875 0.359375 1.875 1.15625q0.828125 0.78125 1.3125 2.03125q0.5 1.234375 0.5 3.015625l0 0.921875l-10.453125 0l0 -1.921875l9.125 0l-1.203125 0.625q0 -1.203125 -0.375 -2.125q-0.375 -0.921875 -1.109375 -1.4375q-0.734375 -0.515625 -1.84375 -0.515625q-1.078125 0 -1.859375 0.53125q-0.765625 0.53125 -1.171875 1.390625q-0.40625 0.859375 -0.40625 1.875l0 1.3125q0 1.359375 0.453125 2.296875q0.46875 0.921875 1.296875 1.40625q0.84375 0.46875 1.9375 0.46875q0.734375 0 1.3125 -0.203125q0.59375 -0.21875 1.015625 -0.625q0.421875 -0.421875 0.65625 -1.03125l2.421875 0.578125q-0.3125 1.0 -1.0625 1.78125q-0.75 0.765625 -1.859375 1.203125q-1.09375 0.421875 -2.5 0.421875zm8.441406 -0.265625l0 -13.109375l2.5 0l0 2.109375l0.140625 0q0.359375 -1.078125 1.265625 -1.6875q0.90625 -0.609375 2.046875 -0.609375q0.25 0 0.5625 0.03125q0.3125 0.015625 0.53125 0.046875l0 2.453125q-0.140625 -0.046875 -0.546875 -0.09375q-0.390625 -0.046875 -0.796875 -0.046875q-0.890625 0 -1.609375 0.375q-0.71875 0.375 -1.125 1.046875q-0.390625 0.65625 -0.390625 1.53125l0 7.953125l-2.578125 0zm16.15625 0.265625q-1.171875 0 -1.9375 -0.40625q-0.75 -0.40625 -1.1875 -0.9375q-0.421875 -0.546875 -0.65625 -0.96875l-0.203125 0l0 2.046875l-2.515625 0l0 -17.46875l2.578125 0l0 6.5l0.140625 0q0.234375 -0.40625 0.640625 -0.9375q0.421875 -0.546875 1.171875 -0.953125q0.75 -0.40625 1.96875 -0.40625q1.578125 0 2.8125 0.796875q1.234375 0.796875 1.953125 2.3125q0.71875 1.5 0.71875 3.640625q0 2.109375 -0.703125 3.625q-0.703125 1.515625 -1.953125 2.34375q-1.234375 0.8125 -2.828125 0.8125zm-0.5625 -2.203125q1.125 0 1.875 -0.609375q0.765625 -0.609375 1.140625 -1.640625q0.390625 -1.046875 0.390625 -2.359375q0 -1.28125 -0.390625 -2.296875q-0.375 -1.03125 -1.140625 -1.625q-0.75 -0.609375 -1.875 -0.609375q-1.109375 0 -1.875 0.578125q-0.75 0.5625 -1.140625 1.578125q-0.390625 1.015625 -0.390625 2.375q0 1.359375 0.390625 2.40625q0.390625 1.03125 1.15625 1.625q0.765625 0.578125 1.859375 0.578125zm8.8984375 1.9375l0 -13.109375l2.5 0l0 2.109375l0.140625 0q0.359375 -1.078125 1.265625 -1.6875q0.90625 -0.609375 2.046875 -0.609375q0.25 0 0.5625 0.03125q0.3125 0.015625 0.53125 0.046875l0 2.453125q-0.140625 -0.046875 -0.546875 -0.09375q-0.390625 -0.046875 -0.796875 -0.046875q-0.890625 0 -1.609375 0.375q-0.71875 0.375 -1.125 1.046875q-0.390625 0.65625 -0.390625 1.53125l0 7.953125l-2.578125 0zm14.339844 0.265625q-1.84375 0 -3.21875 -0.84375q-1.375 -0.84375 -2.140625 -2.359375q-0.765625 -1.53125 -0.765625 -3.546875q0 -2.03125 0.765625 -3.5625q0.765625 -1.53125 2.140625 -2.375q1.375 -0.84375 3.21875 -0.84375q1.84375 0 3.21875 0.84375q1.375 0.84375 2.140625 2.375q0.765625 1.53125 0.765625 3.5625q0 2.015625 -0.765625 3.546875q-0.765625 1.515625 -2.140625 2.359375q-1.375 0.84375 -3.21875 0.84375zm0 -2.171875q1.1875 0 1.96875 -0.625q0.78125 -0.640625 1.15625 -1.671875q0.390625 -1.03125 0.390625 -2.28125q0 -1.25 -0.390625 -2.296875q-0.375 -1.046875 -1.15625 -1.671875q-0.78125 -0.640625 -1.96875 -0.640625q-1.1875 0 -1.96875 0.640625q-0.765625 0.625 -1.15625 1.671875q-0.375 1.03125 -0.375 2.296875q0 1.25 0.375 2.28125q0.390625 1.03125 1.15625 1.671875q0.78125 0.625 1.96875 0.625zm14.496094 2.171875q-1.84375 0 -3.21875 -0.84375q-1.375 -0.84375 -2.140625 -2.359375q-0.765625 -1.53125 -0.765625 -3.546875q0 -2.03125 0.765625 -3.5625q0.765625 -1.53125 2.140625 -2.375q1.375 -0.84375 3.21875 -0.84375q1.84375 0 3.21875 0.84375q1.375 0.84375 2.140625 2.375q0.765625 1.53125 0.765625 3.5625q0 2.015625 -0.765625 3.546875q-0.765625 1.515625 -2.140625 2.359375q-1.375 0.84375 -3.21875 0.84375zm0 -2.171875q1.1875 0 1.96875 -0.625q0.78125 -0.640625 1.15625 -1.671875q0.390625 -1.03125 0.390625 -2.28125q0 -1.25 -0.390625 -2.296875q-0.375 -1.046875 -1.15625 -1.671875q-0.78125 -0.640625 -1.96875 -0.640625q-1.1875 0 -1.96875 0.640625q-0.765625 0.625 -1.15625 1.671875q-0.375 1.03125 -0.375 2.296875q0 1.25 0.375 2.28125q0.390625 1.03125 1.15625 1.671875q0.78125 0.625 1.96875 0.625zm11.355469 -2.515625l0 -3.15625l0.4375 0l5.171875 -5.53125l3.09375 0l-5.921875 6.34375l-0.4375 0l-2.34375 2.34375zm-2.375 4.421875l0 -17.46875l2.578125 0l0 17.46875l-2.578125 0zm8.25 0l-4.65625 -6.1875l1.78125 -1.828125l6.0625 8.015625l-3.1875 0zm10.285156 0.265625q-1.9375 0 -3.34375 -0.828125q-1.40625 -0.828125 -2.171875 -2.34375q-0.75 -1.515625 -0.75 -3.546875q0 -2.015625 0.734375 -3.546875q0.75 -1.546875 2.109375 -2.40625q1.359375 -0.859375 3.1875 -0.859375q1.125 0 2.171875 0.375q1.046875 0.359375 1.875 1.15625q0.828125 0.78125 1.3125 2.03125q0.5 1.234375 0.5 3.015625l0 0.921875l-10.453125 0l0 -1.921875l9.125 0l-1.203125 0.625q0 -1.203125 -0.375 -2.125q-0.375 -0.921875 -1.109375 -1.4375q-0.734375 -0.515625 -1.84375 -0.515625q-1.078125 0 -1.859375 0.53125q-0.765625 0.53125 -1.171875 1.390625q-0.40625 0.859375 -0.40625 1.875l0 1.3125q0 1.359375 0.453125 2.296875q0.46875 0.921875 1.296875 1.40625q0.84375 0.46875 1.9375 0.46875q0.734375 0 1.3125 -0.203125q0.59375 -0.21875 1.015625 -0.625q0.421875 -0.421875 0.65625 -1.03125l2.421875 0.578125q-0.3125 1.0 -1.0625 1.78125q-0.75 0.765625 -1.859375 1.203125q-1.09375 0.421875 -2.5 0.421875z" fill-rule="nonzero"/></g></svg>