<svg version="1.1" viewBox="0.0 0.0 960.0 540.0" fill="none" stroke="none" stroke-linecap="square" stroke-miterlimit="10" xmlns:xlink="http://www.w3.org/1999/xlink" xmlns="http://www.w3.org/2000/svg"><clipPath id="g32244467e64_57_20.0"><path d="m0 0l960.0 0l0 540.0l-960.0 0l0 -540.0z" clip-rule="nonzero"/></clipPath><g clip-path="url(#g32244467e64_57_20.0)"><path fill="#ffffff" d="m0 0l960.0 0l0 540.0l-960.0 0z" fill-rule="evenodd"/><path fill="#000000" fill-opacity="0.0" d="m32.72441 99.71654l894.55115 0l0 316.28345l-894.55115 0z" fill-rule="evenodd"/><path fill="#000000" d="m392.08746 172.71654l0 -48.5l15.234375 0l7.875 22.265625q0.484375 1.5625 1.125 4.046875q0.640625 2.46875 1.28125 5.328125q0.65625 2.859375 1.21875 5.5625q0.578125 2.703125 0.9375 4.6875l-1.921875 0q0.359375 -1.953125 0.921875 -4.640625q0.578125 -2.6875 1.21875 -5.546875q0.65625 -2.859375 1.28125 -5.359375q0.640625 -2.515625 1.125 -4.078125l7.75 -22.265625l15.296875 0l0 48.5l-9.984375 0l0 -22.875q0 -1.5625 0.0625 -3.9375q0.0625 -2.375 0.125 -5.125q0.0625 -2.75 0.125 -5.53125q0.078125 -2.796875 0.109375 -5.265625l0.609375 0q-0.609375 2.703125 -1.359375 5.59375q-0.75 2.875 -1.515625 5.578125q-0.765625 2.6875 -1.453125 4.953125q-0.671875 2.265625 -1.171875 3.734375l-8.03125 22.875l-8.359375 0l-8.171875 -22.875q-0.5 -1.46875 -1.1875 -3.6875q-0.671875 -2.234375 -1.4375 -4.9375q-0.765625 -2.703125 -1.546875 -5.578125q-0.78125 -2.890625 -1.5 -5.65625l0.78125 0q0.03125 2.34375 0.09375 5.109375q0.078125 2.765625 0.15625 5.546875q0.078125 2.78125 0.125 5.171875q0.046875 2.390625 0.046875 4.03125l0 22.875l-9.859375 0zm78.31842 0.71875q-5.578125 0 -9.609375 -2.28125q-4.03125 -2.28125 -6.203125 -6.46875q-2.15625 -4.203125 -2.15625 -9.96875q0 -5.625 2.140625 -9.859375q2.15625 -4.234375 6.09375 -6.609375q3.9375 -2.375 9.234375 -2.375q3.578125 0 6.671875 1.140625q3.09375 1.140625 5.4375 3.4375q2.34375 2.296875 3.65625 5.75q1.328125 3.4375 1.328125 8.125l0 2.734375l-30.5625 0l0 -6.125l25.78125 0l-4.5625 1.640625q0 -2.84375 -0.859375 -4.9375q-0.859375 -2.09375 -2.578125 -3.25q-1.703125 -1.15625 -4.25 -1.15625q-2.5 0 -4.28125 1.171875q-1.765625 1.171875 -2.6875 3.171875q-0.90625 2.0 -0.90625 4.578125l0 4.328125q0 3.15625 1.0625 5.3125q1.0625 2.140625 2.953125 3.21875q1.90625 1.0625 4.453125 1.0625q1.71875 0 3.109375 -0.484375q1.40625 -0.484375 2.40625 -1.4375q1.0 -0.96875 1.515625 -2.375l8.84375 1.65625q-0.875 3.0 -3.0625 5.265625q-2.171875 2.265625 -5.453125 3.5q-3.265625 1.234375 -7.515625 1.234375zm23.269836 -0.71875l0 -36.390625l9.4375 0l0 6.34375l0.390625 0q1.0 -3.375 3.359375 -5.09375q2.359375 -1.734375 5.421875 -1.734375q0.75 0 1.609375 0.078125q0.859375 0.078125 1.546875 0.25l0 8.71875q-0.65625 -0.234375 -1.890625 -0.359375q-1.234375 -0.125 -2.34375 -0.125q-2.203125 0 -4.0 0.96875q-1.78125 0.953125 -2.78125 2.65625q-0.984375 1.703125 -0.984375 3.984375l0 20.703125l-9.765625 0zm41.782227 0.71875q-5.5 0 -9.484375 -2.359375q-3.984375 -2.359375 -6.15625 -6.578125q-2.15625 -4.21875 -2.15625 -9.8125q0 -5.65625 2.15625 -9.875q2.171875 -4.21875 6.15625 -6.578125q3.984375 -2.359375 9.484375 -2.359375q3.21875 0 5.953125 0.84375q2.734375 0.84375 4.84375 2.40625q2.125 1.5625 3.484375 3.8125q1.375 2.25 1.890625 5.046875l-9.078125 1.6875q-0.296875 -1.421875 -0.921875 -2.546875q-0.609375 -1.125 -1.484375 -1.921875q-0.875 -0.796875 -2.03125 -1.21875q-1.15625 -0.421875 -2.5625 -0.421875q-2.59375 0 -4.375 1.40625q-1.765625 1.390625 -2.671875 3.90625q-0.890625 2.5 -0.890625 5.78125q0 3.25 0.890625 5.75q0.90625 2.484375 2.671875 3.921875q1.78125 1.421875 4.375 1.421875q1.40625 0 2.578125 -0.4375q1.171875 -0.4375 2.078125 -1.265625q0.921875 -0.828125 1.53125 -2.0q0.625 -1.171875 0.875 -2.640625l9.09375 1.65625q-0.53125 2.90625 -1.90625 5.171875q-1.359375 2.25 -3.484375 3.890625q-2.109375 1.625 -4.859375 2.46875q-2.75 0.84375 -6.0 0.84375zm22.953491 -0.71875l0 -36.390625l9.765625 0l0 36.390625l-9.765625 0zm4.875 -41.140625q-2.203125 0 -3.765625 -1.453125q-1.5625 -1.46875 -1.5625 -3.5625q0 -2.078125 1.5625 -3.53125q1.5625 -1.46875 3.765625 -1.46875q2.21875 0 3.796875 1.453125q1.578125 1.4375 1.578125 3.546875q0 2.09375 -1.578125 3.5625q-1.578125 1.453125 -3.796875 1.453125z" fill-rule="nonzero"/><path fill="#000000" d="m309.92188 235.24966q-3.03125 0 -5.453125 -1.5625q-2.421875 -1.5625 -3.828125 -4.578125q-1.40625 -3.015625 -1.40625 -7.375q0 -4.46875 1.453125 -7.46875q1.453125 -3.0 3.859375 -4.5q2.421875 -1.5 5.328125 -1.5q2.21875 0 3.6875 0.75q1.484375 0.75 2.390625 1.859375q0.921875 1.09375 1.375 2.125l0.234375 0l0 -13.125l7.03125 0l0 34.921875l-6.921875 0l0 -4.203125l-0.34375 0q-0.46875 1.0625 -1.40625 2.125q-0.921875 1.0625 -2.40625 1.796875q-1.46875 0.734375 -3.59375 0.734375zm2.15625 -5.65625q1.78125 0 3.046875 -0.984375q1.265625 -0.984375 1.921875 -2.75q0.65625 -1.78125 0.65625 -4.140625q0 -2.390625 -0.65625 -4.140625q-0.640625 -1.75 -1.90625 -2.71875q-1.265625 -0.96875 -3.0625 -0.96875q-1.859375 0 -3.109375 1.015625q-1.25 1.0 -1.890625 2.765625q-0.625 1.75 -0.625 4.046875q0 2.296875 0.640625 4.078125q0.640625 1.78125 1.890625 2.796875q1.265625 1.0 3.09375 1.0zm30.351562 5.71875q-4.015625 0 -6.921875 -1.640625q-2.90625 -1.640625 -4.46875 -4.65625q-1.546875 -3.03125 -1.546875 -7.1875q0 -4.046875 1.546875 -7.09375q1.546875 -3.046875 4.375 -4.75q2.84375 -1.71875 6.65625 -1.71875q2.578125 0 4.796875 0.828125q2.234375 0.8125 3.921875 2.46875q1.6875 1.640625 2.640625 4.125q0.953125 2.484375 0.953125 5.859375l0 1.96875l-22.015625 0l0 -4.40625l18.5625 0l-3.28125 1.171875q0 -2.03125 -0.625 -3.546875q-0.609375 -1.515625 -1.84375 -2.34375q-1.234375 -0.828125 -3.0625 -0.828125q-1.796875 0 -3.078125 0.84375q-1.28125 0.84375 -1.9375 2.28125q-0.65625 1.4375 -0.65625 3.296875l0 3.109375q0 2.28125 0.765625 3.828125q0.765625 1.546875 2.125 2.328125q1.375 0.765625 3.203125 0.765625q1.25 0 2.25 -0.34375q1.015625 -0.359375 1.71875 -1.046875q0.71875 -0.703125 1.09375 -1.703125l6.375 1.1875q-0.625 2.15625 -2.203125 3.796875q-1.5625 1.625 -3.921875 2.515625q-2.359375 0.890625 -5.421875 0.890625zm35.507812 -0.515625l-9.65625 -26.203125l7.46875 0l4.40625 13.59375q0.796875 2.546875 1.390625 5.15625q0.609375 2.59375 1.234375 5.390625l-1.5 0q0.609375 -2.796875 1.1875 -5.390625q0.59375 -2.609375 1.390625 -5.15625l4.359375 -13.59375l7.390625 0l-9.6875 26.203125l-7.984375 0zm32.242188 0.515625q-3.9375 0 -6.828125 -1.703125q-2.875 -1.703125 -4.4375 -4.734375q-1.546875 -3.03125 -1.546875 -7.0625q0 -4.078125 1.546875 -7.109375q1.5625 -3.046875 4.4375 -4.734375q2.890625 -1.703125 6.828125 -1.703125q3.96875 0 6.828125 1.703125q2.875 1.6875 4.4375 4.734375q1.5625 3.03125 1.5625 7.109375q0 4.03125 -1.5625 7.0625q-1.5625 3.03125 -4.4375 4.734375q-2.859375 1.703125 -6.828125 1.703125zm0 -5.53125q1.875 0 3.140625 -1.046875q1.265625 -1.046875 1.890625 -2.859375q0.640625 -1.8125 0.640625 -4.09375q0 -2.3125 -0.640625 -4.109375q-0.625 -1.8125 -1.890625 -2.84375q-1.265625 -1.03125 -3.140625 -1.03125q-1.875 0 -3.125 1.03125q-1.25 1.03125 -1.890625 2.84375q-0.625 1.796875 -0.625 4.109375q0 2.28125 0.625 4.09375q0.640625 1.8125 1.890625 2.859375q1.25 1.046875 3.125 1.046875zm30.734375 -21.1875l0 5.359375l-15.546875 0l0 -5.359375l15.546875 0zm-11.9375 -6.234375l7.03125 0l0 24.765625q0 1.25 0.546875 1.84375q0.5625 0.59375 1.84375 0.59375q0.40625 0 1.125 -0.09375q0.734375 -0.109375 1.109375 -0.203125l1.0 5.265625q-1.171875 0.359375 -2.328125 0.5q-1.15625 0.140625 -2.21875 0.140625q-3.9375 0 -6.03125 -1.921875q-2.078125 -1.921875 -2.078125 -5.515625l0 -25.375zm16.5 32.4375l0 -26.203125l6.796875 0l0 4.5625l0.28125 0q0.734375 -2.4375 2.421875 -3.671875q1.703125 -1.25 3.90625 -1.25q0.546875 0 1.15625 0.0625q0.625 0.0625 1.125 0.171875l0 6.28125q-0.46875 -0.15625 -1.359375 -0.25q-0.890625 -0.09375 -1.6875 -0.09375q-1.59375 0 -2.890625 0.6875q-1.28125 0.6875 -2.0 1.921875q-0.71875 1.234375 -0.71875 2.875l0 14.90625l-7.03125 0zm30.21875 0.515625q-4.015625 0 -6.921875 -1.640625q-2.90625 -1.640625 -4.46875 -4.65625q-1.546875 -3.03125 -1.546875 -7.1875q0 -4.046875 1.546875 -7.09375q1.546875 -3.046875 4.375 -4.75q2.84375 -1.71875 6.65625 -1.71875q2.578125 0 4.796875 0.828125q2.234375 0.8125 3.921875 2.46875q1.6875 1.640625 2.640625 4.125q0.953125 2.484375 0.953125 5.859375l0 1.96875l-22.015625 0l0 -4.40625l18.5625 0l-3.28125 1.171875q0 -2.03125 -0.625 -3.546875q-0.609375 -1.515625 -1.84375 -2.34375q-1.234375 -0.828125 -3.0625 -0.828125q-1.796875 0 -3.078125 0.84375q-1.28125 0.84375 -1.9375 2.28125q-0.65625 1.4375 -0.65625 3.296875l0 3.109375q0 2.28125 0.765625 3.828125q0.765625 1.546875 2.125 2.328125q1.375 0.765625 3.203125 0.765625q1.25 0 2.25 -0.34375q1.015625 -0.359375 1.71875 -1.046875q0.71875 -0.703125 1.09375 -1.703125l6.375 1.1875q-0.625 2.15625 -2.203125 3.796875q-1.5625 1.625 -3.921875 2.515625q-2.359375 0.890625 -5.421875 0.890625zm39.960938 0q-4.015625 0 -6.921875 -1.640625q-2.90625 -1.640625 -4.46875 -4.65625q-1.546875 -3.03125 -1.546875 -7.1875q0 -4.046875 1.546875 -7.09375q1.546875 -3.046875 4.375 -4.75q2.84375 -1.71875 6.65625 -1.71875q2.578125 0 4.796875 0.828125q2.234375 0.8125 3.921875 2.46875q1.6875 1.640625 2.640625 4.125q0.953125 2.484375 0.953125 5.859375l0 1.96875l-22.015625 0l0 -4.40625l18.5625 0l-3.28125 1.171875q0 -2.03125 -0.625 -3.546875q-0.609375 -1.515625 -1.84375 -2.34375q-1.234375 -0.828125 -3.0625 -0.828125q-1.796875 0 -3.078125 0.84375q-1.28125 0.84375 -1.9375 2.28125q-0.65625 1.4375 -0.65625 3.296875l0 3.109375q0 2.28125 0.765625 3.828125q0.765625 1.546875 2.125 2.328125q1.375 0.765625 3.203125 0.765625q1.25 0 2.25 -0.34375q1.015625 -0.359375 1.71875 -1.046875q0.71875 -0.703125 1.09375 -1.703125l6.375 1.1875q-0.625 2.15625 -2.203125 3.796875q-1.5625 1.625 -3.921875 2.515625q-2.359375 0.890625 -5.421875 0.890625zm-3.015625 -30.046875l3.25 -7.296875l6.515625 0l-4.84375 7.296875l-4.921875 0zm31.484375 30.046875q-3.953125 0 -6.828125 -1.703125q-2.875 -1.703125 -4.4375 -4.734375q-1.546875 -3.03125 -1.546875 -7.0625q0 -4.078125 1.546875 -7.109375q1.5625 -3.046875 4.4375 -4.734375q2.875 -1.703125 6.828125 -1.703125q2.328186 0 4.296936 0.609375q1.96875 0.609375 3.484375 1.734375q1.53125 1.125 2.515625 2.75q0.984375 1.609375 1.359375 3.625l-6.546875 1.21875q-0.203125 -1.03125 -0.65625 -1.84375q-0.4375 -0.8125 -1.078125 -1.375q-0.625 -0.578125 -1.46875 -0.875q-0.828125 -0.3125 -1.828186 -0.3125q-1.875 0 -3.15625 1.015625q-1.28125 1.0 -1.921875 2.8125q-0.640625 1.796875 -0.640625 4.15625q0 2.34375 0.640625 4.140625q0.640625 1.796875 1.921875 2.828125q1.28125 1.03125 3.15625 1.03125q1.000061 0 1.843811 -0.3125q0.84375 -0.328125 1.5 -0.921875q0.65625 -0.59375 1.09375 -1.4375q0.453125 -0.84375 0.640625 -1.90625l6.546875 1.203125q-0.375 2.078125 -1.359375 3.71875q-0.984375 1.625 -2.515625 2.796875q-1.515625 1.171875 -3.5 1.78125q-1.984375 0.609375 -4.328186 0.609375zm28.242249 0q-3.9375 0 -6.828125 -1.703125q-2.875 -1.703125 -4.4375 -4.734375q-1.546875 -3.03125 -1.546875 -7.0625q0 -4.078125 1.546875 -7.109375q1.5625 -3.046875 4.4375 -4.734375q2.890625 -1.703125 6.828125 -1.703125q3.96875 0 6.828125 1.703125q2.875 1.6875 4.4375 4.734375q1.5625 3.03125 1.5625 7.109375q0 4.03125 -1.5625 7.0625q-1.5625 3.03125 -4.4375 4.734375q-2.859375 1.703125 -6.828125 1.703125zm0 -5.53125q1.875 0 3.140625 -1.046875q1.265625 -1.046875 1.890625 -2.859375q0.640625 -1.8125 0.640625 -4.09375q0 -2.3125 -0.640625 -4.109375q-0.625 -1.8125 -1.890625 -2.84375q-1.265625 -1.03125 -3.140625 -1.03125q-1.875 0 -3.125 1.03125q-1.25 1.03125 -1.890625 2.84375q-0.625 1.796875 -0.625 4.109375q0 2.28125 0.625 4.09375q0.640625 1.8125 1.890625 2.859375q1.25 1.046875 3.125 1.046875zm26.75 5.34375q-2.71875 0 -4.765625 -1.1875q-2.03125 -1.1875 -3.15625 -3.390625q-1.109375 -2.21875 -1.109375 -5.296875l0 -16.65625l7.03125 0l0 15.4375q0 2.4375 1.265625 3.828125q1.265625 1.375 3.46875 1.375q1.5 0 2.640625 -0.640625q1.15625 -0.640625 1.796875 -1.875q0.65625 -1.234375 0.65625 -2.96875l0 -15.15625l7.03125 0l0 26.203125l-6.640625 0l-0.09375 -6.546875l0.40625 0q-1.03125 3.3125 -3.15625 5.09375q-2.125 1.78125 -5.375 1.78125zm33.867188 -26.53125l0 5.359375l-15.546875 0l0 -5.359375l15.546875 0zm-11.9375 -6.234375l7.03125 0l0 24.765625q0 1.25 0.546875 1.84375q0.5625 0.59375 1.84375 0.59375q0.40625 0 1.125 -0.09375q0.734375 -0.109375 1.109375 -0.203125l1.0 5.265625q-1.171875 0.359375 -2.328125 0.5q-1.15625 0.140625 -2.21875 0.140625q-3.9375 0 -6.03125 -1.921875q-2.078125 -1.921875 -2.078125 -5.515625l0 -25.375zm27.875 32.953125q-4.015625 0 -6.921875 -1.640625q-2.90625 -1.640625 -4.46875 -4.65625q-1.546875 -3.03125 -1.546875 -7.1875q0 -4.046875 1.546875 -7.09375q1.546875 -3.046875 4.375 -4.75q2.84375 -1.71875 6.65625 -1.71875q2.578125 0 4.796875 0.828125q2.234375 0.8125 3.921875 2.46875q1.6875 1.640625 2.640625 4.125q0.953125 2.484375 0.953125 5.859375l0 1.96875l-22.015625 0l0 -4.40625l18.5625 0l-3.28125 1.171875q0 -2.03125 -0.625 -3.546875q-0.609375 -1.515625 -1.84375 -2.34375q-1.234375 -0.828125 -3.0625 -0.828125q-1.796875 0 -3.078125 0.84375q-1.28125 0.84375 -1.9375 2.28125q-0.65625 1.4375 -0.65625 3.296875l0 3.109375q0 2.28125 0.765625 3.828125q0.765625 1.546875 2.125 2.328125q1.375 0.765625 3.203125 0.765625q1.25 0 2.25 -0.34375q1.015625 -0.359375 1.71875 -1.046875q0.71875 -0.703125 1.09375 -1.703125l6.375 1.1875q-0.625 2.15625 -2.203125 3.796875q-1.5625 1.625 -3.921875 2.515625q-2.359375 0.890625 -5.421875 0.890625z" fill-rule="nonzero"/><path fill="#595959" d="m486.5371 270.49777l0 4.203125l-13.09375 0l0 -4.203125l13.09375 0z" fill-rule="nonzero"/><path fill="#595959" d="m371.23828 332.71652l0 -29.109375l5.890625 0l10.0625 16.046875q0.625 0.984375 1.328125 2.25q0.703125 1.265625 1.453125 2.8125q0.765625 1.546875 1.515625 3.453125l-0.59375 0q-0.125 -1.640625 -0.234375 -3.375q-0.109375 -1.734375 -0.15625 -3.28125q-0.046875 -1.546875 -0.046875 -2.625l0 -15.28125l5.28125 0l0 29.109375l-5.90625 0l-9.09375 -14.4375q-0.859375 -1.390625 -1.625 -2.734375q-0.75 -1.34375 -1.640625 -3.046875q-0.875 -1.703125 -2.125 -4.09375l0.75 0q0.109375 2.125 0.203125 4.03125q0.109375 1.90625 0.171875 3.40625q0.078125 1.5 0.078125 2.421875l0 14.453125l-5.3125 0zm39.777344 0.453125q-3.296875 0 -5.671875 -1.390625q-2.375 -1.390625 -3.65625 -3.90625q-1.28125 -2.515625 -1.28125 -5.9375q0 -3.375 1.265625 -5.90625q1.265625 -2.546875 3.578125 -3.984375q2.3125 -1.4375 5.4375 -1.4375q1.984375 0 3.796875 0.640625q1.8125 0.640625 3.203125 2.0q1.390625 1.34375 2.1875 3.421875q0.796875 2.078125 0.796875 4.953125l0 1.59375l-17.859375 0l0 -3.453125l15.328125 0l-2.375 1.015625q0 -1.828125 -0.578125 -3.21875q-0.5625 -1.40625 -1.6875 -2.1875q-1.109375 -0.78125 -2.796875 -0.78125q-1.671875 0 -2.84375 0.796875q-1.171875 0.78125 -1.796875 2.109375q-0.609375 1.3125 -0.609375 2.9375l0 2.375q0 2.078125 0.703125 3.5q0.703125 1.421875 1.96875 2.15625q1.265625 0.71875 2.953125 0.71875q1.109375 0 2.015625 -0.328125q0.90625 -0.328125 1.5625 -0.953125q0.671875 -0.640625 1.015625 -1.5625l4.65625 0.96875q-0.515625 1.75 -1.796875 3.078125q-1.265625 1.3125 -3.171875 2.046875q-1.90625 0.734375 -4.34375 0.734375zm19.089844 -29.5625l0 29.109375l-5.078125 0l0 -29.109375l5.078125 0zm10.46875 0l0 29.109375l-5.078125 0l0 -29.109375l5.078125 0zm14.390625 4.40625l0 -4.40625l23.15625 0l0 4.40625l-8.953125 0l0 24.703125l-5.21875 0l0 -24.703125l-8.984375 0zm25.21875 24.703125l0 -21.84375l4.921875 0l0 3.65625l0.234375 0q0.578125 -1.890625 2.046875 -2.90625q1.46875 -1.03125 3.34375 -1.03125q0.421875 0 0.953125 0.046875q0.53125 0.03125 0.890625 0.078125l0 4.671875q-0.3125 -0.09375 -1.015625 -0.171875q-0.703125 -0.078125 -1.375 -0.078125q-1.40625 0 -2.53125 0.609375q-1.125 0.59375 -1.765625 1.671875q-0.625 1.0625 -0.625 2.4375l0 12.859375l-5.078125 0zm23.347656 0.28125q-2.234375 0 -3.9375 -0.953125q-1.6875 -0.96875 -2.609375 -2.8125q-0.921875 -1.84375 -0.921875 -4.46875l0 -13.890625l5.078125 0l0 13.109375q0 2.1875 1.140625 3.4375q1.140625 1.25 3.125 1.25q1.359375 0 2.40625 -0.578125q1.0625 -0.59375 1.65625 -1.71875q0.59375 -1.140625 0.59375 -2.703125l0 -12.796875l5.09375 0l0 21.84375l-4.828125 0l-0.046875 -5.390625l0.390625 0q-0.921875 2.84375 -2.71875 4.265625q-1.796875 1.40625 -4.421875 1.40625zm26.492188 0.171875q-3.1875 0 -5.53125 -1.421875q-2.34375 -1.421875 -3.625 -3.9375q-1.28125 -2.53125 -1.28125 -5.890625q0 -3.40625 1.28125 -5.953125q1.28125 -2.546875 3.625 -3.953125q2.34375 -1.40625 5.53125 -1.40625q3.203125 0 5.546875 1.40625q2.34375 1.40625 3.625 3.953125q1.28125 2.546875 1.28125 5.953125q0 3.359375 -1.28125 5.890625q-1.28125 2.515625 -3.625 3.9375q-2.34375 1.421875 -5.546875 1.421875zm0 -4.125q1.78125 0 2.953125 -0.953125q1.1875 -0.96875 1.765625 -2.578125q0.578125 -1.625 0.578125 -3.625q0 -2.0 -0.578125 -3.625q-0.578125 -1.625 -1.765625 -2.578125q-1.171875 -0.953125 -2.953125 -0.953125q-1.78125 0 -2.953125 0.953125q-1.15625 0.953125 -1.734375 2.5625q-0.5625 1.609375 -0.5625 3.640625q0 2.0 0.5625 3.625q0.578125 1.609375 1.734375 2.578125q1.171875 0.953125 2.953125 0.953125zm19.964905 -9.125l0 12.796875l-5.078125 0l0 -21.84375l4.796875 0l0.078125 5.390625l-0.40625 0q0.921875 -2.828125 2.6875 -4.234375q1.78125 -1.421875 4.453125 -1.421875q2.25 0 3.921875 0.953125q1.6875 0.953125 2.609375 2.796875q0.9375 1.828125 0.9375 4.46875l0 13.890625l-5.078125 0l0 -13.109375q0 -2.1875 -1.140625 -3.4375q-1.125 -1.25 -3.125 -1.25q-1.34375 0 -2.40625 0.59375q-1.046875 0.578125 -1.65625 1.703125q-0.59375 1.125 -0.59375 2.703125zm28.800781 21.4375q-2.609375 0 -4.5625 -0.671875q-1.9375 -0.65625 -3.1875 -1.8125q-1.234375 -1.140625 -1.78125 -2.578125l4.296875 -1.546875q0.359375 0.609375 0.96875 1.25q0.609375 0.640625 1.640625 1.0625q1.03125 0.421875 2.609375 0.421875q2.359375 0 3.78125 -1.109375q1.4375 -1.09375 1.4375 -3.4375l0 -4.125l-0.4375 0q-0.375 0.78125 -1.09375 1.609375q-0.71875 0.828125 -1.9375 1.40625q-1.21875 0.5625 -3.125 0.5625q-2.5 0 -4.546875 -1.1875q-2.03125 -1.1875 -3.234375 -3.546875q-1.203125 -2.359375 -1.203125 -5.921875q0 -3.59375 1.203125 -6.0625q1.21875 -2.484375 3.265625 -3.765625q2.046875 -1.296875 4.5625 -1.296875q1.9375 0 3.1875 0.640625q1.25 0.640625 1.984375 1.5625q0.75 0.90625 1.140625 1.6875l0.265625 0l0 -3.625l4.984375 0l0 21.90625q0 2.90625 -1.328125 4.8125q-1.328125 1.90625 -3.640625 2.828125q-2.296875 0.9375 -5.25 0.9375zm0.046875 -12.984375q1.65625 0 2.796875 -0.78125q1.15625 -0.796875 1.765625 -2.296875q0.609375 -1.5 0.609375 -3.59375q0 -2.078125 -0.59375 -3.625q-0.59375 -1.546875 -1.75 -2.421875q-1.15625 -0.875 -2.828125 -0.875q-1.71875 0 -2.890625 0.921875q-1.15625 0.90625 -1.75 2.453125q-0.578125 1.546875 -0.578125 3.546875q0 2.015625 0.59375 3.515625q0.59375 1.5 1.75 2.328125q1.171875 0.828125 2.875 0.828125z" fill-rule="nonzero"/><path fill="#000000" fill-opacity="0.0" d="m32.72441 448.0l348.28345 0l0 162.99213l-348.28345 0z" fill-rule="evenodd"/><path fill="#595959" d="m49.115036 480.30563q-1.9375 0 -3.34375 -0.828125q-1.40625 -0.828125 -2.171875 -2.34375q-0.75 -1.515625 -0.75 -3.546875q0 -2.015625 0.734375 -3.546875q0.75 -1.546875 2.109375 -2.40625q1.359375 -0.859375 3.1875 -0.859375q1.125 0 2.171875 0.375q1.046875 0.359375 1.875 1.15625q0.828125 0.78125 1.3125 2.03125q0.5 1.234375 0.5 3.015625l0 0.921875l-10.453125 0l0 -1.921875l9.125 0l-1.203125 0.625q0 -1.203125 -0.375 -2.125q-0.375 -0.921875 -1.109375 -1.4375q-0.734375 -0.515625 -1.84375 -0.515625q-1.078125 0 -1.859375 0.53125q-0.765625 0.53125 -1.171875 1.390625q-0.40625 0.859375 -0.40625 1.875l0 1.3125q0 1.359375 0.453125 2.296875q0.46875 0.921875 1.296875 1.40625q0.84375 0.46875 1.9375 0.46875q0.734375 0 1.3125 -0.203125q0.59375 -0.21875 1.015625 -0.625q0.421875 -0.421875 0.65625 -1.03125l2.421875 0.578125q-0.3125 1.0 -1.0625 1.78125q-0.75 0.765625 -1.859375 1.203125q-1.09375 0.421875 -2.5 0.421875zm8.441406 -0.265625l0 -13.109375l2.453125 0l0.0625 3.046875l-0.1875 0q0.28125 -1.125 0.859375 -1.828125q0.59375 -0.71875 1.375 -1.078125q0.78125 -0.359375 1.640625 -0.359375q1.421875 0 2.296875 0.890625q0.890625 0.875 1.1875 2.46875l-0.328125 0q0.265625 -1.078125 0.890625 -1.828125q0.640625 -0.75 1.53125 -1.140625q0.90625 -0.390625 1.921875 -0.390625q1.15625 0 2.09375 0.515625q0.953125 0.5 1.5 1.5q0.546875 0.984375 0.546875 2.46875l0 8.84375l-2.578125 0l0 -8.578125q0 -1.3125 -0.734375 -1.890625q-0.71875 -0.59375 -1.71875 -0.59375q-0.8125 0 -1.40625 0.34375q-0.578125 0.328125 -0.890625 0.9375q-0.3125 0.609375 -0.3125 1.390625l0 8.390625l-2.546875 0l0 -8.75q0 -1.046875 -0.671875 -1.671875q-0.671875 -0.640625 -1.71875 -0.640625q-0.71875 0 -1.34375 0.34375q-0.609375 0.328125 -0.984375 0.984375q-0.359375 0.640625 -0.359375 1.59375l0 8.140625l-2.578125 0zm24.988281 0.296875q-1.25 0 -2.265625 -0.46875q-1.0 -0.46875 -1.59375 -1.359375q-0.578125 -0.890625 -0.578125 -2.171875q0 -1.109375 0.421875 -1.828125q0.4375 -0.71875 1.171875 -1.140625q0.734375 -0.421875 1.625 -0.625q0.90625 -0.21875 1.828125 -0.328125q1.15625 -0.140625 1.875 -0.21875q0.734375 -0.09375 1.078125 -0.296875q0.34375 -0.203125 0.34375 -0.65625l0 -0.078125q0 -0.734375 -0.28125 -1.234375q-0.28125 -0.515625 -0.84375 -0.78125q-0.546875 -0.28125 -1.375 -0.28125q-0.859375 0 -1.484375 0.265625q-0.609375 0.265625 -0.984375 0.671875q-0.375 0.40625 -0.5625 0.859375l-2.4375 -0.640625q0.453125 -1.171875 1.28125 -1.875q0.828125 -0.71875 1.90625 -1.046875q1.078125 -0.328125 2.234375 -0.328125q0.796875 0 1.6875 0.1875q0.890625 0.1875 1.671875 0.6875q0.78125 0.484375 1.265625 1.375q0.5 0.890625 0.5 2.3125l0 8.703125l-2.484375 0l0 -1.796875l-0.140625 0q-0.25 0.5 -0.765625 0.984375q-0.5 0.484375 -1.265625 0.796875q-0.765625 0.3125 -1.828125 0.3125zm0.578125 -2.078125q1.046875 0 1.796875 -0.40625q0.75 -0.421875 1.140625 -1.09375q0.40625 -0.6875 0.40625 -1.4375l0 -1.6875q-0.140625 0.140625 -0.53125 0.265625q-0.390625 0.109375 -0.90625 0.203125q-0.5 0.078125 -0.96875 0.140625q-0.46875 0.046875 -0.765625 0.09375q-0.734375 0.09375 -1.34375 0.3125q-0.59375 0.21875 -0.953125 0.640625q-0.359375 0.40625 -0.359375 1.078125q0 0.625 0.328125 1.046875q0.328125 0.421875 0.875 0.640625q0.546875 0.203125 1.28125 0.203125zm9.378906 1.78125l0 -13.109375l2.578125 0l0 13.109375l-2.578125 0zm1.296875 -15.109375q-0.65625 0 -1.140625 -0.4375q-0.46875 -0.453125 -0.46875 -1.078125q0 -0.65625 0.46875 -1.09375q0.484375 -0.453125 1.140625 -0.453125q0.671875 0 1.15625 0.453125q0.484375 0.4375 0.484375 1.09375q0 0.625 -0.484375 1.078125q-0.484375 0.4375 -1.15625 0.4375zm7.328125 -2.359375l0 17.46875l-2.578125 0l0 -17.46875l2.578125 0zm5.375 17.640625q-0.71875 0 -1.234375 -0.5q-0.5 -0.5 -0.5 -1.21875q0 -0.734375 0.5 -1.21875q0.515625 -0.5 1.234375 -0.5q0.71875 0 1.21875 0.5q0.515625 0.484375 0.515625 1.21875q0 0.71875 -0.515625 1.21875q-0.5 0.5 -1.21875 0.5zm0 -9.21875q-0.71875 0 -1.234375 -0.5q-0.5 -0.5 -0.5 -1.21875q0 -0.734375 0.5 -1.21875q0.515625 -0.5 1.234375 -0.5q0.71875 0 1.21875 0.5q0.515625 0.484375 0.515625 1.21875q0 0.71875 -0.515625 1.21875q-0.5 0.5 -1.21875 0.5zm14.347656 1.28125l0 7.765625l-2.578125 0l0 -13.109375l2.46875 0l0.015625 3.21875l-0.265625 0q0.578125 -1.765625 1.65625 -2.5625q1.09375 -0.8125 2.640625 -0.8125q1.34375 0 2.328125 0.5625q1.0 0.5625 1.5625 1.65625q0.5625 1.09375 0.5625 2.71875l0 8.328125l-2.578125 0l0 -8.0q0 -1.421875 -0.734375 -2.21875q-0.734375 -0.796875 -2.03125 -0.796875q-0.859375 0 -1.5625 0.390625q-0.6875 0.375 -1.09375 1.109375q-0.390625 0.71875 -0.390625 1.75zm17.515625 8.03125q-1.9375 0 -3.34375 -0.828125q-1.40625 -0.828125 -2.171875 -2.34375q-0.75 -1.515625 -0.75 -3.546875q0 -2.015625 0.734375 -3.546875q0.75 -1.546875 2.109375 -2.40625q1.359375 -0.859375 3.1875 -0.859375q1.125 0 2.171875 0.375q1.046875 0.359375 1.875 1.15625q0.828125 0.78125 1.3125 2.03125q0.5 1.234375 0.5 3.015625l0 0.921875l-10.453125 0l0 -1.921875l9.125 0l-1.203125 0.625q0 -1.203125 -0.375 -2.125q-0.375 -0.921875 -1.109375 -1.4375q-0.734375 -0.515625 -1.84375 -0.515625q-1.078125 0 -1.859375 0.53125q-0.765625 0.53125 -1.171875 1.390625q-0.40625 0.859375 -0.40625 1.875l0 1.3125q0 1.359375 0.453125 2.296875q0.46875 0.921875 1.296875 1.40625q0.84375 0.46875 1.9375 0.46875q0.734375 0 1.3125 -0.203125q0.59375 -0.21875 1.015625 -0.625q0.421875 -0.421875 0.65625 -1.03125l2.421875 0.578125q-0.3125 1.0 -1.0625 1.78125q-0.75 0.765625 -1.859375 1.203125q-1.09375 0.421875 -2.5 0.421875zm11.019531 -17.734375l0 17.46875l-2.578125 0l0 -17.46875l2.578125 0zm6.046875 0l0 17.46875l-2.578125 0l0 -17.46875l2.578125 0zm14.046875 22.234375q-2.640625 0 -4.6875 -0.734375q-2.046875 -0.71875 -3.453125 -2.109375q-1.40625 -1.390625 -2.125 -3.40625q-0.71875 -2.03125 -0.71875 -4.640625q0 -2.5 0.71875 -4.5q0.71875 -2.015625 2.109375 -3.4375q1.390625 -1.4375 3.390625 -2.1875q2.0 -0.765625 4.5625 -0.765625q2.453125 0 4.34375 0.78125q1.890625 0.765625 3.1875 2.109375q1.296875 1.34375 1.953125 3.078125q0.671875 1.71875 0.671875 3.609375q0 1.328125 -0.171875 2.59375q-0.171875 1.265625 -0.640625 2.28125q-0.46875 1.015625 -1.3125 1.625q-0.84375 0.59375 -2.1875 0.59375q-0.65625 0 -1.359375 -0.1875q-0.703125 -0.203125 -1.21875 -0.625q-0.515625 -0.4375 -0.625 -1.15625l-0.09375 0q-0.3125 0.796875 -1.140625 1.359375q-0.828125 0.5625 -2.171875 0.5625q-1.5625 0 -2.640625 -0.75q-1.078125 -0.765625 -1.640625 -2.078125q-0.546875 -1.328125 -0.546875 -3.015625q0 -1.625 0.625 -2.890625q0.640625 -1.265625 1.75 -1.984375q1.125 -0.734375 2.5625 -0.734375q1.125 0 1.90625 0.40625q0.78125 0.40625 1.109375 0.921875l0.109375 0l0 -1.046875l2.046875 0l0 7.78125q0 0.65625 0.34375 1.125q0.359375 0.453125 1.03125 0.453125q0.8125 0 1.265625 -0.546875q0.453125 -0.5625 0.625 -1.6875q0.1875 -1.140625 0.1875 -2.921875q0 -1.546875 -0.5 -2.921875q-0.484375 -1.375 -1.46875 -2.4375q-0.984375 -1.0625 -2.484375 -1.671875q-1.484375 -0.609375 -3.5 -0.609375q-2.015625 0 -3.609375 0.609375q-1.59375 0.59375 -2.6875 1.75q-1.078125 1.140625 -1.65625 2.796875q-0.5625 1.65625 -0.5625 3.734375q0 2.125 0.5625 3.78125q0.578125 1.640625 1.703125 2.765625q1.125 1.125 2.765625 1.703125q1.65625 0.59375 3.8125 0.59375q0.9375 0 1.828125 -0.171875q0.890625 -0.15625 1.59375 -0.375q0.71875 -0.21875 1.109375 -0.359375l0.640625 1.90625q-0.546875 0.234375 -1.421875 0.46875q-0.859375 0.25 -1.890625 0.40625q-1.015625 0.15625 -2.0 0.15625zm-0.796875 -7.1875q1.078125 0 1.75 -0.421875q0.6875 -0.4375 1.0 -1.296875q0.3125 -0.875 0.3125 -2.171875q0 -1.3125 -0.34375 -2.0625q-0.328125 -0.765625 -1.015625 -1.078125q-0.671875 -0.328125 -1.65625 -0.328125q-0.9375 0 -1.609375 0.46875q-0.65625 0.46875 -1.015625 1.25q-0.34375 0.78125 -0.34375 1.75q0 1.03125 0.296875 1.921875q0.296875 0.890625 0.9375 1.4375q0.640625 0.53125 1.6875 0.53125zm16.375 -5.34375l0 7.765625l-2.578125 0l0 -13.109375l2.46875 0l0.015625 3.21875l-0.265625 0q0.578125 -1.765625 1.65625 -2.5625q1.09375 -0.8125 2.640625 -0.8125q1.34375 0 2.328125 0.5625q1.0 0.5625 1.5625 1.65625q0.5625 1.09375 0.5625 2.71875l0 8.328125l-2.578125 0l0 -8.0q0 -1.421875 -0.734375 -2.21875q-0.734375 -0.796875 -2.03125 -0.796875q-0.859375 0 -1.5625 0.390625q-0.6875 0.375 -1.09375 1.109375q-0.390625 0.71875 -0.390625 1.75zm17.515625 8.03125q-1.9375 0 -3.34375 -0.828125q-1.40625 -0.828125 -2.171875 -2.34375q-0.75 -1.515625 -0.75 -3.546875q0 -2.015625 0.734375 -3.546875q0.75 -1.546875 2.109375 -2.40625q1.359375 -0.859375 3.1875 -0.859375q1.125 0 2.171875 0.375q1.046875 0.359375 1.875 1.15625q0.828125 0.78125 1.3125 2.03125q0.5 1.234375 0.5 3.015625l0 0.921875l-10.453125 0l0 -1.921875l9.125 0l-1.203125 0.625q0 -1.203125 -0.375 -2.125q-0.375 -0.921875 -1.109375 -1.4375q-0.734375 -0.515625 -1.84375 -0.515625q-1.078125 0 -1.859375 0.53125q-0.765625 0.53125 -1.171875 1.390625q-0.40625 0.859375 -0.40625 1.875l0 1.3125q0 1.359375 0.453125 2.296875q0.46875 0.921875 1.296875 1.40625q0.84375 0.46875 1.9375 0.46875q0.734375 0 1.3125 -0.203125q0.59375 -0.21875 1.015625 -0.625q0.421875 -0.421875 0.65625 -1.03125l2.421875 0.578125q-0.3125 1.0 -1.0625 1.78125q-0.75 0.765625 -1.859375 1.203125q-1.09375 0.421875 -2.5 0.421875zm14.050781 -13.375l0 2.109375l-7.109375 0l0 -2.109375l7.109375 0zm-5.203125 -3.109375l2.578125 0l0 12.671875q0 0.796875 0.328125 1.171875q0.34375 0.359375 1.109375 0.359375q0.203125 0 0.53125 -0.046875q0.328125 -0.046875 0.5625 -0.09375l0.453125 2.0625q-0.40625 0.140625 -0.875 0.203125q-0.46875 0.0625 -0.9375 0.0625q-1.78125 0 -2.765625 -0.921875q-0.984375 -0.921875 -0.984375 -2.578125l0 -12.890625zm8.277344 16.21875l7.59375 -15.03125l0 -0.140625l-8.78125 0l0 -2.296875l11.578125 0l0 2.390625l-7.59375 15.078125l-2.796875 0zm12.1015625 0.171875q-0.71875 0 -1.234375 -0.5q-0.5 -0.5 -0.5 -1.21875q0 -0.734375 0.5 -1.21875q0.515625 -0.5 1.234375 -0.5q0.71875 0 1.21875 0.5q0.515625 0.484375 0.515625 1.21875q0 0.71875 -0.515625 1.21875q-0.5 0.5 -1.21875 0.5zm10.246094 0.09375q-1.59375 0 -2.84375 -0.8125q-1.234375 -0.828125 -1.9375 -2.34375q-0.703125 -1.515625 -0.703125 -3.625q0 -2.140625 0.71875 -3.640625q0.71875 -1.515625 1.953125 -2.3125q1.25 -0.796875 2.8125 -0.796875q1.21875 0 1.953125 0.40625q0.75 0.40625 1.171875 0.953125q0.421875 0.53125 0.65625 0.9375l0.140625 0l0 -6.5l2.578125 0l0 17.46875l-2.515625 0l0 -2.046875l-0.203125 0q-0.234375 0.421875 -0.671875 0.96875q-0.421875 0.53125 -1.171875 0.9375q-0.75 0.40625 -1.9375 0.40625zm0.5625 -2.203125q1.109375 0 1.859375 -0.578125q0.75 -0.59375 1.140625 -1.625q0.40625 -1.046875 0.40625 -2.40625q0 -1.359375 -0.390625 -2.375q-0.390625 -1.015625 -1.15625 -1.578125q-0.75 -0.578125 -1.859375 -0.578125q-1.140625 0 -1.890625 0.609375q-0.75 0.59375 -1.140625 1.625q-0.375 1.015625 -0.375 2.296875q0 1.3125 0.375 2.359375q0.390625 1.03125 1.15625 1.640625q0.765625 0.609375 1.875 0.609375zm15.054672 2.203125q-1.9374847 0 -3.3437347 -0.828125q-1.40625 -0.828125 -2.171875 -2.34375q-0.75 -1.515625 -0.75 -3.546875q0 -2.015625 0.734375 -3.546875q0.75 -1.546875 2.109375 -2.40625q1.359375 -0.859375 3.1874847 -0.859375q1.125 0 2.171875 0.375q1.046875 0.359375 1.875 1.15625q0.828125 0.78125 1.3125 2.03125q0.5 1.234375 0.5 3.015625l0 0.921875l-10.45311 0l0 -1.921875l9.124985 0l-1.203125 0.625q0 -1.203125 -0.375 -2.125q-0.375 -0.921875 -1.109375 -1.4375q-0.734375 -0.515625 -1.84375 -0.515625q-1.078125 0 -1.8593597 0.53125q-0.765625 0.53125 -1.171875 1.390625q-0.40625 0.859375 -0.40625 1.875l0 1.3125q0 1.359375 0.453125 2.296875q0.46875 0.921875 1.296875 1.40625q0.84373474 0.46875 1.9374847 0.46875q0.734375 0 1.3125 -0.203125q0.59375 -0.21875 1.015625 -0.625q0.421875 -0.421875 0.65625 -1.03125l2.421875 0.578125q-0.3125 1.0 -1.0625 1.78125q-0.75 0.765625 -1.859375 1.203125q-1.09375 0.421875 -2.5 0.421875zm11.734375 -0.265625l-4.9375 -13.109375l2.78125 0l2.59375 7.453125q0.4375 1.21875 0.734375 2.46875q0.3125 1.234375 0.640625 2.453125l-0.765625 0q0.328125 -1.21875 0.625 -2.453125q0.3125 -1.25 0.734375 -2.46875l2.59375 -7.453125l2.765625 0l-4.953125 13.109375l-2.8125 0z" fill-rule="nonzero"/><path fill="#000000" fill-opacity="0.0" d="m426.99213 448.0l500.28345 0l0 48.472443l-500.28345 0z" fill-rule="evenodd"/><path fill="#595959" d="m482.2092 480.27438q-2.265625 0 -4.046875 -1.0625q-1.78125 -1.078125 -2.796875 -3.09375q-1.015625 -2.015625 -1.015625 -4.796875q0 -2.796875 1.015625 -4.8125q1.015625 -2.015625 2.796875 -3.09375q1.78125 -1.078125 4.046875 -1.078125q1.390625 0 2.59375 0.40625q1.21875 0.390625 2.171875 1.15625q0.953125 0.765625 1.578125 1.859375q0.625 1.078125 0.859375 2.46875l-2.6875 0q-0.171875 -0.828125 -0.59375 -1.46875q-0.40625 -0.640625 -1.0 -1.078125q-0.59375 -0.453125 -1.34375 -0.671875q-0.734375 -0.234375 -1.546875 -0.234375q-1.5 0 -2.703125 0.765625q-1.1875 0.75 -1.875 2.21875q-0.671875 1.453125 -0.671875 3.5625q0 2.109375 0.6875 3.578125q0.703125 1.453125 1.875 2.203125q1.1875 0.734375 2.6875 0.734375q0.8125 0 1.546875 -0.21875q0.734375 -0.234375 1.328125 -0.671875q0.609375 -0.453125 1.015625 -1.09375q0.421875 -0.640625 0.59375 -1.46875l2.6875 0q-0.1875 1.296875 -0.796875 2.375q-0.609375 1.0625 -1.5625 1.859375q-0.953125 0.796875 -2.1875 1.234375q-1.21875 0.421875 -2.65625 0.421875zm15.3359375 -0.234375l-6.328125 -17.46875l2.890625 0l3.390625 9.71875q0.375 1.125 0.859375 2.765625q0.5 1.625 1.109375 3.828125l-0.546875 0q0.609375 -2.25 1.078125 -3.859375q0.484375 -1.609375 0.84375 -2.734375l3.3125 -9.71875l2.890625 0l-6.234375 17.46875l-3.265625 0zm12.234375 0.171875q-0.71875 0 -1.234375 -0.5q-0.5 -0.5 -0.5 -1.21875q0 -0.734375 0.5 -1.21875q0.515625 -0.5 1.234375 -0.5q0.71875 0 1.21875 0.5q0.515625 0.484375 0.515625 1.21875q0 0.71875 -0.515625 1.21875q-0.5 0.5 -1.21875 0.5zm0 -9.21875q-0.71875 0 -1.234375 -0.5q-0.5 -0.5 -0.5 -1.21875q0 -0.734375 0.5 -1.21875q0.515625 -0.5 1.234375 -0.5q0.71875 0 1.21875 0.5q0.515625 0.484375 0.515625 1.21875q0 0.71875 -0.515625 1.21875q-0.5 0.5 -1.21875 0.5zm14.347626 1.28125l0 7.765625l-2.578125 0l0 -13.109375l2.46875 0l0.015625 3.21875l-0.265625 0q0.578125 -1.765625 1.65625 -2.5625q1.09375 -0.8125 2.640625 -0.8125q1.34375 0 2.328125 0.5625q1.0 0.5625 1.5625 1.65625q0.5625 1.09375 0.5625 2.71875l0 8.328125l-2.578125 0l0 -8.0q0 -1.421875 -0.734375 -2.21875q-0.734375 -0.796875 -2.03125 -0.796875q-0.859375 0 -1.5625 0.390625q-0.6875 0.375 -1.09375 1.109375q-0.390625 0.71875 -0.390625 1.75zm17.515625 8.03125q-1.9375 0 -3.34375 -0.828125q-1.40625 -0.828125 -2.171875 -2.34375q-0.75 -1.515625 -0.75 -3.546875q0 -2.015625 0.734375 -3.546875q0.75 -1.546875 2.109375 -2.40625q1.359375 -0.859375 3.1875 -0.859375q1.125 0 2.171875 0.375q1.046875 0.359375 1.875 1.15625q0.828125 0.78125 1.3125 2.03125q0.5 1.234375 0.5 3.015625l0 0.921875l-10.453125 0l0 -1.921875l9.125 0l-1.203125 0.625q0 -1.203125 -0.375 -2.125q-0.375 -0.921875 -1.109375 -1.4375q-0.734375 -0.515625 -1.84375 -0.515625q-1.078125 0 -1.859375 0.53125q-0.765625 0.53125 -1.171875 1.390625q-0.40625 0.859375 -0.40625 1.875l0 1.3125q0 1.359375 0.453125 2.296875q0.46875 0.921875 1.296875 1.40625q0.84375 0.46875 1.9375 0.46875q0.734375 0 1.3125 -0.203125q0.59375 -0.21875 1.015625 -0.625q0.421875 -0.421875 0.65625 -1.03125l2.421875 0.578125q-0.3125 1.0 -1.0625 1.78125q-0.75 0.765625 -1.859375 1.203125q-1.09375 0.421875 -2.5 0.421875zm11.019531 -17.734375l0 17.46875l-2.578125 0l0 -17.46875l2.578125 0zm6.046875 0l0 17.46875l-2.578125 0l0 -17.46875l2.578125 0zm9.4296875 4.359375l0 2.109375l-7.109375 0l0 -2.109375l7.109375 0zm-5.203125 -3.109375l2.578125 0l0 12.671875q0 0.796875 0.328125 1.171875q0.34375 0.359375 1.109375 0.359375q0.203125 0 0.53125 -0.046875q0.328125 -0.046875 0.5625 -0.09375l0.453125 2.0625q-0.40625 0.140625 -0.875 0.203125q-0.46875 0.0625 -0.9375 0.0625q-1.78125 0 -2.765625 -0.921875q-0.984375 -0.921875 -0.984375 -2.578125l0 -12.890625zm7.7617188 16.21875l0 -13.109375l2.5 0l0 2.109375l0.140625 0q0.359375 -1.078125 1.265625 -1.6875q0.90625 -0.609375 2.046875 -0.609375q0.25 0 0.5625 0.03125q0.3125 0.015625 0.53125 0.046875l0 2.453125q-0.140625 -0.046875 -0.546875 -0.09375q-0.390625 -0.046875 -0.796875 -0.046875q-0.890625 0 -1.609375 0.375q-0.71875 0.375 -1.125 1.046875q-0.390625 0.65625 -0.390625 1.53125l0 7.953125l-2.578125 0zm13.75 0.171875q-1.34375 0 -2.359375 -0.5625q-1.0 -0.578125 -1.5625 -1.671875q-0.546875 -1.109375 -0.546875 -2.71875l0 -8.328125l2.578125 0l0 8.015625q0 1.40625 0.734375 2.203125q0.75 0.796875 2.03125 0.796875q0.875 0 1.5625 -0.375q0.6875 -0.375 1.078125 -1.109375q0.40625 -0.734375 0.40625 -1.765625l0 -7.765625l2.578125 0l0 13.109375l-2.453125 0l-0.015625 -3.21875l0.25 0q-0.578125 1.78125 -1.6875 2.59375q-1.09375 0.796875 -2.59375 0.796875zm15.484375 0.09375q-1.84375 0 -3.21875 -0.84375q-1.375 -0.84375 -2.140625 -2.359375q-0.765625 -1.53125 -0.765625 -3.546875q0 -2.03125 0.765625 -3.5625q0.765625 -1.53125 2.140625 -2.375q1.375 -0.84375 3.21875 -0.84375q1.84375 0 3.21875 0.84375q1.375 0.84375 2.140625 2.375q0.765625 1.53125 0.765625 3.5625q0 2.015625 -0.765625 3.546875q-0.765625 1.515625 -2.140625 2.359375q-1.375 0.84375 -3.21875 0.84375zm0 -2.171875q1.1875 0 1.96875 -0.625q0.78125 -0.640625 1.15625 -1.671875q0.390625 -1.03125 0.390625 -2.28125q0 -1.25 -0.390625 -2.296875q-0.375 -1.046875 -1.15625 -1.671875q-0.78125 -0.640625 -1.96875 -0.640625q-1.1875 0 -1.96875 0.640625q-0.765625 0.625 -1.15625 1.671875q-0.375 1.03125 -0.375 2.296875q0 1.25 0.375 2.28125q0.390625 1.03125 1.15625 1.671875q0.78125 0.625 1.96875 0.625zm11.558594 -5.859375l0 7.765625l-2.578125 0l0 -13.109375l2.46875 0l0.015625 3.21875l-0.265625 0q0.578125 -1.765625 1.65625 -2.5625q1.09375 -0.8125 2.640625 -0.8125q1.34375 0 2.328125 0.5625q1.0 0.5625 1.5625 1.65625q0.5625 1.09375 0.5625 2.71875l0 8.328125l-2.578125 0l0 -8.0q0 -1.421875 -0.734375 -2.21875q-0.734375 -0.796875 -2.03125 -0.796875q-0.859375 0 -1.5625 0.390625q-0.6875 0.375 -1.09375 1.109375q-0.390625 0.71875 -0.390625 1.75zm17.328125 12.953125q-1.5 0 -2.625 -0.390625q-1.109375 -0.390625 -1.828125 -1.03125q-0.71875 -0.640625 -1.09375 -1.4375l2.15625 -1.015625q0.234375 0.375 0.625 0.78125q0.390625 0.421875 1.0625 0.71875q0.671875 0.296875 1.703125 0.296875q1.5 0 2.4375 -0.71875q0.9375 -0.703125 0.9375 -2.21875l0 -2.546875l-0.234375 0q-0.234375 0.421875 -0.65625 0.9375q-0.40625 0.5 -1.15625 0.875q-0.734375 0.359375 -1.9375 0.359375q-1.546875 0 -2.78125 -0.71875q-1.234375 -0.734375 -1.96875 -2.15625q-0.71875 -1.4375 -0.71875 -3.515625q0 -2.09375 0.71875 -3.578125q0.71875 -1.5 1.96875 -2.296875q1.25 -0.796875 2.828125 -0.796875q1.203125 0 1.953125 0.40625q0.765625 0.390625 1.1875 0.9375q0.421875 0.546875 0.65625 0.953125l0.1875 0l0 -2.140625l2.515625 0l0 13.296875q0 1.71875 -0.78125 2.828125q-0.78125 1.109375 -2.125 1.640625q-1.34375 0.53125 -3.03125 0.53125zm0 -7.53125q1.09375 0 1.84375 -0.5q0.765625 -0.515625 1.140625 -1.484375q0.390625 -0.96875 0.390625 -2.3125q0 -1.3125 -0.390625 -2.3125q-0.375 -1.0 -1.140625 -1.5625q-0.75 -0.5625 -1.84375 -0.5625q-1.140625 0 -1.90625 0.59375q-0.765625 0.59375 -1.15625 1.59375q-0.375 1.0 -0.375 2.25q0 1.28125 0.375 2.25q0.390625 0.96875 1.15625 1.515625q0.78125 0.53125 1.90625 0.53125zm11.308594 2.515625q-0.71875 0 -1.234375 -0.5q-0.5 -0.5 -0.5 -1.21875q0 -0.734375 0.5 -1.21875q0.515625 -0.5 1.234375 -0.5q0.71875 0 1.21875 0.5q0.515625 0.484375 0.515625 1.21875q0 0.71875 -0.515625 1.21875q-0.5 0.5 -1.21875 0.5zm10.246094 0.09375q-1.59375 0 -2.84375 -0.8125q-1.234375 -0.828125 -1.9375 -2.34375q-0.703125 -1.515625 -0.703125 -3.625q0 -2.140625 0.71875 -3.640625q0.71875 -1.515625 1.953125 -2.3125q1.25 -0.796875 2.8125 -0.796875q1.21875 0 1.953125 0.40625q0.75 0.40625 1.171875 0.953125q0.421875 0.53125 0.65625 0.9375l0.140625 0l0 -6.5l2.578125 0l0 17.46875l-2.515625 0l0 -2.046875l-0.203125 0q-0.234375 0.421875 -0.671875 0.96875q-0.421875 0.53125 -1.171875 0.9375q-0.75 0.40625 -1.9375 0.40625zm0.5625 -2.203125q1.109375 0 1.859375 -0.578125q0.75 -0.59375 1.140625 -1.625q0.40625 -1.046875 0.40625 -2.40625q0 -1.359375 -0.390625 -2.375q-0.390625 -1.015625 -1.15625 -1.578125q-0.75 -0.578125 -1.859375 -0.578125q-1.140625 0 -1.890625 0.609375q-0.75 0.59375 -1.140625 1.625q-0.375 1.015625 -0.375 2.296875q0 1.3125 0.375 2.359375q0.390625 1.03125 1.15625 1.640625q0.765625 0.609375 1.875 0.609375zm15.0546875 2.203125q-1.9375 0 -3.34375 -0.828125q-1.40625 -0.828125 -2.171875 -2.34375q-0.75 -1.515625 -0.75 -3.546875q0 -2.015625 0.734375 -3.546875q0.75 -1.546875 2.109375 -2.40625q1.359375 -0.859375 3.1875 -0.859375q1.125 0 2.171875 0.375q1.046875 0.359375 1.875 1.15625q0.828125 0.78125 1.3125 2.03125q0.5 1.234375 0.5 3.015625l0 0.921875l-10.453125 0l0 -1.921875l9.125 0l-1.203125 0.625q0 -1.203125 -0.375 -2.125q-0.375 -0.921875 -1.109375 -1.4375q-0.734375 -0.515625 -1.84375 -0.515625q-1.078125 0 -1.859375 0.53125q-0.765625 0.53125 -1.171875 1.390625q-0.40625 0.859375 -0.40625 1.875l0 1.3125q0 1.359375 0.453125 2.296875q0.46875 0.921875 1.296875 1.40625q0.84375 0.46875 1.9375 0.46875q0.734375 0 1.3125 -0.203125q0.59375 -0.21875 1.015625 -0.625q0.421875 -0.421875 0.65625 -1.03125l2.421875 0.578125q-0.3125 1.0 -1.0625 1.78125q-0.75 0.765625 -1.859375 1.203125q-1.09375 0.421875 -2.5 0.421875zm11.734375 -0.265625l-4.9375 -13.109375l2.78125 0l2.59375 7.453125q0.4375 1.21875 0.734375 2.46875q0.3125 1.234375 0.640625 2.453125l-0.765625 0q0.328125 -1.21875 0.625 -2.453125q0.3125 -1.25 0.734375 -2.46875l2.59375 -7.453125l2.765625 0l-4.953125 13.109375l-2.8125 0zm15.355469 -18.28125l-5.625 20.90625l-2.3125 0l5.625 -20.90625l2.3125 0zm7.0742188 18.546875q-1.59375 0 -2.84375 -0.8125q-1.234375 -0.828125 -1.9375 -2.34375q-0.703125 -1.515625 -0.703125 -3.625q0 -2.140625 0.71875 -3.640625q0.71875 -1.515625 1.953125 -2.3125q1.25 -0.796875 2.8125 -0.796875q1.21875 0 1.953125 0.40625q0.75 0.40625 1.171875 0.953125q0.421875 0.53125 0.65625 0.9375l0.140625 0l0 -6.5l2.578125 0l0 17.46875l-2.515625 0l0 -2.046875l-0.203125 0q-0.234375 0.421875 -0.671875 0.96875q-0.421875 0.53125 -1.171875 0.9375q-0.75 0.40625 -1.9375 0.40625zm0.5625 -2.203125q1.109375 0 1.859375 -0.578125q0.75 -0.59375 1.140625 -1.625q0.40625 -1.046875 0.40625 -2.40625q0 -1.359375 -0.390625 -2.375q-0.390625 -1.015625 -1.15625 -1.578125q-0.75 -0.578125 -1.859375 -0.578125q-1.140625 0 -1.890625 0.609375q-0.75 0.59375 -1.140625 1.625q-0.375 1.015625 -0.375 2.296875q0 1.3125 0.375 2.359375q0.390625 1.03125 1.15625 1.640625q0.765625 0.609375 1.875 0.609375zm14.9140625 2.203125q-1.84375 0 -3.21875 -0.84375q-1.375 -0.84375 -2.140625 -2.359375q-0.765625 -1.53125 -0.765625 -3.546875q0 -2.03125 0.765625 -3.5625q0.765625 -1.53125 2.140625 -2.375q1.375 -0.84375 3.21875 -0.84375q1.84375 0 3.21875 0.84375q1.375 0.84375 2.140625 2.375q0.765625 1.53125 0.765625 3.5625q0 2.015625 -0.765625 3.546875q-0.765625 1.515625 -2.140625 2.359375q-1.375 0.84375 -3.21875 0.84375zm0 -2.171875q1.1875 0 1.96875 -0.625q0.78125 -0.640625 1.15625 -1.671875q0.390625 -1.03125 0.390625 -2.28125q0 -1.25 -0.390625 -2.296875q-0.375 -1.046875 -1.15625 -1.671875q-0.78125 -0.640625 -1.96875 -0.640625q-1.1875 0 -1.96875 0.640625q-0.765625 0.625 -1.15625 1.671875q-0.375 1.03125 -0.375 2.296875q0 1.25 0.375 2.28125q0.390625 1.03125 1.15625 1.671875q0.78125 0.625 1.96875 0.625zm14.496094 2.171875q-1.859375 0 -3.234375 -0.84375q-1.359375 -0.84375 -2.125 -2.359375q-0.765625 -1.53125 -0.765625 -3.546875q0 -2.03125 0.765625 -3.5625q0.765625 -1.53125 2.125 -2.375q1.375 -0.84375 3.234375 -0.84375q1.015625 0 1.90625 0.265625q0.890625 0.265625 1.609375 0.765625q0.71875 0.484375 1.21875 1.21875q0.5 0.71875 0.75 1.609375l-2.453125 0.59375q-0.125 -0.5 -0.40625 -0.921875q-0.265625 -0.421875 -0.65625 -0.71875q-0.375 -0.3125 -0.875 -0.46875q-0.484375 -0.171875 -1.09375 -0.171875q-1.171875 0 -1.953125 0.640625q-0.78125 0.625 -1.171875 1.671875q-0.375 1.03125 -0.375 2.296875q0 1.25 0.375 2.296875q0.390625 1.03125 1.171875 1.65625q0.78125 0.625 1.953125 0.625q0.609375 0 1.109375 -0.171875q0.515625 -0.171875 0.90625 -0.484375q0.40625 -0.3125 0.671875 -0.75q0.265625 -0.4375 0.390625 -0.96875l2.4375 0.59375q-0.234375 0.921875 -0.75 1.65625q-0.5 0.734375 -1.21875 1.25q-0.71875 0.515625 -1.625 0.78125q-0.890625 0.265625 -1.921875 0.265625zm13.0390625 0q-1.421875 0 -2.53125 -0.40625q-1.109375 -0.40625 -1.8125 -1.203125q-0.703125 -0.8125 -0.9375 -1.96875l2.421875 -0.515625q0.265625 1.03125 1.0 1.53125q0.75 0.484375 1.875 0.484375q1.25 0 1.984375 -0.515625q0.734375 -0.53125 0.734375 -1.265625q0 -0.625 -0.453125 -1.03125q-0.4375 -0.421875 -1.375 -0.609375l-2.203125 -0.515625q-1.828125 -0.40625 -2.71875 -1.296875q-0.890625 -0.90625 -0.890625 -2.3125q0 -1.171875 0.65625 -2.046875q0.65625 -0.890625 1.78125 -1.375q1.140625 -0.484375 2.625 -0.484375q1.421875 0 2.421875 0.40625q1.015625 0.40625 1.640625 1.15625q0.625 0.734375 0.90625 1.703125l-2.3125 0.5q-0.25 -0.6875 -0.859375 -1.203125q-0.609375 -0.53125 -1.765625 -0.53125q-1.0625 0 -1.78125 0.484375q-0.71875 0.484375 -0.71875 1.21875q0 0.65625 0.46875 1.0625q0.484375 0.40625 1.5625 0.65625l2.109375 0.46875q1.8125 0.40625 2.6875 1.28125q0.890625 0.875 0.890625 2.25q0 1.203125 -0.6875 2.125q-0.6875 0.90625 -1.90625 1.4375q-1.203125 0.515625 -2.8125 0.515625zm14.894531 -18.546875l-5.625 20.90625l-2.3125 0l5.625 -20.90625l2.3125 0zm2.1992188 18.28125l0 -13.109375l2.5 0l0 2.109375l0.140625 0q0.359375 -1.078125 1.265625 -1.6875q0.90625 -0.609375 2.046875 -0.609375q0.25 0 0.5625 0.03125q0.3125 0.015625 0.53125 0.046875l0 2.453125q-0.140625 -0.046875 -0.546875 -0.09375q-0.390625 -0.046875 -0.796875 -0.046875q-0.890625 0 -1.609375 0.375q-0.71875 0.375 -1.125 1.046875q-0.390625 0.65625 -0.390625 1.53125l0 7.953125l-2.578125 0zm14.480469 0.265625q-1.9375 0 -3.34375 -0.828125q-1.40625 -0.828125 -2.171875 -2.34375q-0.75 -1.515625 -0.75 -3.546875q0 -2.015625 0.734375 -3.546875q0.75 -1.546875 2.109375 -2.40625q1.359375 -0.859375 3.1875 -0.859375q1.125 0 2.171875 0.375q1.046875 0.359375 1.875 1.15625q0.828125 0.78125 1.3125 2.03125q0.5 1.234375 0.5 3.015625l0 0.921875l-10.453125 0l0 -1.921875l9.125 0l-1.203125 0.625q0 -1.203125 -0.375 -2.125q-0.375 -0.921875 -1.109375 -1.4375q-0.734375 -0.515625 -1.84375 -0.515625q-1.078125 0 -1.859375 0.53125q-0.765625 0.53125 -1.171875 1.390625q-0.40625 0.859375 -0.40625 1.875l0 1.3125q0 1.359375 0.453125 2.296875q0.46875 0.921875 1.296875 1.40625q0.84375 0.46875 1.9375 0.46875q0.734375 0 1.3125 -0.203125q0.59375 -0.21875 1.015625 -0.625q0.421875 -0.421875 0.65625 -1.03125l2.421875 0.578125q-0.3125 1.0 -1.0625 1.78125q-0.75 0.765625 -1.859375 1.203125q-1.09375 0.421875 -2.5 0.421875zm13.144531 0q-1.421875 0 -2.53125 -0.40625q-1.109375 -0.40625 -1.8125 -1.203125q-0.703125 -0.8125 -0.9375 -1.96875l2.421875 -0.515625q0.265625 1.03125 1.0 1.53125q0.75 0.484375 1.875 0.484375q1.25 0 1.984375 -0.515625q0.734375 -0.53125 0.734375 -1.265625q0 -0.625 -0.453125 -1.03125q-0.4375 -0.421875 -1.375 -0.609375l-2.203125 -0.515625q-1.828125 -0.40625 -2.71875 -1.296875q-0.890625 -0.90625 -0.890625 -2.3125q0 -1.171875 0.65625 -2.046875q0.65625 -0.890625 1.78125 -1.375q1.140625 -0.484375 2.625 -0.484375q1.421875 0 2.421875 0.40625q1.015625 0.40625 1.640625 1.15625q0.625 0.734375 0.90625 1.703125l-2.3125 0.5q-0.25 -0.6875 -0.859375 -1.203125q-0.609375 -0.53125 -1.765625 -0.53125q-1.0625 0 -1.78125 0.484375q-0.71875 0.484375 -0.71875 1.21875q0 0.65625 0.46875 1.0625q0.484375 0.40625 1.5625 0.65625l2.109375 0.46875q1.8125 0.40625 2.6875 1.28125q0.890625 0.875 0.890625 2.25q0 1.203125 -0.6875 2.125q-0.6875 0.90625 -1.90625 1.4375q-1.203125 0.515625 -2.8125 0.515625zm12.691406 -0.09375q-1.34375 0 -2.359375 -0.5625q-1.0 -0.578125 -1.5625 -1.671875q-0.546875 -1.109375 -0.546875 -2.71875l0 -8.328125l2.578125 0l0 8.015625q0 1.40625 0.734375 2.203125q0.75 0.796875 2.03125 0.796875q0.875 0 1.5625 -0.375q0.6875 -0.375 1.078125 -1.109375q0.40625 -0.734375 0.40625 -1.765625l0 -7.765625l2.578125 0l0 13.109375l-2.453125 0l-0.015625 -3.21875l0.25 0q-0.578125 1.78125 -1.6875 2.59375q-1.09375 0.796875 -2.59375 0.796875zm9.96875 -0.171875l0 -13.109375l2.453125 0l0.0625 3.046875l-0.1875 0q0.28125 -1.125 0.859375 -1.828125q0.59375 -0.71875 1.375 -1.078125q0.78125 -0.359375 1.640625 -0.359375q1.421875 0 2.296875 0.890625q0.890625 0.875 1.1875 2.46875l-0.328125 0q0.265625 -1.078125 0.890625 -1.828125q0.640625 -0.75 1.53125 -1.140625q0.90625 -0.390625 1.921875 -0.390625q1.15625 0 2.09375 0.515625q0.953125 0.5 1.5 1.5q0.546875 0.984375 0.546875 2.46875l0 8.84375l-2.578125 0l0 -8.578125q0 -1.3125 -0.734375 -1.890625q-0.71875 -0.59375 -1.71875 -0.59375q-0.8125 0 -1.40625 0.34375q-0.578125 0.328125 -0.890625 0.9375q-0.3125 0.609375 -0.3125 1.390625l0 8.390625l-2.546875 0l0 -8.75q0 -1.046875 -0.671875 -1.671875q-0.671875 -0.640625 -1.71875 -0.640625q-0.71875 0 -1.34375 0.34375q-0.609375 0.328125 -0.984375 0.984375q-0.359375 0.640625 -0.359375 1.59375l0 8.140625l-2.578125 0zm26.972656 0.265625q-1.9375 0 -3.34375 -0.828125q-1.40625 -0.828125 -2.171875 -2.34375q-0.75 -1.515625 -0.75 -3.546875q0 -2.015625 0.734375 -3.546875q0.75 -1.546875 2.109375 -2.40625q1.359375 -0.859375 3.1875 -0.859375q1.125 0 2.171875 0.375q1.046875 0.359375 1.875 1.15625q0.828125 0.78125 1.3125 2.03125q0.5 1.234375 0.5 3.015625l0 0.921875l-10.453125 0l0 -1.921875l9.125 0l-1.203125 0.625q0 -1.203125 -0.375 -2.125q-0.375 -0.921875 -1.109375 -1.4375q-0.734375 -0.515625 -1.84375 -0.515625q-1.078125 0 -1.859375 0.53125q-0.765625 0.53125 -1.171875 1.390625q-0.40625 0.859375 -0.40625 1.875l0 1.3125q0 1.359375 0.453125 2.296875q0.46875 0.921875 1.296875 1.40625q0.84375 0.46875 1.9375 0.46875q0.734375 0 1.3125 -0.203125q0.59375 -0.21875 1.015625 -0.625q0.421875 -0.421875 0.65625 -1.03125l2.421875 0.578125q-0.3125 1.0 -1.0625 1.78125q-0.75 0.765625 -1.859375 1.203125q-1.09375 0.421875 -2.5 0.421875zm17.816406 -0.265625l0 2.203125l-11.109375 0l0 -2.203125l11.109375 0zm8.234375 -13.109375l0 2.109375l-8.0 0l0 -2.109375l8.0 0zm-5.515625 13.109375l0 -14.609375q0 -1.21875 0.546875 -2.03125q0.546875 -0.828125 1.4375 -1.234375q0.890625 -0.40625 1.921875 -0.40625q0.78125 0 1.328125 0.125q0.5625 0.125 0.828125 0.21875l-0.59375 2.09375q-0.1875 -0.0625 -0.46875 -0.125q-0.28125 -0.0625 -0.6875 -0.0625q-0.90625 0 -1.328125 0.453125q-0.40625 0.453125 -0.40625 1.328125l0 14.25l-2.578125 0zm8.121094 0l0 -13.109375l2.5 0l0 2.109375l0.140625 0q0.359375 -1.078125 1.265625 -1.6875q0.90625 -0.609375 2.046875 -0.609375q0.25 0 0.5625 0.03125q0.3125 0.015625 0.53125 0.046875l0 2.453125q-0.140625 -0.046875 -0.546875 -0.09375q-0.390625 -0.046875 -0.796875 -0.046875q-0.890625 0 -1.609375 0.375q-0.71875 0.375 -1.125 1.046875q-0.390625 0.65625 -0.390625 1.53125l0 7.953125l-2.578125 0zm9.6875 0.171875q-0.71875 0 -1.234375 -0.5q-0.5 -0.5 -0.5 -1.21875q0 -0.734375 0.5 -1.21875q0.515625 -0.5 1.234375 -0.5q0.71875 0 1.21875 0.5q0.515625 0.484375 0.515625 1.21875q0 0.71875 -0.515625 1.21875q-0.5 0.5 -1.21875 0.5zm5.3710938 4.734375l0 -18.015625l2.515625 0l0 2.140625l0.203125 0q0.234375 -0.40625 0.640625 -0.9375q0.421875 -0.546875 1.171875 -0.953125q0.75 -0.40625 1.96875 -0.40625q1.578125 0 2.8125 0.796875q1.234375 0.796875 1.953125 2.3125q0.71875 1.5 0.71875 3.640625q0 2.109375 -0.703125 3.625q-0.703125 1.515625 -1.953125 2.34375q-1.234375 0.8125 -2.828125 0.8125q-1.171875 0 -1.9375 -0.40625q-0.75 -0.40625 -1.1875 -0.9375q-0.421875 -0.546875 -0.65625 -0.96875l-0.140625 0l0 6.953125l-2.578125 0zm5.9375 -6.84375q1.125 0 1.875 -0.609375q0.765625 -0.609375 1.140625 -1.640625q0.390625 -1.046875 0.390625 -2.359375q0 -1.28125 -0.390625 -2.296875q-0.375 -1.03125 -1.140625 -1.625q-0.75 -0.609375 -1.875 -0.609375q-1.109375 0 -1.875 0.578125q-0.75 0.5625 -1.140625 1.578125q-0.390625 1.015625 -0.390625 2.375q0 1.359375 0.390625 2.40625q0.390625 1.03125 1.15625 1.625q0.765625 0.578125 1.859375 0.578125zm13.7734375 2.203125q-1.59375 0 -2.84375 -0.8125q-1.234375 -0.828125 -1.9375 -2.34375q-0.703125 -1.515625 -0.703125 -3.625q0 -2.140625 0.71875 -3.640625q0.71875 -1.515625 1.953125 -2.3125q1.25 -0.796875 2.8125 -0.796875q1.21875 0 1.953125 0.40625q0.75 0.40625 1.171875 0.953125q0.421875 0.53125 0.65625 0.9375l0.140625 0l0 -6.5l2.578125 0l0 17.46875l-2.515625 0l0 -2.046875l-0.203125 0q-0.234375 0.421875 -0.671875 0.96875q-0.421875 0.53125 -1.171875 0.9375q-0.75 0.40625 -1.9375 0.40625zm0.5625 -2.203125q1.109375 0 1.859375 -0.578125q0.75 -0.59375 1.140625 -1.625q0.40625 -1.046875 0.40625 -2.40625q0 -1.359375 -0.390625 -2.375q-0.390625 -1.015625 -1.15625 -1.578125q-0.75 -0.578125 -1.859375 -0.578125q-1.140625 0 -1.890625 0.609375q-0.75 0.59375 -1.140625 1.625q-0.375 1.015625 -0.375 2.296875q0 1.3125 0.375 2.359375q0.390625 1.03125 1.15625 1.640625q0.765625 0.609375 1.875 0.609375zm15.8984375 -11.171875l0 2.109375l-8.0 0l0 -2.109375l8.0 0zm-5.515625 13.109375l0 -14.609375q0 -1.21875 0.546875 -2.03125q0.546875 -0.828125 1.4375 -1.234375q0.890625 -0.40625 1.921875 -0.40625q0.78125 0 1.328125 0.125q0.5625 0.125 0.828125 0.21875l-0.59375 2.09375q-0.1875 -0.0625 -0.46875 -0.125q-0.28125 -0.0625 -0.6875 -0.0625q-0.90625 0 -1.328125 0.453125q-0.40625 0.453125 -0.40625 1.328125l0 14.25l-2.578125 0z" fill-rule="nonzero"/><path fill="#000000" fill-opacity="0.0" d="m889.4969 489.57657l57.606323 0l0 41.322845l-57.606323 0z" fill-rule="evenodd"/><path fill="#595959" d="m931.73895 515.03796l4.21875 -8.3437195l0 -0.078125l-4.890625 0l0 -1.28125l6.4375 0l0 1.328125l-4.203125 8.3749695l-1.5625 0z" fill-rule="nonzero"/></g></svg>